<!--All daytime weather icons are stored here.-->
<!--ID matches the weather code from response.-->
<svg xmlns="http://www.w3.org/2000/svg" display="none">
    <symbol id="1000" viewBox="1.453 0 444.197 512">
        <g>
            <path d="M223.551,144.567c-61.331,0-111.049,49.71-111.049,111.041c0,61.339,49.719,111.065,111.049,111.065
		c61.33,0,111.049-49.726,111.049-111.065C334.6,194.277,284.882,144.567,223.551,144.567z M223.551,349.59
		c-51.812,0-93.965-42.16-93.965-93.981c0-51.805,42.152-93.957,93.965-93.957c51.812,0,93.965,42.152,93.965,93.957
		C317.517,307.43,275.363,349.59,223.551,349.59z"/>
            <rect x="214.951" y="33.568" width="17.084" height="85.422"/>
            <rect x="214.951" y="392.343" width="17.084" height="85.422"/>
            <rect x="1.453" y="247.125" width="85.364" height="17.084"/>
            <rect x="360.168" y="247.125" width="85.482" height="17.084"/>

            <rect x="340.532" y="85.547"
                  transform="matrix(-0.7071 -0.7071 0.7071 -0.7071 503.9698 468.7683)"
                  width="17.081" height="88.917"/>
            <rect x="89.322" y="336.788" transform="matrix(0.707 0.7072 -0.7072 0.707 298.296 42.4937)"
                  width="17.084"
                  height="88.923"/>

            <rect x="53.425" y="121.514" transform="matrix(-0.7071 -0.7071 0.7071 -0.7071 75.1333 291.2311)"
                  width="88.916" height="17.082"/>
            <rect x="304.608" y="372.74" transform="matrix(0.7072 0.707 -0.707 0.7072 371.7704 -135.158)"
                  width="88.924"
                  height="17.082"/>
        </g>
    </symbol>
    <symbol id="1003" viewBox="-24.398 0 495.897 512">
        <g>
            <path d="M398.992,289.102c-12.338-57.594-63.49-100.796-124.762-100.796c-18.662,0-36.373,4.013-52.34,11.22
		c-14.231-27.354-42.761-46.072-75.729-46.072c-47.174,0-85.422,38.239-85.422,85.414c0,21.014,7.675,40.167,20.271,55.033
		c-12.196,15.716-19.538,35.396-19.538,56.834c0,51.111,41.31,92.563,92.363,92.812v0.025h239.241v-0.051
		c0.357,0.01,0.7,0.051,1.06,0.051c42.721,0,77.363-34.628,77.363-77.364C471.501,325.123,439.435,291.621,398.992,289.102z
		 M146.162,170.536c26.411,0,49.201,15.149,60.58,37.114c-19.637,12.304-35.687,29.797-46.248,50.553
		c-2.061-0.135-4.104-0.309-6.19-0.309c-23.625,0-45.113,8.894-61.505,23.432c-9.327-11.67-14.974-26.394-14.974-42.46
		C77.825,201.193,108.481,170.536,146.162,170.536z M394.479,426.487c-0.324-0.025-0.658-0.033-1.001-0.043l-17.484-0.358v0.401
		H158.992l-5.072-0.025c-41.551-0.2-75.361-34.178-75.361-75.729c0-41.77,33.977-75.754,75.745-75.754
		c1.285,0,2.553,0.101,3.821,0.184l1.268,0.092l11.228,0.727l5.105-10.027c18.995-37.356,56.743-60.563,98.504-60.563
		c51.777,0,97.217,36.713,108.062,87.292l2.711,12.664l12.93,0.811c31.676,1.977,56.485,28.354,56.485,60.053
		C454.418,399.332,427.564,426.295,394.479,426.487z"/>
            <rect x="137.67" y="67.771" width="17.085" height="68.104"/>
            <rect x="-24.398" y="229.957" width="68.104" height="17.084"/>

            <rect x="15.971" y="134.123" transform="matrix(-0.7071 -0.7071 0.7071 -0.7071 -15.4734 278.9178)"
                  width="68.117" height="17.082"/>

            <rect x="233.883" y="108.646" transform="matrix(-0.7071 -0.7071 0.7071 -0.7071 312.9376 415.0134)"
                  width="17.081" height="68.094"/>
        </g>
    </symbol>
    <symbol id="1006" viewBox="-2.818 0 452.738 512">
        <path d="M232.104,131.821c58.002,0,108.904,41.126,121.051,97.793l2.72,12.671l12.931,0.801
	c35.903,2.236,64.033,32.143,64.033,68.088c0,37.557-30.458,68.137-67.973,68.338c-0.392-0.025-0.774-0.049-1.167-0.059
	l-17.451-0.309v0.367H104.185l-4.938-0.025c-46.857-0.233-84.98-38.549-84.98-85.404c0-47.101,38.314-85.424,85.414-85.424
	c1.493,0,2.961,0.118,4.43,0.218l1.276,0.091l11.245,0.742l5.106-10.044C143.034,157.814,185.32,131.821,232.104,131.821
	 M232.104,114.736c-54.867,0-102.309,31.416-125.59,77.181c-2.27-0.151-4.529-0.342-6.832-0.342
	c-56.609,0-102.499,45.89-102.499,102.508c0,56.44,45.614,102.205,101.981,102.489v0.024H363.33v-0.059
	c0.393,0.008,0.776,0.059,1.169,0.059c47.164,0,85.421-38.239,85.421-85.423c0-45.363-35.403-82.362-80.058-85.14
	C356.231,162.436,299.757,114.736,232.104,114.736L232.104,114.736z"/>
    </symbol>
    <symbol id="1009" viewBox="0 0 452.7 512">
        <path d="M372.7,226c-13.6-63.6-70.1-111.3-137.8-111.3c-54.9,0-102.3,31.4-125.6,77.2c-2.3-0.1-4.5-0.3-6.8-0.3
	C45.9,191.6,0,237.5,0,294.1c0,56.4,45.6,102.2,102,102.5v0h28.1c-2-5.4-3.3-11.1-3.6-17.1H107l-4.9,0c-46.8-0.2-85-38.5-85-85.4
	c0-47.1,38.3-85.4,85.4-85.4c1.5,0,3,0.1,4.4,0.2l1.3,0.1l11.2,0.7l5.1-10c21.3-41.9,63.6-67.8,110.4-67.8c58,0,108.9,41.1,121,97.8
	l2.7,12.7l12.9,0.8c35.9,2.2,64,32.1,64,68.1c0,20-8.7,38.1-22.5,50.6c-2.9,2.6-6,5-9.4,7.1c2.4,5.4,3.9,11.3,4.1,17.5
	c3.8-2.1,7.5-4.4,10.9-7c20.6-15.6,34-40.3,34-68.2C452.7,265.8,417.3,228.8,372.7,226z"/>
        <path d="M418.8,379.4c-0.9-6.2-2.9-12.1-5.6-17.6c-9-17.6-26.8-30-47.6-31.3c-9.2-42.8-47.2-74.9-92.7-74.9
	c-36.9,0-68.8,21.1-84.5,51.9c-1.5-0.1-3.1-0.2-4.6-0.2c-38.1,0-69,30.9-69,69c0,1.1,0,2.1,0.1,3.2c0.3,5.9,1.3,11.6,3,17.1
	c8.6,28.1,34.7,48.5,65.6,48.7v0h177.7v0c0.3,0,0.5,0,0.8,0c31.7,0,57.5-25.7,57.5-57.5C419.4,384.9,419.2,382.1,418.8,379.4z
	 M362.2,433.8c-0.3,0-0.5,0-0.8,0l-11.7-0.2v0.2H186.8l-3.3,0c-24.4-0.1-45.2-15.6-53.4-37.2c-2-5.4-3.3-11.1-3.6-17.1
	c-0.1-1.1-0.1-2.1-0.1-3.2c0-31.7,25.8-57.5,57.5-57.5c1,0,2,0.1,3,0.1l0.9,0.1l7.6,0.5l3.4-6.8c14.3-28.1,42.8-45.6,74.2-45.6
	c39,0,73.2,27.7,81.4,65.8l1.8,8.5l8.7,0.5c17.5,1.1,32.2,11.9,39,26.9c2.4,5.4,3.9,11.3,4.1,17.5c0,0.5,0,1,0,1.4
	C407.9,413.1,387.4,433.6,362.2,433.8z"/>
    </symbol>
    <symbol id="1030" viewBox="0 0 452.7 512">
        <path d="M234.9,131.8c58,0,108.9,41.1,121.1,97.8l2.7,12.7l12.9,0.8c35.9,2.2,64,32.1,64,68.1c0,37.6-30.5,68.1-68,68.3
	c-0.4,0-0.8,0-1.2-0.1l-17.5-0.3v0.4H107l-4.9,0c-46.9-0.2-85-38.5-85-85.4c0-47.1,38.3-85.4,85.4-85.4c1.5,0,3,0.1,4.4,0.2l1.3,0.1
	l11.2,0.7l5.1-10C145.9,157.8,188.1,131.8,234.9,131.8 M234.9,114.7c-54.9,0-102.3,31.4-125.6,77.2c-2.3-0.2-4.5-0.3-6.8-0.3
	C45.9,191.6,0,237.5,0,294.1c0,56.4,45.6,102.2,102,102.5v0h264.2v-0.1c0.4,0,0.8,0.1,1.2,0.1c47.2,0,85.4-38.2,85.4-85.4
	c0-45.4-35.4-82.4-80.1-85.1C359,162.4,302.6,114.7,234.9,114.7L234.9,114.7z"/>
        <rect x="80" y="418" width="300.2" height="17"/>
        <rect x="111.3" y="456.4" width="237.6" height="17"/>
    </symbol>
    <symbol id="1063" viewBox="-24.174 0 495.452 512">
        <g>
            <polygon points="313.42,425.86 254.626,341.891 240.637,351.691 299.432,435.662 308.933,449.234 338.621,491.637 352.618,481.845
		322.931,439.433 	"/>
            <polygon points="381.774,425.845 322.964,341.891 308.975,351.701 367.793,435.654 376.377,447.918 406.992,491.614
		420.99,481.819 390.375,438.116 	"/>
            <polygon points="245.082,425.86 186.288,341.891 172.298,351.701 231.093,435.662 241.211,450.118 270.291,491.646
		284.279,481.845 255.21,440.317 	"/>
            <rect x="138.129" y="19.687" width="17.084" height="68.104"/>
            <rect x="-24.174" y="181.255" width="68.104" height="17.084"/>

            <rect x="15.745" y="85.013" transform="matrix(-0.7071 -0.7071 0.7071 -0.7071 18.8681 194.9243)"
                  width="68.118" height="17.083"/>

            <rect x="233.635" y="59.544" transform="matrix(-0.7071 -0.7071 0.7071 -0.7071 347.2558 331.0079)"
                  width="17.083" height="68.094"/>
            <path d="M398.768,239.991c-12.339-57.593-63.49-100.796-124.765-100.796c-18.661,0-36.369,4.013-52.329,11.22
		c-14.24-27.353-42.77-46.073-75.737-46.073c-47.174,0-85.422,38.24-85.422,85.414c0,21.013,7.683,40.167,20.271,55.032
		c-12.205,15.716-19.537,35.396-19.537,56.835c0,51.111,41.31,92.562,92.363,92.812v0.024h10.144v-17.084H157.6l-3.904-0.024
		c-41.552-0.201-75.362-34.179-75.362-75.729c0-41.771,33.977-75.755,75.746-75.755c1.284,0,2.552,0.1,3.82,0.192l1.269,0.084
		l11.228,0.725l5.097-10.036c19.003-37.347,56.751-60.554,98.51-60.554c51.781,0,97.229,36.713,108.056,87.291l2.721,12.671
		l12.929,0.802c31.676,1.967,56.484,28.354,56.484,60.054c0,33.127-26.854,60.096-59.938,60.28
		c-0.359-0.024-0.676-0.043-1.001-0.043l-0.399,0.043h-7v17.084h7v-0.051c0.357,0.01,0.699,0.051,1.059,0.051
		c42.721,0,77.364-34.628,77.364-77.364C471.276,276.014,439.209,242.511,398.768,239.991z M160.269,209.093
		c-2.061-0.134-4.104-0.309-6.189-0.309c-23.625,0-45.122,8.901-61.506,23.433c-9.327-11.678-14.975-26.395-14.975-42.46
		c0-37.672,30.657-68.33,68.338-68.33c26.402,0,49.201,15.15,60.571,37.114C186.88,170.837,170.821,188.338,160.269,209.093z"/>
        </g>
    </symbol>
    <symbol id="1066" viewBox="-24.174 0 495.452 512">
        <g>
            <rect x="138.129" y="25.56" width="17.084" height="68.104"/>
            <rect x="-24.174" y="187.129" width="68.104" height="17.084"/>

            <rect x="15.746" y="90.886" transform="matrix(-0.7071 -0.7071 0.7071 -0.7071 14.7152 204.9502)"
                  width="68.117" height="17.083"/>

            <rect x="233.64" y="65.415" transform="matrix(-0.7071 -0.7071 0.7071 -0.7071 343.0936 341.0419)"
                  width="17.081" height="68.094"/>
            <path d="M398.768,245.864c-12.339-57.593-63.49-100.796-124.765-100.796c-18.661,0-36.369,4.021-52.337,11.229
		c-14.231-27.362-42.761-46.082-75.729-46.082c-47.174,0-85.422,38.24-85.422,85.415c0,21.013,7.683,40.166,20.271,55.032
		c-12.196,15.718-19.537,35.396-19.537,56.834c0,51.111,41.31,92.562,92.363,92.813v0.023h10.144V383.25H157.6l-3.904-0.025
		c-41.552-0.199-75.362-34.176-75.362-75.729c0-41.768,33.977-75.753,75.746-75.753c1.284,0,2.552,0.1,3.82,0.191l1.269,0.084
		l11.228,0.726l5.097-10.036c19.003-37.347,56.751-60.554,98.51-60.554c51.781,0,97.229,36.714,108.056,87.291l2.721,12.673
		l12.929,0.8c31.676,1.971,56.484,28.354,56.484,60.055c0,33.127-26.854,60.096-59.938,60.279c-0.36-0.025-0.676-0.041-1.001-0.041
		l-15.941,0.041v17.083h15.541v-0.048c0.358,0.007,0.7,0.048,1.06,0.048c42.721,0,77.364-34.627,77.364-77.362
		C471.276,281.886,439.209,248.384,398.768,245.864z M160.269,214.965c-2.061-0.133-4.104-0.308-6.189-0.308
		c-23.625,0-45.122,8.892-61.506,23.424c-9.327-11.662-14.975-26.386-14.975-42.452c0-37.673,30.657-68.33,68.338-68.33
		c26.411,0,49.201,15.149,60.571,37.122C186.88,176.717,170.83,194.211,160.269,214.965z"/>
            <polygon points="223.485,391.959 223.485,369.494 242.045,379.939 247.902,369.511 226.805,357.641 247.902,345.77
		242.045,335.342 223.485,345.786 223.485,323.621 206.4,323.621 206.4,346.16 187.172,335.342 181.316,345.77 202.413,357.641
		181.316,369.511 187.172,379.939 206.4,369.118 206.4,391.959 	"/>
            <polygon points="267.58,429.155 249.02,439.6 249.02,417.436 231.934,417.436 231.934,439.977 212.707,429.155 206.85,439.582
		227.947,451.455 206.85,463.326 212.707,473.753 231.934,462.934 231.934,485.772 249.02,485.772 249.02,463.308 267.58,473.753
		273.438,463.326 252.339,451.455 273.438,439.582 	"/>
            <polygon points="344.594,369.511 326.032,379.955 326.032,357.789 308.949,357.789 308.949,380.33 289.721,369.511
		283.864,379.939 304.961,391.809 283.864,403.68 289.721,414.106 308.949,403.288 308.949,426.127 326.032,426.127
		326.032,403.662 344.594,414.106 350.45,403.68 329.353,391.809 350.45,379.939 	"/>
        </g>
    </symbol>
    <symbol id="1069" viewBox="-24.174 0 495.452 512">
        <g>
            <g>
                <rect x="138.129" y="38.248" width="17.084" height="68.104"/>
            </g>
            <g>
                <rect x="-24.174" y="199.816" width="68.104" height="17.085"/>
            </g>
            <g>

                <rect x="15.745" y="103.575" transform="matrix(-0.7071 -0.7071 0.7071 -0.7071 5.7423 226.6105)"
                      width="68.118" height="17.083"/>
            </g>
            <g>

                <rect x="233.649" y="78.099" transform="matrix(-0.7071 -0.7071 0.7071 -0.7071 334.1517 362.6992)"
                      width="17.083" height="68.095"/>
            </g>
            <g>
                <path d="M398.768,258.555c-12.339-57.595-63.49-100.799-124.765-100.799c-18.661,0-36.369,4.013-52.337,11.22
			c-14.231-27.354-42.761-46.073-75.729-46.073c-47.174,0-85.422,38.239-85.422,85.414c0,21.013,7.675,40.166,20.271,55.033
			c-12.196,15.717-19.537,35.396-19.537,56.834c0,51.11,41.31,92.563,92.363,92.814v0.022h10.144v-17.083H157.6l-3.904-0.025
			c-41.552-0.201-75.362-34.178-75.362-75.729c0-41.77,33.977-75.755,75.746-75.755c1.284,0,2.552,0.1,3.82,0.191l1.269,0.083
			l11.228,0.727l5.097-10.036c19.003-37.348,56.751-60.555,98.51-60.555c51.781,0,97.229,36.713,108.056,87.291l2.721,12.672
			l12.929,0.802c31.676,1.969,56.484,28.354,56.484,60.055c0,33.126-26.854,60.096-59.938,60.279
			c-0.36-0.025-0.676-0.041-1.001-0.041l-17.485,0.041h-15.542v17.083h32.628v-0.049c0.357,0.008,0.699,0.049,1.059,0.049
			c42.721,0,77.364-34.628,77.364-77.362C471.276,294.573,439.209,261.072,398.768,258.555z M160.269,227.654
			c-2.061-0.133-4.104-0.309-6.189-0.309c-23.625,0-45.114,8.901-61.506,23.433c-9.327-11.679-14.975-26.394-14.975-42.46
			c0-37.673,30.657-68.33,68.338-68.33c26.411,0,49.201,15.149,60.58,37.114C186.88,189.397,170.83,206.899,160.269,227.654z"/>
            </g>
            <g>
                <path d="M193.562,344.775c-7.075,0-12.813,5.738-12.813,12.814c0,7.073,5.739,12.812,12.813,12.812s12.812-5.739,12.812-12.812
			C206.375,350.516,200.636,344.775,193.562,344.775z"/>
            </g>
            <g>
                <path d="M227.73,396.03c-7.075,0-12.813,5.738-12.813,12.812c0,7.076,5.739,12.815,12.813,12.815
			c7.074,0,12.812-5.739,12.812-12.815C240.544,401.77,234.807,396.03,227.73,396.03z"/>
            </g>
            <g>
                <path d="M296.068,396.03c-7.075,0-12.813,5.738-12.813,12.812c0,7.076,5.738,12.815,12.813,12.815
			c7.074,0,12.813-5.739,12.813-12.815C308.883,401.77,303.143,396.03,296.068,396.03z"/>
            </g>
            <g>
                <path d="M261.898,344.775c-7.072,0-12.812,5.738-12.812,12.814c0,7.073,5.739,12.812,12.812,12.812
			c7.074,0,12.813-5.739,12.813-12.812C274.713,350.516,268.973,344.775,261.898,344.775z"/>
            </g>
            <g>
                <path d="M330.237,344.775c-7.073,0-12.812,5.738-12.812,12.814c0,7.073,5.739,12.812,12.812,12.812s12.812-5.739,12.812-12.812
			C343.05,350.516,337.312,344.775,330.237,344.775z"/>
            </g>
            <g>
                <path d="M193.562,447.467c-7.075,0-12.813,5.739-12.813,12.812c0,7.076,5.739,12.814,12.813,12.814s12.812-5.738,12.812-12.814
			C206.375,453.206,200.636,447.467,193.562,447.467z"/>
            </g>
            <g>
                <path d="M261.898,447.467c-7.072,0-12.812,5.739-12.812,12.812c0,7.076,5.739,12.814,12.812,12.814
			c7.074,0,12.813-5.738,12.813-12.814C274.713,453.206,268.973,447.467,261.898,447.467z"/>
            </g>
            <g>
                <path d="M330.237,447.467c-7.073,0-12.812,5.739-12.812,12.812c0,7.076,5.739,12.814,12.812,12.814s12.812-5.738,12.812-12.814
			C343.05,453.206,337.312,447.467,330.237,447.467z"/>
            </g>
        </g>
    </symbol>
    <symbol id="1072" viewBox="-2.819 0 452.738 512">
        <g>
            <rect x="210.738" y="351.893" width="17.084" height="34.17"/>
            <rect x="279.076" y="317.539" width="17.084" height="34.354"/>
            <rect x="142.4" y="317.539" width="17.084" height="34.354"/>
            <path d="M369.862,181.147c-13.631-63.599-70.105-111.299-137.761-111.299c-54.866,0-102.308,31.416-125.589,77.18
		c-2.27-0.15-4.529-0.342-6.832-0.342c-56.609,0-102.499,45.89-102.499,102.507c0,56.442,45.614,102.206,101.981,102.491v0.024
		h17.61v-17.084h-13.706l-3.821-0.024c-46.857-0.233-84.98-38.551-84.98-85.407c0-47.1,38.314-85.422,85.414-85.422
		c1.493,0,2.961,0.117,4.438,0.216l1.268,0.083l11.245,0.751l5.106-10.044c21.289-41.852,63.583-67.846,110.366-67.846
		c58.002,0,108.912,41.126,121.059,97.793l2.712,12.664l12.931,0.809c35.903,2.236,64.033,32.143,64.033,68.089
		c0,37.562-30.458,68.138-67.973,68.338c-0.424-0.024-0.793-0.043-1.167-0.06l-17.451,0.06h-24.46v17.084h41.544v-0.06
		c0.393,0.009,0.776,0.06,1.169,0.06c47.164,0,85.421-38.24,85.421-85.422C449.92,220.922,414.517,183.925,369.862,181.147z"/>
            <path d="M287.618,381.967c-7.075,0-12.813,5.729-12.813,12.812c0,7.081,5.738,12.812,12.813,12.812
		c7.073,0,12.813-5.73,12.813-12.812C300.434,387.695,294.691,381.967,287.618,381.967z"/>
            <path d="M219.28,415.867c-7.074,0-12.813,5.73-12.813,12.812c0,7.083,5.739,12.812,12.813,12.812
		c7.076,0,12.813-5.729,12.813-12.812C232.094,421.599,226.355,415.867,219.28,415.867z"/>
            <path d="M150.942,381.605c-7.074,0-12.813,5.73-12.813,12.814c0,7.082,5.739,12.813,12.813,12.813
		c7.074,0,12.813-5.731,12.813-12.813C163.755,387.337,158.016,381.605,150.942,381.605z"/>
        </g>
    </symbol>
    <symbol id="1087" viewBox="-24.174 0 495.452 512">
        <g>
            <rect x="138.129" y="25.543" width="17.084" height="68.104"/>
            <rect x="-24.174" y="187.111" width="68.104" height="17.085"/>

            <rect x="15.746" y="90.869" transform="matrix(-0.7071 -0.7071 0.7071 -0.7071 14.7269 204.9219)"
                  width="68.117" height="17.083"/>

            <rect x="233.644" y="65.396" transform="matrix(-0.7071 -0.7071 0.7071 -0.7071 343.1242 341.0089)"
                  width="17.082" height="68.095"/>
            <path d="M398.768,245.848c-12.339-57.593-63.49-100.796-124.765-100.796c-18.661,0-36.369,4.013-52.337,11.22
		c-14.231-27.354-42.761-46.073-75.729-46.073c-47.174,0-85.422,38.24-85.422,85.415c0,21.013,7.675,40.166,20.271,55.032
		c-12.196,15.717-19.537,35.395-19.537,56.834c0,51.112,41.31,92.563,92.363,92.812v0.025h35.771v-17.084H157.6l-3.904-0.024
		c-41.552-0.2-75.362-34.178-75.362-75.729c0-41.769,33.977-75.753,75.746-75.753c1.284,0,2.552,0.1,3.82,0.192l1.269,0.083
		l11.228,0.726l5.097-10.036c19.003-37.347,56.751-60.554,98.51-60.554c51.781,0,97.229,36.713,108.056,87.291l2.721,12.672
		l12.929,0.801c31.676,1.969,56.484,28.354,56.484,60.055c0,33.125-26.854,60.096-59.938,60.279
		c-0.36-0.024-0.676-0.043-1.001-0.043l-17.485,0.043h-32.626v17.084h49.711v-0.05c0.358,0.008,0.7,0.05,1.06,0.05
		c42.721,0,77.364-34.627,77.364-77.363C471.276,281.87,439.209,248.367,398.768,245.848z M160.269,214.949
		c-2.061-0.133-4.104-0.309-6.189-0.309c-23.625,0-45.114,8.893-61.506,23.433c-9.327-11.67-14.975-26.394-14.975-42.46
		c0-37.673,30.657-68.33,68.338-68.33c26.411,0,49.201,15.149,60.58,37.113C186.88,176.701,170.83,194.194,160.269,214.949z"/>
            <polygon points="264.911,400.376 280.025,400.376 283.706,400.376 300.874,400.376 246.084,322.12 232.094,331.922
		268.064,383.292 252.941,383.292 232.094,383.292 242.954,398.809 252.455,412.381 303.518,485.798 317.517,476.006
		266.455,402.579 	"/>
        </g>
    </symbol>
    <symbol id="1114" viewBox="0 0 495.5 512">
        <g>
            <path d="M273.4,336.8H107l-4.9,0c-46.9-0.2-85-38.6-85-85.4c0-47.1,38.3-85.4,85.4-85.4c1.5,0,3,0.1,4.4,0.2l1.3,0.1l11.2,0.8
		l5.1-10c21.3-41.9,63.6-67.8,110.4-67.8c58,0,108.9,41.1,121.1,97.8l2.7,12.7l12.9,0.8c15.6,1,29.6,7.2,40.5,16.8h23.3
		c-14.6-19.3-37.1-32.3-62.8-33.9C359,119.7,302.6,72,234.9,72c-54.9,0-102.3,31.4-125.6,77.2c-2.3-0.1-4.5-0.3-6.8-0.3
		C45.9,148.9,0,194.8,0,251.4c0,56.4,45.6,102.2,102,102.5v0h171.4c18.8,0,34.2,15.3,34.2,34.2s-15.3,34.2-34.2,34.2v17.1
		c28.3,0,51.3-22.9,51.3-51.3C324.6,359.8,301.7,336.8,273.4,336.8z"/>
            <path d="M307.5,302.6H170.9v17.1h136.6c28.3,0,51.3-22.9,51.3-51.3c0-28.3-22.9-51.3-51.3-51.3v17.1c18.8,0,34.2,15.3,34.2,34.2
		C341.7,287.3,326.4,302.6,307.5,302.6z"/>
            <path d="M418.6,251.4c14.1,0,25.6,11.5,25.6,25.6c0,14.1-11.5,25.6-25.6,25.6c-0.4,0-0.7-0.1-1.1-0.1H376c0,0,0.1,0.1,0.1,0.1h-0.2
		v17.1h47v-0.4c21.6-2.2,38.4-20.1,38.4-42.3c0-23.6-19.1-42.7-42.7-42.7L418.6,251.4L418.6,251.4z"/>
            <rect x="119.6" y="302.6" width="34.2" height="17.1"/>
        </g>
        <polygon points="394.2,407.5 394.2,385.1 412.7,395.5 418.6,385.1 397.5,373.2 418.6,361.4 412.7,350.9 394.2,361.4 394.2,339.2
	377.1,339.2 377.1,361.8 357.8,350.9 352,361.4 373.1,373.2 352,385.1 357.8,395.5 377.1,384.7 377.1,407.5 "/>
        <polygon points="226.6,432.5 226.6,410 245.2,420.4 251,410 229.9,398.1 251,386.3 245.2,375.8 226.6,386.3 226.6,364.1
	209.5,364.1 209.5,386.7 190.3,375.8 184.5,386.3 205.6,398.1 184.5,410 190.3,420.4 209.5,409.6 209.5,432.5 "/>
    </symbol>
    <symbol id="1117" viewBox="0 0 495.5 512">
        <g>
            <path d="M273.4,336.8H107l-4.9,0c-46.9-0.2-85-38.6-85-85.4c0-47.1,38.3-85.4,85.4-85.4c1.5,0,3,0.1,4.4,0.2l1.3,0.1l11.2,0.8
		l5.1-10c21.3-41.9,63.6-67.8,110.4-67.8c58,0,108.9,41.1,121.1,97.8l2.7,12.7l12.9,0.8c15.6,1,29.6,7.2,40.5,16.8h23.3
		c-14.6-19.3-37.1-32.3-62.8-33.9C359,119.7,302.6,72,234.9,72c-54.9,0-102.3,31.4-125.6,77.2c-2.3-0.1-4.5-0.3-6.8-0.3
		C45.9,148.9,0,194.8,0,251.4c0,56.4,45.6,102.2,102,102.5v0h171.4c18.8,0,34.2,15.3,34.2,34.2s-15.3,34.2-34.2,34.2v17.1
		c28.3,0,51.3-22.9,51.3-51.3C324.6,359.8,301.7,336.8,273.4,336.8z"/>
            <path d="M307.5,302.6H170.9v17.1h136.6c28.3,0,51.3-22.9,51.3-51.3c0-28.3-22.9-51.3-51.3-51.3v17.1c18.8,0,34.2,15.3,34.2,34.2
		C341.7,287.3,326.4,302.6,307.5,302.6z"/>
            <path d="M418.6,251.4c14.1,0,25.6,11.5,25.6,25.6c0,14.1-11.5,25.6-25.6,25.6c-0.4,0-0.7-0.1-1.1-0.1H376c0,0,0.1,0.1,0.1,0.1h-0.2
		v17.1h47v-0.4c21.6-2.2,38.4-20.1,38.4-42.3c0-23.6-19.1-42.7-42.7-42.7L418.6,251.4L418.6,251.4z"/>
            <rect x="119.6" y="302.6" width="34.2" height="17.1"/>
        </g>
        <polygon points="394.2,407.5 394.2,385.1 412.7,395.5 418.6,385.1 397.5,373.2 418.6,361.4 412.7,350.9 394.2,361.4 394.2,339.2
	377.1,339.2 377.1,361.8 357.8,350.9 352,361.4 373.1,373.2 352,385.1 357.8,395.5 377.1,384.7 377.1,407.5 "/>
        <polygon points="226.6,432.5 226.6,410 245.2,420.4 251,410 229.9,398.1 251,386.3 245.2,375.8 226.6,386.3 226.6,364.1
	209.5,364.1 209.5,386.7 190.3,375.8 184.5,386.3 205.6,398.1 184.5,410 190.3,420.4 209.5,409.6 209.5,432.5 "/>
    </symbol>
    <symbol id="1135" viewBox="-28.445 0 503.992 512">
        <g>
            <rect x="133.858" y="55.466" width="17.084" height="68.104"/>
            <rect x="-28.445" y="217.035" width="68.104" height="17.084"/>

            <rect x="11.475" y="120.792" transform="matrix(-0.7071 -0.7071 0.7071 -0.7071 -13.7219 252.9837)"
                  width="68.117" height="17.083"/>

            <rect x="229.39" y="95.314" transform="matrix(-0.7071 -0.7071 0.7071 -0.7071 314.6959 389.0777)"
                  width="17.081" height="68.094"/>
            <rect x="48.435" y="344.826" width="427.112" height="17.084"/>
            <rect x="82.604" y="396.08" width="375.858" height="17.084"/>
            <rect x="133.858" y="438.792" width="256.266" height="17.084"/>
            <rect x="65.52" y="293.572" width="392.942" height="17.087"/>
            <path d="M73.278,276.488h6.59h16.459h8.643c12.571-9.284,28.046-14.842,44.838-14.842c1.284,0,2.552,0.101,3.82,0.193l1.268,0.082
		l11.229,0.727l5.097-10.037c19.003-37.346,56.75-60.555,98.51-60.555c50.787,0,95.399,35.354,107.312,84.429h17.451v-0.717
		c-12.338-57.594-63.491-100.796-124.764-100.796c-18.662,0-36.371,4.012-52.33,11.22c-14.24-27.354-42.77-46.074-75.738-46.074
		c-47.174,0-85.422,38.241-85.422,85.414C56.244,244.68,62.634,262.266,73.278,276.488z M141.666,157.206
		c26.403,0,49.202,15.149,60.572,37.113c-19.628,12.305-35.687,29.797-46.24,50.553c-2.061-0.134-4.104-0.309-6.189-0.309
		c-23.608,0-45.056,8.926-61.415,23.449c-9.368-11.67-15.065-26.386-15.065-42.478C73.328,187.862,103.985,157.206,141.666,157.206z
		"/>
        </g>
    </symbol>
    <symbol id="1147" viewBox="-28.445 0 503.992 512">
        <g>
            <rect x="133.858" y="55.466" width="17.084" height="68.104"/>
            <rect x="-28.445" y="217.035" width="68.104" height="17.084"/>

            <rect x="11.475" y="120.792" transform="matrix(-0.7071 -0.7071 0.7071 -0.7071 -13.7219 252.9837)"
                  width="68.117" height="17.083"/>

            <rect x="229.39" y="95.314" transform="matrix(-0.7071 -0.7071 0.7071 -0.7071 314.6959 389.0777)"
                  width="17.081" height="68.094"/>
            <rect x="48.435" y="344.826" width="427.112" height="17.084"/>
            <rect x="82.604" y="396.08" width="375.858" height="17.084"/>
            <rect x="133.858" y="438.792" width="256.266" height="17.084"/>
            <rect x="65.52" y="293.572" width="392.942" height="17.087"/>
            <path d="M73.278,276.488h6.59h16.459h8.643c12.571-9.284,28.046-14.842,44.838-14.842c1.284,0,2.552,0.101,3.82,0.193l1.268,0.082
		l11.229,0.727l5.097-10.037c19.003-37.346,56.75-60.555,98.51-60.555c50.787,0,95.399,35.354,107.312,84.429h17.451v-0.717
		c-12.338-57.594-63.491-100.796-124.764-100.796c-18.662,0-36.371,4.012-52.33,11.22c-14.24-27.354-42.77-46.074-75.738-46.074
		c-47.174,0-85.422,38.241-85.422,85.414C56.244,244.68,62.634,262.266,73.278,276.488z M141.666,157.206
		c26.403,0,49.202,15.149,60.572,37.113c-19.628,12.305-35.687,29.797-46.24,50.553c-2.061-0.134-4.104-0.309-6.189-0.309
		c-23.608,0-45.056,8.926-61.415,23.449c-9.368-11.67-15.065-26.386-15.065-42.478C73.328,187.862,103.985,157.206,141.666,157.206z
		"/>
        </g>
    </symbol>
    <symbol id="1150" viewBox="-2.819 0 452.738 512">
        <g>
            <rect x="210.738" y="311.266" width="17.084" height="59.797"/>
            <rect x="279.076" y="277.1" width="17.084" height="59.795"/>
            <rect x="142.4" y="277.1" width="17.084" height="59.795"/>
            <rect x="210.738" y="396.689" width="17.084" height="59.796"/>
            <rect x="279.076" y="362.52" width="17.084" height="59.797"/>
            <rect x="142.4" y="362.52" width="17.084" height="59.797"/>
            <path d="M369.862,166.148c-13.631-63.6-70.105-111.299-137.761-111.299c-54.866,0-102.308,31.416-125.589,77.18
		c-2.27-0.15-4.529-0.342-6.832-0.342c-56.609,0-102.499,45.89-102.499,102.507c0,56.445,45.614,102.208,101.981,102.492v0.023
		h17.61v-17.084h-13.706l-3.821-0.025c-46.857-0.232-84.98-38.548-84.98-85.406c0-47.099,38.314-85.422,85.414-85.422
		c1.493,0,2.961,0.117,4.438,0.216l1.268,0.083l11.245,0.751l5.106-10.044c21.289-41.852,63.583-67.846,110.366-67.846
		c58.002,0,108.912,41.126,121.059,97.793l2.712,12.663l12.931,0.81c35.903,2.235,64.033,32.142,64.033,68.088
		c0,37.563-30.458,68.138-67.973,68.338c-0.424-0.024-0.793-0.041-1.167-0.06l-17.451,0.06h-24.46v17.084h41.544v-0.06
		c0.393,0.011,0.776,0.06,1.169,0.06c47.164,0,85.421-38.237,85.421-85.422C449.92,205.923,414.517,168.926,369.862,166.148z"/>
        </g>
    </symbol>
    <symbol id="1153" viewBox="-2.819 0 452.738 512">
        <g>
            <rect x="210.738" y="311.266" width="17.084" height="59.797"/>
            <rect x="279.076" y="277.1" width="17.084" height="59.795"/>
            <rect x="142.4" y="277.1" width="17.084" height="59.795"/>
            <rect x="210.738" y="396.689" width="17.084" height="59.796"/>
            <rect x="279.076" y="362.52" width="17.084" height="59.797"/>
            <rect x="142.4" y="362.52" width="17.084" height="59.797"/>
            <path d="M369.862,166.148c-13.631-63.6-70.105-111.299-137.761-111.299c-54.866,0-102.308,31.416-125.589,77.18
		c-2.27-0.15-4.529-0.342-6.832-0.342c-56.609,0-102.499,45.89-102.499,102.507c0,56.445,45.614,102.208,101.981,102.492v0.023
		h17.61v-17.084h-13.706l-3.821-0.025c-46.857-0.232-84.98-38.548-84.98-85.406c0-47.099,38.314-85.422,85.414-85.422
		c1.493,0,2.961,0.117,4.438,0.216l1.268,0.083l11.245,0.751l5.106-10.044c21.289-41.852,63.583-67.846,110.366-67.846
		c58.002,0,108.912,41.126,121.059,97.793l2.712,12.663l12.931,0.81c35.903,2.235,64.033,32.142,64.033,68.088
		c0,37.563-30.458,68.138-67.973,68.338c-0.424-0.024-0.793-0.041-1.167-0.06l-17.451,0.06h-24.46v17.084h41.544v-0.06
		c0.393,0.011,0.776,0.06,1.169,0.06c47.164,0,85.421-38.237,85.421-85.422C449.92,205.923,414.517,168.926,369.862,166.148z"/>
        </g>
    </symbol>
    <symbol id="1168" viewBox="0 0 452.7 512">
        <g>
            <rect x="213.6" y="311.3" width="17.1" height="59.8"/>
            <rect x="281.9" y="277.1" width="17.1" height="59.8"/>
            <rect x="145.2" y="277.1" width="17.1" height="59.8"/>
            <rect x="213.6" y="396.7" width="17.1" height="59.8"/>
            <rect x="281.9" y="362.5" width="17.1" height="59.8"/>
            <rect x="145.2" y="362.5" width="17.1" height="59.8"/>
            <path d="M372.7,166.1C359,102.5,302.6,54.8,234.9,54.8c-54.9,0-102.3,31.4-125.6,77.2c-2.3-0.1-4.5-0.3-6.8-0.3
		C45.9,131.7,0,177.6,0,234.2c0,56.4,45.6,102.2,102,102.5v0h17.6v-17.1h-13.7l-3.8,0c-46.9-0.2-85-38.5-85-85.4
		c0-47.1,38.3-85.4,85.4-85.4c1.5,0,3,0.1,4.4,0.2l1.3,0.1l11.2,0.8l5.1-10c21.3-41.9,63.6-67.8,110.4-67.8
		c58,0,108.9,41.1,121.1,97.8l2.7,12.7l12.9,0.8c35.9,2.2,64,32.1,64,68.1c0,37.6-30.5,68.1-68,68.3c-0.4,0-0.8,0-1.2-0.1l-17.5,0.1
		h-24.5v17.1h41.5v-0.1c0.4,0,0.8,0.1,1.2,0.1c47.2,0,85.4-38.2,85.4-85.4C452.7,205.9,417.3,168.9,372.7,166.1z"/>
        </g>
        <polygon points="364.7,422.3 364.7,399.9 383.3,410.3 389.1,399.9 368,388 389.1,376.1 383.3,365.7 364.7,376.1 364.7,354
	347.6,354 347.6,376.5 328.4,365.7 322.5,376.1 343.6,388 322.5,399.9 328.4,410.3 347.6,399.5 347.6,422.3 "/>
    </symbol>
    <symbol id="1171" viewBox="0 0 452.7 512">
        <g>
            <rect x="213.6" y="311.3" width="17.1" height="59.8"/>
            <rect x="281.9" y="277.1" width="17.1" height="59.8"/>
            <rect x="145.2" y="277.1" width="17.1" height="59.8"/>
            <rect x="213.6" y="396.7" width="17.1" height="59.8"/>
            <rect x="281.9" y="362.5" width="17.1" height="59.8"/>
            <rect x="145.2" y="362.5" width="17.1" height="59.8"/>
            <path d="M372.7,166.1C359,102.5,302.6,54.8,234.9,54.8c-54.9,0-102.3,31.4-125.6,77.2c-2.3-0.1-4.5-0.3-6.8-0.3
		C45.9,131.7,0,177.6,0,234.2c0,56.4,45.6,102.2,102,102.5v0h17.6v-17.1h-13.7l-3.8,0c-46.9-0.2-85-38.5-85-85.4
		c0-47.1,38.3-85.4,85.4-85.4c1.5,0,3,0.1,4.4,0.2l1.3,0.1l11.2,0.8l5.1-10c21.3-41.9,63.6-67.8,110.4-67.8
		c58,0,108.9,41.1,121.1,97.8l2.7,12.7l12.9,0.8c35.9,2.2,64,32.1,64,68.1c0,37.6-30.5,68.1-68,68.3c-0.4,0-0.8,0-1.2-0.1l-17.5,0.1
		h-24.5v17.1h41.5v-0.1c0.4,0,0.8,0.1,1.2,0.1c47.2,0,85.4-38.2,85.4-85.4C452.7,205.9,417.3,168.9,372.7,166.1z"/>
        </g>
        <polygon points="364.7,422.3 364.7,399.9 383.3,410.3 389.1,399.9 368,388 389.1,376.1 383.3,365.7 364.7,376.1 364.7,354
	347.6,354 347.6,376.5 328.4,365.7 322.5,376.1 343.6,388 322.5,399.9 328.4,410.3 347.6,399.5 347.6,422.3 "/>

    </symbol>
    <symbol id="1180" viewBox="-24.174 0 495.452 512">
        <g>
            <rect x="138.129" y="23.416" width="17.084" height="68.104"/>
            <rect x="-24.174" y="184.985" width="68.104" height="17.083"/>

            <rect x="15.745" y="88.742" transform="matrix(-0.7071 -0.7071 0.7071 -0.7071 16.2303 201.2902)" width="68.117" height="17.084"/>

            <rect x="233.646" y="63.268" transform="matrix(-0.7071 -0.7071 0.7071 -0.7071 344.6214 337.3818)" width="17.081" height="68.094"/>
            <path d="M398.768,243.721c-12.339-57.593-63.49-100.796-124.765-100.796c-18.661,0-36.369,4.012-52.329,11.22
		c-14.24-27.353-42.77-46.073-75.737-46.073c-47.174,0-85.422,38.24-85.422,85.414c0,21.014,7.683,40.167,20.271,55.033
		c-12.205,15.717-19.537,35.396-19.537,56.834c0,51.11,41.31,92.562,92.363,92.813v0.025h10.144v-17.087H157.6l-3.904-0.022
		c-41.552-0.2-75.362-34.179-75.362-75.729c0-41.769,33.977-75.754,75.746-75.754c1.284,0,2.552,0.1,3.82,0.192l1.269,0.083
		l11.228,0.725l5.097-10.035c19.003-37.347,56.751-60.555,98.51-60.555c51.781,0,97.229,36.713,108.056,87.292l2.721,12.672
		l12.929,0.801c31.676,1.969,56.484,28.354,56.484,60.055c0,33.127-26.854,60.097-59.938,60.279
		c-0.359-0.023-0.676-0.041-1.001-0.041l-17.485,0.041h-6.999v17.086h24.085v-0.052c0.357,0.009,0.699,0.052,1.059,0.052
		c42.721,0,77.364-34.629,77.364-77.365C471.276,279.743,439.209,246.24,398.768,243.721z M160.269,212.822
		c-2.061-0.133-4.104-0.308-6.189-0.308c-23.625,0-45.122,8.901-61.506,23.432c-9.327-11.679-14.975-26.395-14.975-42.461
		c0-37.672,30.657-68.329,68.338-68.329c26.402,0,49.201,15.149,60.571,37.113C186.88,174.565,170.821,192.067,160.269,212.822z"/>
            <rect x="257.721" y="398.323" width="17.084" height="34.171"/>
            <rect x="326.058" y="363.971" width="17.085" height="34.354"/>
            <rect x="189.382" y="363.971" width="17.085" height="34.354"/>
            <path d="M334.6,428.397c-7.065,0-12.812,5.729-12.812,12.812c0,7.081,5.747,12.813,12.812,12.813
		c7.066,0,12.814-5.732,12.814-12.813C347.414,434.127,341.666,428.397,334.6,428.397z"/>
            <path d="M266.262,462.299c-7.063,0-12.812,5.732-12.812,12.813c0,7.083,5.748,12.812,12.812,12.812
		c7.066,0,12.814-5.729,12.814-12.812C279.076,468.031,273.328,462.299,266.262,462.299z"/>
            <path d="M197.924,428.038c-7.066,0-12.813,5.73-12.813,12.813c0,7.081,5.747,12.812,12.813,12.812
		c7.065,0,12.813-5.731,12.813-12.812C210.738,433.77,204.99,428.038,197.924,428.038z"/>
        </g>
    </symbol>
    <symbol id="1183" viewBox="-2.819 0 452.738 512">
        <g>
            <path d="M369.862,161.853c-13.631-63.6-70.105-111.3-137.761-111.3c-54.866,0-102.308,31.416-125.589,77.181
		c-2.27-0.151-4.529-0.342-6.832-0.342c-56.609,0-102.499,45.89-102.499,102.507c0,56.443,45.614,102.207,101.981,102.492v0.024
		h17.61v-17.086h-13.706l-3.821-0.024c-46.857-0.234-84.98-38.55-84.98-85.406c0-47.1,38.314-85.423,85.414-85.423
		c1.493,0,2.961,0.117,4.438,0.218l1.268,0.083l11.245,0.751l5.106-10.044c21.289-41.852,63.583-67.846,110.366-67.846
		c58.002,0,108.912,41.126,121.059,97.794l2.712,12.664l12.931,0.809c35.903,2.235,64.033,32.142,64.033,68.087
		c0,37.564-30.458,68.137-67.973,68.338c-0.424-0.025-0.793-0.041-1.167-0.061l-17.451,0.061h-24.46v17.086h41.544v-0.059
		c0.393,0.008,0.776,0.059,1.169,0.059c47.164,0,85.421-38.24,85.421-85.424C449.92,201.626,414.517,164.629,369.862,161.853z"/>
            <polygon points="210.738,392.452 210.738,409.028 210.738,460.79 227.822,460.79 227.822,409.028 227.822,392.452 227.822,289.943
		210.738,289.943 	"/>
            <polygon points="279.076,358.281 279.076,373.257 279.076,426.619 296.16,426.619 296.16,373.257 296.16,358.281 296.16,255.774
		279.076,255.774 	"/>
            <polygon points="142.4,358.281 142.4,375.925 142.4,426.619 159.484,426.619 159.484,375.925 159.484,358.281 159.484,255.774
		142.4,255.774 	"/>
        </g>
    </symbol>
    <symbol id="1186" viewBox="-24.174 0 495.452 512">
        <g>
            <polygon points="257.721,438.908 257.721,455.484 257.721,507.246 274.805,507.246 274.805,455.484 274.805,438.908 274.805,336.4
		257.721,336.4 	"/>
            <polygon points="326.058,404.739 326.058,419.714 326.058,473.077 343.143,473.077 343.143,419.714 343.143,404.739
		343.143,302.23 326.058,302.23 	"/>
            <polygon points="189.382,404.739 189.382,422.382 189.382,473.077 206.467,473.077 206.467,422.382 206.467,404.739
		206.467,302.23 189.382,302.23 	"/>
            <rect x="138.129" y="4.087" width="17.084" height="68.104"/>
            <rect x="-24.174" y="165.656" width="68.104" height="17.084"/>

            <rect x="15.745" y="69.414" transform="matrix(-0.7071 -0.7071 0.7071 -0.7071 29.8975 168.2946)" width="68.117" height="17.083"/>

            <rect x="233.65" y="43.938" transform="matrix(-0.7071 -0.7071 0.7071 -0.7071 358.2976 304.3867)" width="17.083" height="68.094"/>
            <path d="M398.768,224.393c-12.339-57.594-63.49-100.797-124.765-100.797c-18.661,0-36.369,4.012-52.337,11.22
		c-14.231-27.354-42.761-46.074-75.729-46.074c-47.174,0-85.422,38.24-85.422,85.414c0,21.014,7.675,40.167,20.271,55.032
		c-12.196,15.717-19.537,35.396-19.537,56.835c0,51.111,41.31,92.562,92.363,92.812v0.024h10.144v-17.084H157.6l-3.904-0.024
		c-41.552-0.2-75.362-34.177-75.362-75.729c0-41.769,33.977-75.753,75.746-75.753c1.284,0,2.552,0.1,3.82,0.191l1.269,0.083
		l11.228,0.726l5.097-10.035c19.003-37.348,56.751-60.556,98.51-60.556c51.781,0,97.229,36.713,108.056,87.292l2.721,12.671
		l12.929,0.8c31.676,1.97,56.484,28.356,56.484,60.056c0,33.126-26.854,60.096-59.938,60.277c-0.36-0.024-0.676-0.041-1.001-0.041
		l-17.485,0.041h-6.999v17.084h24.085v-0.051c0.357,0.01,0.699,0.051,1.059,0.051c42.721,0,77.364-34.627,77.364-77.361
		C471.276,260.413,439.209,226.912,398.768,224.393z M160.269,193.494c-2.061-0.133-4.104-0.309-6.189-0.309
		c-23.625,0-45.114,8.901-61.506,23.433c-9.327-11.679-14.975-26.394-14.975-42.461c0-37.673,30.657-68.329,68.338-68.329
		c26.411,0,49.201,15.149,60.58,37.114C186.88,155.236,170.83,172.739,160.269,193.494z"/>
        </g>
    </symbol>
    <symbol id="1189" viewBox="-2.819 0 452.738 512">
        <g>
            <path d="M369.862,161.853c-13.631-63.6-70.105-111.3-137.761-111.3c-54.866,0-102.308,31.416-125.589,77.181
		c-2.27-0.151-4.529-0.342-6.832-0.342c-56.609,0-102.499,45.89-102.499,102.507c0,56.443,45.614,102.207,101.981,102.492v0.024
		h17.61v-17.086h-13.706l-3.821-0.024c-46.857-0.234-84.98-38.55-84.98-85.406c0-47.1,38.314-85.423,85.414-85.423
		c1.493,0,2.961,0.117,4.438,0.218l1.268,0.083l11.245,0.751l5.106-10.044c21.289-41.852,63.583-67.846,110.366-67.846
		c58.002,0,108.912,41.126,121.059,97.794l2.712,12.664l12.931,0.809c35.903,2.235,64.033,32.142,64.033,68.087
		c0,37.564-30.458,68.137-67.973,68.338c-0.424-0.025-0.793-0.041-1.167-0.061l-17.451,0.061h-24.46v17.086h41.544v-0.059
		c0.393,0.008,0.776,0.059,1.169,0.059c47.164,0,85.421-38.24,85.421-85.424C449.92,201.626,414.517,164.629,369.862,161.853z"/>
            <polygon points="210.738,392.452 210.738,409.028 210.738,460.79 227.822,460.79 227.822,409.028 227.822,392.452 227.822,289.943
		210.738,289.943 	"/>
            <polygon points="279.076,358.281 279.076,373.257 279.076,426.619 296.16,426.619 296.16,373.257 296.16,358.281 296.16,255.774
		279.076,255.774 	"/>
            <polygon points="142.4,358.281 142.4,375.925 142.4,426.619 159.484,426.619 159.484,375.925 159.484,358.281 159.484,255.774
		142.4,255.774 	"/>
        </g>
    </symbol>
    <symbol id="1192" viewBox="0 0 495.5 512">
        <g>
            <rect x="162.3" y="4.1" width="17.1" height="68.1"/>
            <rect y="165.7" width="68.1" height="17.1"/>
            <rect x="65.4" y="43.9" transform="matrix(0.7071 -0.7071 0.7071 0.7071 -33.4558 75.143)" width="17.1" height="68.1"/>
            <rect x="232.3" y="69.4" transform="matrix(0.7071 -0.7071 0.7071 0.7071 22.8682 211.1885)" width="68.1" height="17.1"/>
            <path d="M422.9,224.4c-12.3-57.6-63.5-100.8-124.8-100.8c-18.7,0-36.4,4-52.3,11.2c-14.2-27.4-42.8-46.1-75.7-46.1
		c-47.2,0-85.4,38.2-85.4,85.4c0,21,7.7,40.2,20.3,55c-12.2,15.7-19.5,35.4-19.5,56.8c0,51.1,41.3,92.6,92.4,92.8v0h3.1v-17.1l-3,0
		c-41.5-0.2-75.4-34.2-75.4-75.7c0-41.8,34-75.8,75.7-75.8c1.3,0,2.6,0.1,3.8,0.2l1.3,0.1l11.2,0.7l5.1-10
		c19-37.3,56.8-60.5,98.5-60.5c51.8,0,97.2,36.7,108,87.3l2.7,12.7l12.9,0.8c31.7,2,56.5,28.4,56.5,60.1c0,33.1-26.9,60.1-59.9,60.3
		c-0.4,0-0.7,0-1,0l-17.5,0h-7v17.1H417v0c0.4,0,0.7,0,1.1,0c42.7,0,77.4-34.6,77.4-77.4C495.5,260.4,463.4,226.9,422.9,224.4z
		 M184.4,193.5c-2.1-0.1-4.1-0.3-6.2-0.3c-23.6,0-45.1,8.9-61.5,23.4c-9.3-11.7-15-26.4-15-42.5c0-37.7,30.7-68.3,68.3-68.3
		c26.4,0,49.2,15.1,60.6,37.1C211,155.2,195,172.7,184.4,193.5z"/>
            <polygon points="320.7,408.6 261.9,324.6 247.9,334.4 306.7,418.4 316.2,432 345.9,474.4 359.9,464.6 330.2,422.2 	"/>
            <polygon points="389.1,408.6 330.3,324.6 316.3,334.4 375.1,418.4 383.7,430.6 414.3,474.3 428.3,464.6 397.7,420.8 	"/>
            <polygon points="252.4,408.6 193.6,324.6 179.6,334.4 238.4,418.4 248.5,432.9 277.6,474.4 291.6,464.6 262.5,423 	"/>
        </g>
    </symbol>
    <symbol id="1195" viewBox="-2.819 0 452.738 512">
        <g>
            <polygon points="274.979,379.396 216.186,295.425 202.195,305.227 260.989,389.197 270.492,402.771 300.182,445.172
		314.179,435.38 284.489,392.968 	"/>
            <polygon points="343.334,379.38 284.523,295.425 270.533,305.234 329.353,389.189 337.938,401.451 368.553,445.146
		382.551,435.354 351.936,391.648 	"/>
            <polygon points="206.642,379.396 147.847,295.425 133.858,305.234 192.652,389.197 202.771,403.654 231.852,445.182
		245.841,435.38 216.769,393.852 	"/>
            <path d="M369.862,177.46c-13.631-63.601-70.105-111.3-137.761-111.3c-54.866,0-102.308,31.416-125.589,77.181
		c-2.27-0.149-4.529-0.342-6.832-0.342c-56.609,0-102.499,45.889-102.499,102.507c0,56.442,45.614,102.207,101.981,102.49v0.025
		h17.61v-17.086h-13.706l-3.821-0.022c-46.857-0.233-84.98-38.55-84.98-85.407c0-47.099,38.314-85.422,85.414-85.422
		c1.493,0,2.961,0.117,4.438,0.217l1.268,0.083l11.245,0.751l5.106-10.043c21.289-41.853,63.583-67.846,110.366-67.846
		c58.002,0,108.912,41.125,121.059,97.793l2.712,12.663l12.931,0.809c35.903,2.236,64.033,32.142,64.033,68.087
		c0,37.564-30.458,68.139-67.973,68.338c-0.424-0.022-0.793-0.041-1.167-0.059l-8.908,0.059h1.167v17.086h7.374v-0.059
		c0.393,0.008,0.776,0.059,1.169,0.059c47.164,0,85.421-38.239,85.421-85.424C449.92,217.235,414.517,180.238,369.862,177.46z"/>
        </g>
    </symbol>
    <symbol id="1198" viewBox="0 0 452.7 512">
        <g>
            <path d="M372.7,161.9C359,98.3,302.6,50.6,234.9,50.6c-54.9,0-102.3,31.4-125.6,77.2c-2.3-0.2-4.5-0.3-6.8-0.3
		C45.9,127.4,0,173.3,0,229.9c0,56.4,45.6,102.2,102,102.5v0h17.6v-17.1h-13.7l-3.8,0c-46.9-0.2-85-38.5-85-85.4
		c0-47.1,38.3-85.4,85.4-85.4c1.5,0,3,0.1,4.4,0.2l1.3,0.1l11.2,0.8l5.1-10c21.3-41.9,63.6-67.8,110.4-67.8
		c58,0,108.9,41.1,121.1,97.8l2.7,12.7l12.9,0.8c35.9,2.2,64,32.1,64,68.1c0,37.6-30.5,68.1-68,68.3c-0.4,0-0.8,0-1.2-0.1l-17.5,0.1
		h-24.5v17.1h41.5v-0.1c0.4,0,0.8,0.1,1.2,0.1c47.2,0,85.4-38.2,85.4-85.4C452.7,201.6,417.3,164.6,372.7,161.9z"/>
            <polygon points="213.6,392.5 213.6,409 213.6,460.8 230.6,460.8 230.6,409 230.6,392.5 230.6,289.9 213.6,289.9 	"/>
            <polygon points="281.9,358.3 281.9,373.3 281.9,426.6 299,426.6 299,373.3 299,358.3 299,255.8 281.9,255.8 	"/>
            <polygon points="145.2,358.3 145.2,375.9 145.2,426.6 162.3,426.6 162.3,375.9 162.3,358.3 162.3,255.8 145.2,255.8 	"/>
        </g>
        <polygon points="360.9,416.6 360.9,394.2 379.5,404.6 385.3,394.2 364.2,382.4 385.3,370.5 379.5,360.1 360.9,370.5 360.9,348.4
	343.8,348.4 343.8,370.9 324.6,360.1 318.7,370.5 339.8,382.4 318.7,394.2 324.6,404.6 343.8,393.9 343.8,416.6 "/>
    </symbol>
    <symbol id="1201" viewBox="0 0 452.7 512">
        <g>
            <polygon points="277.8,379.4 219,295.4 205,305.2 263.8,389.2 273.3,402.8 303,445.2 317,435.4 287.3,393 	"/>
            <polygon points="346.2,379.4 287.3,295.4 273.4,305.2 332.2,389.2 340.8,401.5 371.4,445.1 385.4,435.4 354.8,391.6 	"/>
            <polygon points="209.5,379.4 150.7,295.4 136.7,305.2 195.5,389.2 205.6,403.7 234.7,445.2 248.7,435.4 219.6,393.9 	"/>
            <path d="M372.7,177.5C359,113.9,302.6,66.2,234.9,66.2c-54.9,0-102.3,31.4-125.6,77.2c-2.3-0.1-4.5-0.3-6.8-0.3
		C45.9,143,0,188.9,0,245.5C0,301.9,45.6,347.7,102,348v0h17.6v-17.1h-13.7l-3.8,0c-46.9-0.2-85-38.5-85-85.4
		c0-47.1,38.3-85.4,85.4-85.4c1.5,0,3,0.1,4.4,0.2l1.3,0.1l11.2,0.8l5.1-10c21.3-41.9,63.6-67.8,110.4-67.8
		c58,0,108.9,41.1,121.1,97.8l2.7,12.7l12.9,0.8c35.9,2.2,64,32.1,64,68.1c0,37.6-30.5,68.1-68,68.3c-0.4,0-0.8,0-1.2-0.1l-8.9,0.1
		h1.2V348h7.4V348c0.4,0,0.8,0.1,1.2,0.1c47.2,0,85.4-38.2,85.4-85.4C452.7,217.2,417.3,180.2,372.7,177.5z"/>
        </g>
        <polygon points="112.3,434.9 112.3,412.5 130.9,422.9 136.7,412.5 115.6,400.6 136.7,388.7 130.9,378.3 112.3,388.7 112.3,366.6
	95.2,366.6 95.2,389.1 76,378.3 70.1,388.7 91.2,400.6 70.1,412.5 76,422.9 95.2,412.1 95.2,434.9 "/>
    </symbol>
    <symbol id="1204" viewBox="-2.819 0 452.738 512">
        <g>
            <g>
                <path d="M369.862,196.046c-13.631-63.599-70.105-111.299-137.761-111.299c-54.866,0-102.308,31.416-125.589,77.18
			c-2.27-0.151-4.529-0.342-6.832-0.342c-56.609,0-102.499,45.89-102.499,102.508c0,56.441,45.614,102.205,101.981,102.489v0.025
			h17.61v-17.084h-13.706l-3.821-0.025c-46.857-0.232-84.98-38.548-84.98-85.405c0-47.1,38.314-85.423,85.414-85.423
			c1.493,0,2.961,0.117,4.438,0.217l1.268,0.083l11.245,0.751l5.106-10.044c21.289-41.852,63.583-67.846,110.366-67.846
			c58.002,0,108.912,41.127,121.059,97.794l2.712,12.663l12.931,0.81c35.903,2.235,64.033,32.142,64.033,68.087
			c0,37.562-30.458,68.139-67.973,68.338c-0.424-0.024-0.793-0.041-1.167-0.058l-17.451,0.058h-24.46v17.084h41.544v-0.059
			c0.393,0.008,0.776,0.059,1.169,0.059c47.164,0,85.421-38.239,85.421-85.422C449.92,235.82,414.517,198.824,369.862,196.046z"/>
            </g>
            <g>
                <path d="M155.213,298.921c-7.074,0-12.813,5.739-12.813,12.812c0,7.074,5.739,12.812,12.813,12.812
			c7.074,0,12.813-5.738,12.813-12.812C168.026,304.66,162.288,298.921,155.213,298.921z"/>
            </g>
            <g>
                <path d="M189.382,349.523c-7.074,0-12.813,5.738-12.813,12.812c0,7.073,5.74,12.812,12.813,12.812
			c7.074,0,12.813-5.739,12.813-12.812C202.195,355.264,196.457,349.523,189.382,349.523z"/>
            </g>
            <g>
                <path d="M257.721,349.523c-7.074,0-12.812,5.738-12.812,12.812c0,7.073,5.738,12.812,12.812,12.812
			c7.073,0,12.812-5.739,12.812-12.812C270.533,355.264,264.794,349.523,257.721,349.523z"/>
            </g>
            <g>
                <path d="M223.551,298.921c-7.074,0-12.813,5.739-12.813,12.812c0,7.074,5.74,12.812,12.813,12.812
			c7.075,0,12.814-5.738,12.814-12.812C236.365,304.66,230.626,298.921,223.551,298.921z"/>
            </g>
            <g>
                <path d="M291.889,298.921c-7.074,0-12.812,5.739-12.812,12.812c0,7.074,5.737,12.812,12.812,12.812
			c7.075,0,12.814-5.738,12.814-12.812C304.703,304.66,298.964,298.921,291.889,298.921z"/>
            </g>
            <g>
                <path d="M155.213,400.961c-7.074,0-12.813,5.739-12.813,12.813c0,7.071,5.739,12.812,12.813,12.812
			c7.074,0,12.813-5.739,12.813-12.812C168.026,406.7,162.288,400.961,155.213,400.961z"/>
            </g>
            <g>
                <path d="M223.551,400.961c-7.074,0-12.813,5.739-12.813,12.813c0,7.071,5.74,12.812,12.813,12.812
			c7.075,0,12.814-5.739,12.814-12.812C236.365,406.7,230.626,400.961,223.551,400.961z"/>
            </g>
            <g>
                <path d="M291.889,400.961c-7.074,0-12.812,5.739-12.812,12.813c0,7.071,5.737,12.812,12.812,12.812
			c7.075,0,12.814-5.739,12.814-12.812C304.703,406.7,298.964,400.961,291.889,400.961z"/>
            </g>
        </g>
    </symbol>
    <symbol id="1207" viewBox="-2.819 0 452.738 512">
        <g>
            <g>
                <path d="M369.862,196.046c-13.631-63.599-70.105-111.299-137.761-111.299c-54.866,0-102.308,31.416-125.589,77.18
			c-2.27-0.151-4.529-0.342-6.832-0.342c-56.609,0-102.499,45.89-102.499,102.508c0,56.441,45.614,102.205,101.981,102.489v0.025
			h17.61v-17.084h-13.706l-3.821-0.025c-46.857-0.232-84.98-38.548-84.98-85.405c0-47.1,38.314-85.423,85.414-85.423
			c1.493,0,2.961,0.117,4.438,0.217l1.268,0.083l11.245,0.751l5.106-10.044c21.289-41.852,63.583-67.846,110.366-67.846
			c58.002,0,108.912,41.127,121.059,97.794l2.712,12.663l12.931,0.81c35.903,2.235,64.033,32.142,64.033,68.087
			c0,37.562-30.458,68.139-67.973,68.338c-0.424-0.024-0.793-0.041-1.167-0.058l-17.451,0.058h-24.46v17.084h41.544v-0.059
			c0.393,0.008,0.776,0.059,1.169,0.059c47.164,0,85.421-38.239,85.421-85.422C449.92,235.82,414.517,198.824,369.862,196.046z"/>
            </g>
            <g>
                <path d="M155.213,298.921c-7.074,0-12.813,5.739-12.813,12.812c0,7.074,5.739,12.812,12.813,12.812
			c7.074,0,12.813-5.738,12.813-12.812C168.026,304.66,162.288,298.921,155.213,298.921z"/>
            </g>
            <g>
                <path d="M189.382,349.523c-7.074,0-12.813,5.738-12.813,12.812c0,7.073,5.74,12.812,12.813,12.812
			c7.074,0,12.813-5.739,12.813-12.812C202.195,355.264,196.457,349.523,189.382,349.523z"/>
            </g>
            <g>
                <path d="M257.721,349.523c-7.074,0-12.812,5.738-12.812,12.812c0,7.073,5.738,12.812,12.812,12.812
			c7.073,0,12.812-5.739,12.812-12.812C270.533,355.264,264.794,349.523,257.721,349.523z"/>
            </g>
            <g>
                <path d="M223.551,298.921c-7.074,0-12.813,5.739-12.813,12.812c0,7.074,5.74,12.812,12.813,12.812
			c7.075,0,12.814-5.738,12.814-12.812C236.365,304.66,230.626,298.921,223.551,298.921z"/>
            </g>
            <g>
                <path d="M291.889,298.921c-7.074,0-12.812,5.739-12.812,12.812c0,7.074,5.737,12.812,12.812,12.812
			c7.075,0,12.814-5.738,12.814-12.812C304.703,304.66,298.964,298.921,291.889,298.921z"/>
            </g>
            <g>
                <path d="M155.213,400.961c-7.074,0-12.813,5.739-12.813,12.813c0,7.071,5.739,12.812,12.813,12.812
			c7.074,0,12.813-5.739,12.813-12.812C168.026,406.7,162.288,400.961,155.213,400.961z"/>
            </g>
            <g>
                <path d="M223.551,400.961c-7.074,0-12.813,5.739-12.813,12.813c0,7.071,5.74,12.812,12.813,12.812
			c7.075,0,12.814-5.739,12.814-12.812C236.365,406.7,230.626,400.961,223.551,400.961z"/>
            </g>
            <g>
                <path d="M291.889,400.961c-7.074,0-12.812,5.739-12.812,12.813c0,7.071,5.737,12.812,12.812,12.812
			c7.075,0,12.814-5.739,12.814-12.812C304.703,406.7,298.964,400.961,291.889,400.961z"/>
            </g>
        </g>
    </symbol>
    <symbol id="1210" viewBox="-24.174 0 495.452 512">
        <g>
            <rect x="138.129" y="25.56" width="17.084" height="68.104"/>
            <rect x="-24.174" y="187.129" width="68.104" height="17.084"/>

            <rect x="15.746" y="90.886" transform="matrix(-0.7071 -0.7071 0.7071 -0.7071 14.7152 204.9502)" width="68.117" height="17.083"/>

            <rect x="233.64" y="65.415" transform="matrix(-0.7071 -0.7071 0.7071 -0.7071 343.0936 341.0419)" width="17.081" height="68.094"/>
            <path d="M398.768,245.864c-12.339-57.593-63.49-100.796-124.765-100.796c-18.661,0-36.369,4.021-52.337,11.229
		c-14.231-27.362-42.761-46.082-75.729-46.082c-47.174,0-85.422,38.24-85.422,85.415c0,21.013,7.683,40.166,20.271,55.032
		c-12.196,15.718-19.537,35.396-19.537,56.834c0,51.111,41.31,92.562,92.363,92.813v0.023h10.144V383.25H157.6l-3.904-0.025
		c-41.552-0.199-75.362-34.176-75.362-75.729c0-41.768,33.977-75.753,75.746-75.753c1.284,0,2.552,0.1,3.82,0.191l1.269,0.084
		l11.228,0.726l5.097-10.036c19.003-37.347,56.751-60.554,98.51-60.554c51.781,0,97.229,36.714,108.056,87.291l2.721,12.673
		l12.929,0.8c31.676,1.971,56.484,28.354,56.484,60.055c0,33.127-26.854,60.096-59.938,60.279c-0.36-0.025-0.676-0.041-1.001-0.041
		l-15.941,0.041v17.083h15.541v-0.048c0.358,0.007,0.7,0.048,1.06,0.048c42.721,0,77.364-34.627,77.364-77.362
		C471.276,281.886,439.209,248.384,398.768,245.864z M160.269,214.965c-2.061-0.133-4.104-0.308-6.189-0.308
		c-23.625,0-45.122,8.892-61.506,23.424c-9.327-11.662-14.975-26.386-14.975-42.452c0-37.673,30.657-68.33,68.338-68.33
		c26.411,0,49.201,15.149,60.571,37.122C186.88,176.717,170.83,194.211,160.269,214.965z"/>
            <polygon points="223.485,391.959 223.485,369.494 242.045,379.939 247.902,369.511 226.805,357.641 247.902,345.77
		242.045,335.342 223.485,345.786 223.485,323.621 206.4,323.621 206.4,346.16 187.172,335.342 181.316,345.77 202.413,357.641
		181.316,369.511 187.172,379.939 206.4,369.118 206.4,391.959 	"/>
            <polygon points="267.58,429.155 249.02,439.6 249.02,417.436 231.934,417.436 231.934,439.977 212.707,429.155 206.85,439.582
		227.947,451.455 206.85,463.326 212.707,473.753 231.934,462.934 231.934,485.772 249.02,485.772 249.02,463.308 267.58,473.753
		273.438,463.326 252.339,451.455 273.438,439.582 	"/>
            <polygon points="344.594,369.511 326.032,379.955 326.032,357.789 308.949,357.789 308.949,380.33 289.721,369.511
		283.864,379.939 304.961,391.809 283.864,403.68 289.721,414.106 308.949,403.288 308.949,426.127 326.032,426.127
		326.032,403.662 344.594,414.106 350.45,403.68 329.353,391.809 350.45,379.939 	"/>
        </g>
    </symbol>
    <symbol id="1213" viewBox="-2.819 0 452.738 512">
        <g>
            <path d="M369.862,183.308c-13.631-63.6-70.105-111.299-137.761-111.299c-54.866,0-102.308,31.416-125.589,77.18
		c-2.27-0.15-4.529-0.342-6.832-0.342c-56.609,0-102.499,45.89-102.499,102.507c0,56.442,45.614,102.207,101.981,102.49v0.025h17.61
		v-17.085h-13.706l-3.821-0.025c-46.857-0.233-84.98-38.548-84.98-85.405c0-47.099,38.314-85.422,85.414-85.422
		c1.493,0,2.961,0.117,4.438,0.217l1.268,0.084l11.245,0.75l5.106-10.043c21.289-41.852,63.583-67.846,110.366-67.846
		c58.002,0,108.912,41.126,121.059,97.793l2.712,12.663l12.931,0.81c35.903,2.236,64.033,32.142,64.033,68.088
		c0,37.563-30.458,68.137-67.973,68.337c-0.424-0.025-0.793-0.041-1.167-0.059l-17.451,0.059h-7.375v17.085h24.459v-0.06
		c0.393,0.01,0.776,0.06,1.169,0.06c47.164,0,85.421-38.24,85.421-85.422C449.92,223.083,414.517,186.085,369.862,183.308z"/>
            <polygon points="185.111,345.51 185.111,323.045 203.673,333.489 209.528,323.062 188.431,311.191 209.528,299.32 203.673,288.893
		185.111,299.338 185.111,277.172 168.026,277.172 168.026,299.713 148.798,288.893 142.942,299.32 164.04,311.191 142.942,323.062
		148.798,333.489 168.026,322.671 168.026,345.51 	"/>
            <polygon points="229.207,382.708 210.646,393.15 210.646,370.988 193.562,370.988 193.562,393.527 174.333,382.708
		168.477,393.136 189.574,405.006 168.477,416.876 174.333,427.304 193.562,416.485 193.562,439.326 210.646,439.326
		210.646,416.86 229.207,427.304 235.062,416.876 213.967,405.006 235.062,393.136 	"/>
            <polygon points="306.222,323.062 287.66,333.507 287.66,311.342 270.575,311.342 270.575,333.881 251.348,323.062 245.49,333.489
		266.587,345.359 245.49,357.23 251.348,367.659 270.575,356.839 270.575,379.68 287.66,379.68 287.66,357.215 306.222,367.659
		312.076,357.23 290.98,345.359 312.076,333.489 	"/>
        </g>
    </symbol>
    <symbol id="1216" viewBox="-24.174 0 495.452 512">
        <g>
            <rect x="138.129" y="25.56" width="17.084" height="68.104"/>
            <rect x="-24.174" y="187.129" width="68.104" height="17.084"/>

            <rect x="15.746" y="90.886" transform="matrix(-0.7071 -0.7071 0.7071 -0.7071 14.7152 204.9502)" width="68.117" height="17.083"/>

            <rect x="233.64" y="65.415" transform="matrix(-0.7071 -0.7071 0.7071 -0.7071 343.0936 341.0419)" width="17.081" height="68.094"/>
            <path d="M398.768,245.864c-12.339-57.593-63.49-100.796-124.765-100.796c-18.661,0-36.369,4.021-52.337,11.229
		c-14.231-27.362-42.761-46.082-75.729-46.082c-47.174,0-85.422,38.24-85.422,85.415c0,21.013,7.683,40.166,20.271,55.032
		c-12.196,15.718-19.537,35.396-19.537,56.834c0,51.111,41.31,92.562,92.363,92.813v0.023h10.144V383.25H157.6l-3.904-0.025
		c-41.552-0.199-75.362-34.176-75.362-75.729c0-41.768,33.977-75.753,75.746-75.753c1.284,0,2.552,0.1,3.82,0.191l1.269,0.084
		l11.228,0.726l5.097-10.036c19.003-37.347,56.751-60.554,98.51-60.554c51.781,0,97.229,36.714,108.056,87.291l2.721,12.673
		l12.929,0.8c31.676,1.971,56.484,28.354,56.484,60.055c0,33.127-26.854,60.096-59.938,60.279c-0.36-0.025-0.676-0.041-1.001-0.041
		l-15.941,0.041v17.083h15.541v-0.048c0.358,0.007,0.7,0.048,1.06,0.048c42.721,0,77.364-34.627,77.364-77.362
		C471.276,281.886,439.209,248.384,398.768,245.864z M160.269,214.965c-2.061-0.133-4.104-0.308-6.189-0.308
		c-23.625,0-45.122,8.892-61.506,23.424c-9.327-11.662-14.975-26.386-14.975-42.452c0-37.673,30.657-68.33,68.338-68.33
		c26.411,0,49.201,15.149,60.571,37.122C186.88,176.717,170.83,194.211,160.269,214.965z"/>
            <polygon points="223.485,391.959 223.485,369.494 242.045,379.939 247.902,369.511 226.805,357.641 247.902,345.77
		242.045,335.342 223.485,345.786 223.485,323.621 206.4,323.621 206.4,346.16 187.172,335.342 181.316,345.77 202.413,357.641
		181.316,369.511 187.172,379.939 206.4,369.118 206.4,391.959 	"/>
            <polygon points="267.58,429.155 249.02,439.6 249.02,417.436 231.934,417.436 231.934,439.977 212.707,429.155 206.85,439.582
		227.947,451.455 206.85,463.326 212.707,473.753 231.934,462.934 231.934,485.772 249.02,485.772 249.02,463.308 267.58,473.753
		273.438,463.326 252.339,451.455 273.438,439.582 	"/>
            <polygon points="344.594,369.511 326.032,379.955 326.032,357.789 308.949,357.789 308.949,380.33 289.721,369.511
		283.864,379.939 304.961,391.809 283.864,403.68 289.721,414.106 308.949,403.288 308.949,426.127 326.032,426.127
		326.032,403.662 344.594,414.106 350.45,403.68 329.353,391.809 350.45,379.939 	"/>
        </g>
    </symbol>
    <symbol id="1219" viewBox="-2.819 0 452.738 512">
        <g>
            <g>
                <path d="M369.862,196.046c-13.631-63.599-70.105-111.299-137.761-111.299c-54.866,0-102.308,31.416-125.589,77.18
			c-2.27-0.151-4.529-0.342-6.832-0.342c-56.609,0-102.499,45.89-102.499,102.508c0,56.441,45.614,102.205,101.981,102.489v0.025
			h17.61v-17.084h-13.706l-3.821-0.025c-46.857-0.232-84.98-38.548-84.98-85.405c0-47.1,38.314-85.423,85.414-85.423
			c1.493,0,2.961,0.117,4.438,0.217l1.268,0.083l11.245,0.751l5.106-10.044c21.289-41.852,63.583-67.846,110.366-67.846
			c58.002,0,108.912,41.127,121.059,97.794l2.712,12.663l12.931,0.81c35.903,2.235,64.033,32.142,64.033,68.087
			c0,37.562-30.458,68.139-67.973,68.338c-0.424-0.024-0.793-0.041-1.167-0.058l-17.451,0.058h-24.46v17.084h41.544v-0.059
			c0.393,0.008,0.776,0.059,1.169,0.059c47.164,0,85.421-38.239,85.421-85.422C449.92,235.82,414.517,198.824,369.862,196.046z"/>
            </g>
            <g>
                <path d="M155.213,298.921c-7.074,0-12.813,5.739-12.813,12.812c0,7.074,5.739,12.812,12.813,12.812
			c7.074,0,12.813-5.738,12.813-12.812C168.026,304.66,162.288,298.921,155.213,298.921z"/>
            </g>
            <g>
                <path d="M189.382,349.523c-7.074,0-12.813,5.738-12.813,12.812c0,7.073,5.74,12.812,12.813,12.812
			c7.074,0,12.813-5.739,12.813-12.812C202.195,355.264,196.457,349.523,189.382,349.523z"/>
            </g>
            <g>
                <path d="M257.721,349.523c-7.074,0-12.812,5.738-12.812,12.812c0,7.073,5.738,12.812,12.812,12.812
			c7.073,0,12.812-5.739,12.812-12.812C270.533,355.264,264.794,349.523,257.721,349.523z"/>
            </g>
            <g>
                <path d="M223.551,298.921c-7.074,0-12.813,5.739-12.813,12.812c0,7.074,5.74,12.812,12.813,12.812
			c7.075,0,12.814-5.738,12.814-12.812C236.365,304.66,230.626,298.921,223.551,298.921z"/>
            </g>
            <g>
                <path d="M291.889,298.921c-7.074,0-12.812,5.739-12.812,12.812c0,7.074,5.737,12.812,12.812,12.812
			c7.075,0,12.814-5.738,12.814-12.812C304.703,304.66,298.964,298.921,291.889,298.921z"/>
            </g>
            <g>
                <path d="M155.213,400.961c-7.074,0-12.813,5.739-12.813,12.813c0,7.071,5.739,12.812,12.813,12.812
			c7.074,0,12.813-5.739,12.813-12.812C168.026,406.7,162.288,400.961,155.213,400.961z"/>
            </g>
            <g>
                <path d="M223.551,400.961c-7.074,0-12.813,5.739-12.813,12.813c0,7.071,5.74,12.812,12.813,12.812
			c7.075,0,12.814-5.739,12.814-12.812C236.365,406.7,230.626,400.961,223.551,400.961z"/>
            </g>
            <g>
                <path d="M291.889,400.961c-7.074,0-12.812,5.739-12.812,12.813c0,7.071,5.737,12.812,12.812,12.812
			c7.075,0,12.814-5.739,12.814-12.812C304.703,406.7,298.964,400.961,291.889,400.961z"/>
            </g>
        </g>
    </symbol>
    <symbol id="1222" viewBox="-24.174 0 495.452 512">
        <g>
            <rect x="138.129" y="25.56" width="17.084" height="68.104"/>
            <rect x="-24.174" y="187.129" width="68.104" height="17.084"/>

            <rect x="15.746" y="90.886" transform="matrix(-0.7071 -0.7071 0.7071 -0.7071 14.7152 204.9502)" width="68.117" height="17.083"/>

            <rect x="233.64" y="65.415" transform="matrix(-0.7071 -0.7071 0.7071 -0.7071 343.0936 341.0419)" width="17.081" height="68.094"/>
            <path d="M398.768,245.864c-12.339-57.593-63.49-100.796-124.765-100.796c-18.661,0-36.369,4.021-52.337,11.229
		c-14.231-27.362-42.761-46.082-75.729-46.082c-47.174,0-85.422,38.24-85.422,85.415c0,21.013,7.683,40.166,20.271,55.032
		c-12.196,15.718-19.537,35.396-19.537,56.834c0,51.111,41.31,92.562,92.363,92.813v0.023h10.144V383.25H157.6l-3.904-0.025
		c-41.552-0.199-75.362-34.176-75.362-75.729c0-41.768,33.977-75.753,75.746-75.753c1.284,0,2.552,0.1,3.82,0.191l1.269,0.084
		l11.228,0.726l5.097-10.036c19.003-37.347,56.751-60.554,98.51-60.554c51.781,0,97.229,36.714,108.056,87.291l2.721,12.673
		l12.929,0.8c31.676,1.971,56.484,28.354,56.484,60.055c0,33.127-26.854,60.096-59.938,60.279c-0.36-0.025-0.676-0.041-1.001-0.041
		l-15.941,0.041v17.083h15.541v-0.048c0.358,0.007,0.7,0.048,1.06,0.048c42.721,0,77.364-34.627,77.364-77.362
		C471.276,281.886,439.209,248.384,398.768,245.864z M160.269,214.965c-2.061-0.133-4.104-0.308-6.189-0.308
		c-23.625,0-45.122,8.892-61.506,23.424c-9.327-11.662-14.975-26.386-14.975-42.452c0-37.673,30.657-68.33,68.338-68.33
		c26.411,0,49.201,15.149,60.571,37.122C186.88,176.717,170.83,194.211,160.269,214.965z"/>
            <polygon points="223.485,391.959 223.485,369.494 242.045,379.939 247.902,369.511 226.805,357.641 247.902,345.77
		242.045,335.342 223.485,345.786 223.485,323.621 206.4,323.621 206.4,346.16 187.172,335.342 181.316,345.77 202.413,357.641
		181.316,369.511 187.172,379.939 206.4,369.118 206.4,391.959 	"/>
            <polygon points="267.58,429.155 249.02,439.6 249.02,417.436 231.934,417.436 231.934,439.977 212.707,429.155 206.85,439.582
		227.947,451.455 206.85,463.326 212.707,473.753 231.934,462.934 231.934,485.772 249.02,485.772 249.02,463.308 267.58,473.753
		273.438,463.326 252.339,451.455 273.438,439.582 	"/>
            <polygon points="344.594,369.511 326.032,379.955 326.032,357.789 308.949,357.789 308.949,380.33 289.721,369.511
		283.864,379.939 304.961,391.809 283.864,403.68 289.721,414.106 308.949,403.288 308.949,426.127 326.032,426.127
		326.032,403.662 344.594,414.106 350.45,403.68 329.353,391.809 350.45,379.939 	"/>
        </g>
    </symbol>
    <symbol id="1225" viewBox="-2.819 0 452.738 512">
        <g>
            <path d="M369.862,183.308c-13.631-63.6-70.105-111.299-137.761-111.299c-54.866,0-102.308,31.416-125.589,77.18
		c-2.27-0.15-4.529-0.342-6.832-0.342c-56.609,0-102.499,45.89-102.499,102.507c0,56.442,45.614,102.207,101.981,102.49v0.025h17.61
		v-17.085h-13.706l-3.821-0.025c-46.857-0.233-84.98-38.548-84.98-85.405c0-47.099,38.314-85.422,85.414-85.422
		c1.493,0,2.961,0.117,4.438,0.217l1.268,0.084l11.245,0.75l5.106-10.043c21.289-41.852,63.583-67.846,110.366-67.846
		c58.002,0,108.912,41.126,121.059,97.793l2.712,12.663l12.931,0.81c35.903,2.236,64.033,32.142,64.033,68.088
		c0,37.563-30.458,68.137-67.973,68.337c-0.424-0.025-0.793-0.041-1.167-0.059l-17.451,0.059h-7.375v17.085h24.459v-0.06
		c0.393,0.01,0.776,0.06,1.169,0.06c47.164,0,85.421-38.24,85.421-85.422C449.92,223.083,414.517,186.085,369.862,183.308z"/>
            <polygon points="185.111,345.51 185.111,323.045 203.673,333.489 209.528,323.062 188.431,311.191 209.528,299.32 203.673,288.893
		185.111,299.338 185.111,277.172 168.026,277.172 168.026,299.713 148.798,288.893 142.942,299.32 164.04,311.191 142.942,323.062
		148.798,333.489 168.026,322.671 168.026,345.51 	"/>
            <polygon points="229.207,382.708 210.646,393.15 210.646,370.988 193.562,370.988 193.562,393.527 174.333,382.708
		168.477,393.136 189.574,405.006 168.477,416.876 174.333,427.304 193.562,416.485 193.562,439.326 210.646,439.326
		210.646,416.86 229.207,427.304 235.062,416.876 213.967,405.006 235.062,393.136 	"/>
            <polygon points="306.222,323.062 287.66,333.507 287.66,311.342 270.575,311.342 270.575,333.881 251.348,323.062 245.49,333.489
		266.587,345.359 245.49,357.23 251.348,367.659 270.575,356.839 270.575,379.68 287.66,379.68 287.66,357.215 306.222,367.659
		312.076,357.23 290.98,345.359 312.076,333.489 	"/>
        </g>
    </symbol>
    <symbol id="1237" viewBox="-2.819 0 452.738 512">
        <g>
            <path d="M369.862,161.952c-13.631-63.6-70.105-111.299-137.761-111.299c-54.866,0-102.308,31.416-125.589,77.18
		c-2.27-0.15-4.529-0.342-6.832-0.342c-56.609,0-102.499,45.89-102.499,102.507c0,56.441,45.614,102.207,101.981,102.49v0.025h17.61
		V315.43h-13.706l-3.821-0.025c-46.857-0.233-84.98-38.547-84.98-85.406c0-47.1,38.314-85.422,85.414-85.422
		c1.493,0,2.961,0.117,4.438,0.216l1.268,0.083l11.245,0.751l5.106-10.044c21.289-41.852,63.583-67.845,110.366-67.845
		c58.002,0,108.912,41.126,121.059,97.793l2.712,12.664l12.931,0.809c35.903,2.236,64.033,32.143,64.033,68.088
		c0,37.563-30.458,68.138-67.973,68.341c-0.424-0.025-0.793-0.043-1.167-0.06l-17.451,0.06h-24.46v17.082h41.544v-0.058
		c0.393,0.008,0.776,0.058,1.169,0.058c47.164,0,85.421-38.24,85.421-85.423C449.92,201.727,414.517,164.73,369.862,161.952z"/>
            <path d="M150.942,383.801c-7.074,0-12.813,5.739-12.813,12.812c0,7.074,5.739,12.812,12.813,12.812
		c7.074,0,12.813-5.739,12.813-12.812S158.016,383.801,150.942,383.801z"/>
            <path d="M219.28,435.055c-7.074,0-12.813,5.739-12.813,12.812c0,7.074,5.739,12.812,12.813,12.812
		c7.076,0,12.813-5.738,12.813-12.812C232.094,440.794,226.355,435.055,219.28,435.055z"/>
            <path d="M287.618,400.885c-7.075,0-12.813,5.739-12.813,12.813c0,7.075,5.738,12.813,12.813,12.813
		c7.073,0,12.813-5.738,12.813-12.813C300.434,406.624,294.691,400.885,287.618,400.885z"/>
            <rect x="142.4" y="255.875" width="17.084" height="102.297"/>
            <polygon points="227.822,409.127 227.822,392.551 227.822,290.044 210.738,290.044 210.738,392.551 210.738,409.127
		210.738,409.427 227.822,409.427 	"/>
            <polygon points="296.16,373.355 296.16,358.384 296.16,255.875 279.076,255.875 279.076,358.384 279.076,373.355 279.076,375.26
		296.16,375.26 	"/>
        </g>
    </symbol>
    <symbol id="1240" viewBox="-24.174 0 495.452 512">
        <g>
            <rect x="138.129" y="23.416" width="17.084" height="68.104"/>
            <rect x="-24.174" y="184.985" width="68.104" height="17.083"/>

            <rect x="15.745" y="88.742" transform="matrix(-0.7071 -0.7071 0.7071 -0.7071 16.2303 201.2902)" width="68.117" height="17.084"/>

            <rect x="233.646" y="63.268" transform="matrix(-0.7071 -0.7071 0.7071 -0.7071 344.6214 337.3818)" width="17.081" height="68.094"/>
            <path d="M398.768,243.721c-12.339-57.593-63.49-100.796-124.765-100.796c-18.661,0-36.369,4.012-52.329,11.22
		c-14.24-27.353-42.77-46.073-75.737-46.073c-47.174,0-85.422,38.24-85.422,85.414c0,21.014,7.683,40.167,20.271,55.033
		c-12.205,15.717-19.537,35.396-19.537,56.834c0,51.11,41.31,92.562,92.363,92.813v0.025h10.144v-17.087H157.6l-3.904-0.022
		c-41.552-0.2-75.362-34.179-75.362-75.729c0-41.769,33.977-75.754,75.746-75.754c1.284,0,2.552,0.1,3.82,0.192l1.269,0.083
		l11.228,0.725l5.097-10.035c19.003-37.347,56.751-60.555,98.51-60.555c51.781,0,97.229,36.713,108.056,87.292l2.721,12.672
		l12.929,0.801c31.676,1.969,56.484,28.354,56.484,60.055c0,33.127-26.854,60.097-59.938,60.279
		c-0.359-0.023-0.676-0.041-1.001-0.041l-17.485,0.041h-6.999v17.086h24.085v-0.052c0.357,0.009,0.699,0.052,1.059,0.052
		c42.721,0,77.364-34.629,77.364-77.365C471.276,279.743,439.209,246.24,398.768,243.721z M160.269,212.822
		c-2.061-0.133-4.104-0.308-6.189-0.308c-23.625,0-45.122,8.901-61.506,23.432c-9.327-11.679-14.975-26.395-14.975-42.461
		c0-37.672,30.657-68.329,68.338-68.329c26.402,0,49.201,15.149,60.571,37.113C186.88,174.565,170.821,192.067,160.269,212.822z"/>
            <rect x="257.721" y="398.323" width="17.084" height="34.171"/>
            <rect x="326.058" y="363.971" width="17.085" height="34.354"/>
            <rect x="189.382" y="363.971" width="17.085" height="34.354"/>
            <path d="M334.6,428.397c-7.065,0-12.812,5.729-12.812,12.812c0,7.081,5.747,12.813,12.812,12.813
		c7.066,0,12.814-5.732,12.814-12.813C347.414,434.127,341.666,428.397,334.6,428.397z"/>
            <path d="M266.262,462.299c-7.063,0-12.812,5.732-12.812,12.813c0,7.083,5.748,12.812,12.812,12.812
		c7.066,0,12.814-5.729,12.814-12.812C279.076,468.031,273.328,462.299,266.262,462.299z"/>
            <path d="M197.924,428.038c-7.066,0-12.813,5.73-12.813,12.813c0,7.081,5.747,12.812,12.813,12.812
		c7.065,0,12.813-5.731,12.813-12.812C210.738,433.77,204.99,428.038,197.924,428.038z"/>
        </g>
    </symbol>
    <symbol id="1243" viewBox="0 0 495.5 512">
        <g>
        <rect x="162.3" y="4.1" width="17.1" height="68.1"/>
        <rect y="165.7" width="68.1" height="17.1"/>
        <rect x="65.4" y="43.9" transform="matrix(0.7071 -0.7071 0.7071 0.7071 -33.4558 75.143)" width="17.1" height="68.1"/>
        <rect x="232.3" y="69.4" transform="matrix(0.7071 -0.7071 0.7071 0.7071 22.8682 211.1885)" width="68.1" height="17.1"/>
        <path d="M422.9,224.4c-12.3-57.6-63.5-100.8-124.8-100.8c-18.7,0-36.4,4-52.3,11.2c-14.2-27.4-42.8-46.1-75.7-46.1
		c-47.2,0-85.4,38.2-85.4,85.4c0,21,7.7,40.2,20.3,55c-12.2,15.7-19.5,35.4-19.5,56.8c0,51.1,41.3,92.6,92.4,92.8v0h3.1v-17.1l-3,0
		c-41.5-0.2-75.4-34.2-75.4-75.7c0-41.8,34-75.8,75.7-75.8c1.3,0,2.6,0.1,3.8,0.2l1.3,0.1l11.2,0.7l5.1-10
		c19-37.3,56.8-60.5,98.5-60.5c51.8,0,97.2,36.7,108,87.3l2.7,12.7l12.9,0.8c31.7,2,56.5,28.4,56.5,60.1c0,33.1-26.9,60.1-59.9,60.3
		c-0.4,0-0.7,0-1,0l-17.5,0h-7v17.1H417v0c0.4,0,0.7,0,1.1,0c42.7,0,77.4-34.6,77.4-77.4C495.5,260.4,463.4,226.9,422.9,224.4z
		 M184.4,193.5c-2.1-0.1-4.1-0.3-6.2-0.3c-23.6,0-45.1,8.9-61.5,23.4c-9.3-11.7-15-26.4-15-42.5c0-37.7,30.7-68.3,68.3-68.3
		c26.4,0,49.2,15.1,60.6,37.1C211,155.2,195,172.7,184.4,193.5z"/>
        <polygon points="320.7,408.6 261.9,324.6 247.9,334.4 306.7,418.4 316.2,432 345.9,474.4 359.9,464.6 330.2,422.2 	"/>
        <polygon points="389.1,408.6 330.3,324.6 316.3,334.4 375.1,418.4 383.7,430.6 414.3,474.3 428.3,464.6 397.7,420.8 	"/>
        <polygon points="252.4,408.6 193.6,324.6 179.6,334.4 238.4,418.4 248.5,432.9 277.6,474.4 291.6,464.6 262.5,423 	"/>
        </g>
    </symbol>
    <symbol id="1246" viewBox="0 0 495.5 512">
        <g>
            <rect x="162.3" y="4.1" width="17.1" height="68.1"/>
            <rect y="165.7" width="68.1" height="17.1"/>
            <rect x="65.4" y="43.9" transform="matrix(0.7071 -0.7071 0.7071 0.7071 -33.4739 75.1297)" width="17.1" height="68.1"/>
            <rect x="232.3" y="69.4" transform="matrix(0.7071 -0.7071 0.7071 0.7071 22.8704 211.1557)" width="68.1" height="17.1"/>
            <path d="M422.9,224.4c-12.3-57.6-63.5-100.8-124.8-100.8c-18.7,0-36.4,4-52.3,11.2c-14.2-27.4-42.8-46.1-75.7-46.1
		c-47.2,0-85.4,38.2-85.4,85.4c0,21,7.7,40.2,20.3,55c-12.2,15.7-19.5,35.4-19.5,56.8c0,44.1,30.8,81,72,90.5v-17.7
		c-31.6-9.1-54.9-38.4-54.9-72.8c0-41.8,34-75.8,75.7-75.8c1.3,0,2.6,0.1,3.8,0.2l1.3,0.1l11.2,0.7l5.1-10
		c19-37.3,56.8-60.5,98.5-60.5c51.8,0,97.2,36.7,108,87.3l2.7,12.7l12.9,0.8c31.7,2,56.5,28.4,56.5,60.1c0,29.5-21.4,54.2-49.5,59.3
		v17.3c37.6-5.2,66.7-37.5,66.7-76.7C495.5,260.4,463.4,226.9,422.9,224.4z M184.4,193.5c-2.1-0.1-4.1-0.3-6.2-0.3
		c-23.6,0-45.1,8.9-61.5,23.4c-9.3-11.7-15-26.4-15-42.5c0-37.7,30.7-68.3,68.3-68.3c26.4,0,49.2,15.1,60.6,37.1
		C211,155.2,195,172.7,184.4,193.5z"/>
            <polygon points="296.4,408 237.7,324.1 223.7,333.9 282.5,417.8 292,431.4 321.6,473.8 335.6,464 306,421.6 	"/>
            <polygon points="433.1,408 374.4,324.1 360.4,333.9 419.2,417.8 428.7,431.4 458.3,473.8 472.3,464 442.7,421.6 	"/>
            <polygon points="364.8,408 306,324.1 292,333.9 350.8,417.8 359.4,430.1 390,473.8 404,464 373.4,420.3 	"/>
            <polygon points="228.1,408 169.3,324.1 155.3,333.9 214.1,417.8 224.2,432.3 253.3,473.8 267.3,464 238.2,422.5 	"/>
        </g>
    </symbol>
    <symbol id="1249" viewBox="0 0 452.7 512">
        <g>
            <path d="M372.7,161.9C359,98.3,302.6,50.6,234.9,50.6c-54.9,0-102.3,31.4-125.6,77.2c-2.3-0.2-4.5-0.3-6.8-0.3
		C45.9,127.4,0,173.3,0,229.9c0,56.4,45.6,102.2,102,102.5v0h17.6v-17.1h-13.7l-3.8,0c-46.9-0.2-85-38.5-85-85.4
		c0-47.1,38.3-85.4,85.4-85.4c1.5,0,3,0.1,4.4,0.2l1.3,0.1l11.2,0.8l5.1-10c21.3-41.9,63.6-67.8,110.4-67.8
		c58,0,108.9,41.1,121.1,97.8l2.7,12.7l12.9,0.8c35.9,2.2,64,32.1,64,68.1c0,37.6-30.5,68.1-68,68.3c-0.4,0-0.8,0-1.2-0.1l-17.5,0.1
		h-24.5v17.1h41.5v-0.1c0.4,0,0.8,0.1,1.2,0.1c47.2,0,85.4-38.2,85.4-85.4C452.7,201.6,417.3,164.6,372.7,161.9z"/>
            <polygon points="213.6,392.5 213.6,409 213.6,460.8 230.6,460.8 230.6,409 230.6,392.5 230.6,289.9 213.6,289.9 	"/>
            <polygon points="281.9,358.3 281.9,373.3 281.9,426.6 299,426.6 299,373.3 299,358.3 299,255.8 281.9,255.8 	"/>
            <polygon points="145.2,358.3 145.2,375.9 145.2,426.6 162.3,426.6 162.3,375.9 162.3,358.3 162.3,255.8 145.2,255.8 	"/>
        </g>
        <polygon points="360.9,416.6 360.9,394.2 379.5,404.6 385.3,394.2 364.2,382.4 385.3,370.5 379.5,360.1 360.9,370.5 360.9,348.4
	343.8,348.4 343.8,370.9 324.6,360.1 318.7,370.5 339.8,382.4 318.7,394.2 324.6,404.6 343.8,393.9 343.8,416.6 "/>
    </symbol>
    <symbol id="1252" viewBox="0 0 452.7 512">
        <g>
            <polygon points="277.8,379.4 219,295.4 205,305.2 263.8,389.2 273.3,402.8 303,445.2 317,435.4 287.3,393 	"/>
            <polygon points="346.2,379.4 287.3,295.4 273.4,305.2 332.2,389.2 340.8,401.5 371.4,445.1 385.4,435.4 354.8,391.6 	"/>
            <polygon points="209.5,379.4 150.7,295.4 136.7,305.2 195.5,389.2 205.6,403.7 234.7,445.2 248.7,435.4 219.6,393.9 	"/>
            <path d="M372.7,177.5C359,113.9,302.6,66.2,234.9,66.2c-54.9,0-102.3,31.4-125.6,77.2c-2.3-0.1-4.5-0.3-6.8-0.3
		C45.9,143,0,188.9,0,245.5C0,301.9,45.6,347.7,102,348v0h17.6v-17.1h-13.7l-3.8,0c-46.9-0.2-85-38.5-85-85.4
		c0-47.1,38.3-85.4,85.4-85.4c1.5,0,3,0.1,4.4,0.2l1.3,0.1l11.2,0.8l5.1-10c21.3-41.9,63.6-67.8,110.4-67.8
		c58,0,108.9,41.1,121.1,97.8l2.7,12.7l12.9,0.8c35.9,2.2,64,32.1,64,68.1c0,37.6-30.5,68.1-68,68.3c-0.4,0-0.8,0-1.2-0.1l-8.9,0.1
		h1.2V348h7.4V348c0.4,0,0.8,0.1,1.2,0.1c47.2,0,85.4-38.2,85.4-85.4C452.7,217.2,417.3,180.2,372.7,177.5z"/>
        </g>
        <polygon points="112.3,434.9 112.3,412.5 130.9,422.9 136.7,412.5 115.6,400.6 136.7,388.7 130.9,378.3 112.3,388.7 112.3,366.6
	95.2,366.6 95.2,389.1 76,378.3 70.1,388.7 91.2,400.6 70.1,412.5 76,422.9 95.2,412.1 95.2,434.9 "/>
    </symbol>
    <symbol id="1255" viewBox="-24.174 0 495.452 512">
        <g>
            <rect x="138.129" y="25.56" width="17.084" height="68.104"/>
            <rect x="-24.174" y="187.129" width="68.104" height="17.084"/>

            <rect x="15.746" y="90.886" transform="matrix(-0.7071 -0.7071 0.7071 -0.7071 14.7152 204.9502)" width="68.117" height="17.083"/>

            <rect x="233.64" y="65.415" transform="matrix(-0.7071 -0.7071 0.7071 -0.7071 343.0936 341.0419)" width="17.081" height="68.094"/>
            <path d="M398.768,245.864c-12.339-57.593-63.49-100.796-124.765-100.796c-18.661,0-36.369,4.021-52.337,11.229
		c-14.231-27.362-42.761-46.082-75.729-46.082c-47.174,0-85.422,38.24-85.422,85.415c0,21.013,7.683,40.166,20.271,55.032
		c-12.196,15.718-19.537,35.396-19.537,56.834c0,51.111,41.31,92.562,92.363,92.813v0.023h10.144V383.25H157.6l-3.904-0.025
		c-41.552-0.199-75.362-34.176-75.362-75.729c0-41.768,33.977-75.753,75.746-75.753c1.284,0,2.552,0.1,3.82,0.191l1.269,0.084
		l11.228,0.726l5.097-10.036c19.003-37.347,56.751-60.554,98.51-60.554c51.781,0,97.229,36.714,108.056,87.291l2.721,12.673
		l12.929,0.8c31.676,1.971,56.484,28.354,56.484,60.055c0,33.127-26.854,60.096-59.938,60.279c-0.36-0.025-0.676-0.041-1.001-0.041
		l-15.941,0.041v17.083h15.541v-0.048c0.358,0.007,0.7,0.048,1.06,0.048c42.721,0,77.364-34.627,77.364-77.362
		C471.276,281.886,439.209,248.384,398.768,245.864z M160.269,214.965c-2.061-0.133-4.104-0.308-6.189-0.308
		c-23.625,0-45.122,8.892-61.506,23.424c-9.327-11.662-14.975-26.386-14.975-42.452c0-37.673,30.657-68.33,68.338-68.33
		c26.411,0,49.201,15.149,60.571,37.122C186.88,176.717,170.83,194.211,160.269,214.965z"/>
            <polygon points="223.485,391.959 223.485,369.494 242.045,379.939 247.902,369.511 226.805,357.641 247.902,345.77
		242.045,335.342 223.485,345.786 223.485,323.621 206.4,323.621 206.4,346.16 187.172,335.342 181.316,345.77 202.413,357.641
		181.316,369.511 187.172,379.939 206.4,369.118 206.4,391.959 	"/>
            <polygon points="267.58,429.155 249.02,439.6 249.02,417.436 231.934,417.436 231.934,439.977 212.707,429.155 206.85,439.582
		227.947,451.455 206.85,463.326 212.707,473.753 231.934,462.934 231.934,485.772 249.02,485.772 249.02,463.308 267.58,473.753
		273.438,463.326 252.339,451.455 273.438,439.582 	"/>
            <polygon points="344.594,369.511 326.032,379.955 326.032,357.789 308.949,357.789 308.949,380.33 289.721,369.511
		283.864,379.939 304.961,391.809 283.864,403.68 289.721,414.106 308.949,403.288 308.949,426.127 326.032,426.127
		326.032,403.662 344.594,414.106 350.45,403.68 329.353,391.809 350.45,379.939 	"/>
        </g>
    </symbol>
    <symbol id="1258" viewBox="-24.174 0 495.452 512">
        <g>
            <rect x="138.129" y="25.56" width="17.084" height="68.104"/>
            <rect x="-24.174" y="187.129" width="68.104" height="17.084"/>

            <rect x="15.746" y="90.886" transform="matrix(-0.7071 -0.7071 0.7071 -0.7071 14.7152 204.9502)" width="68.117" height="17.083"/>

            <rect x="233.64" y="65.415" transform="matrix(-0.7071 -0.7071 0.7071 -0.7071 343.0936 341.0419)" width="17.081" height="68.094"/>
            <path d="M398.768,245.864c-12.339-57.593-63.49-100.796-124.765-100.796c-18.661,0-36.369,4.021-52.337,11.229
		c-14.231-27.362-42.761-46.082-75.729-46.082c-47.174,0-85.422,38.24-85.422,85.415c0,21.013,7.683,40.166,20.271,55.032
		c-12.196,15.718-19.537,35.396-19.537,56.834c0,51.111,41.31,92.562,92.363,92.813v0.023h10.144V383.25H157.6l-3.904-0.025
		c-41.552-0.199-75.362-34.176-75.362-75.729c0-41.768,33.977-75.753,75.746-75.753c1.284,0,2.552,0.1,3.82,0.191l1.269,0.084
		l11.228,0.726l5.097-10.036c19.003-37.347,56.751-60.554,98.51-60.554c51.781,0,97.229,36.714,108.056,87.291l2.721,12.673
		l12.929,0.8c31.676,1.971,56.484,28.354,56.484,60.055c0,33.127-26.854,60.096-59.938,60.279c-0.36-0.025-0.676-0.041-1.001-0.041
		l-15.941,0.041v17.083h15.541v-0.048c0.358,0.007,0.7,0.048,1.06,0.048c42.721,0,77.364-34.627,77.364-77.362
		C471.276,281.886,439.209,248.384,398.768,245.864z M160.269,214.965c-2.061-0.133-4.104-0.308-6.189-0.308
		c-23.625,0-45.122,8.892-61.506,23.424c-9.327-11.662-14.975-26.386-14.975-42.452c0-37.673,30.657-68.33,68.338-68.33
		c26.411,0,49.201,15.149,60.571,37.122C186.88,176.717,170.83,194.211,160.269,214.965z"/>
            <polygon points="223.485,391.959 223.485,369.494 242.045,379.939 247.902,369.511 226.805,357.641 247.902,345.77
		242.045,335.342 223.485,345.786 223.485,323.621 206.4,323.621 206.4,346.16 187.172,335.342 181.316,345.77 202.413,357.641
		181.316,369.511 187.172,379.939 206.4,369.118 206.4,391.959 	"/>
            <polygon points="267.58,429.155 249.02,439.6 249.02,417.436 231.934,417.436 231.934,439.977 212.707,429.155 206.85,439.582
		227.947,451.455 206.85,463.326 212.707,473.753 231.934,462.934 231.934,485.772 249.02,485.772 249.02,463.308 267.58,473.753
		273.438,463.326 252.339,451.455 273.438,439.582 	"/>
            <polygon points="344.594,369.511 326.032,379.955 326.032,357.789 308.949,357.789 308.949,380.33 289.721,369.511
		283.864,379.939 304.961,391.809 283.864,403.68 289.721,414.106 308.949,403.288 308.949,426.127 326.032,426.127
		326.032,403.662 344.594,414.106 350.45,403.68 329.353,391.809 350.45,379.939 	"/>
        </g>
    </symbol>
    <symbol id="1261" viewBox="-24.174 0 495.452 512">
        <g>
            <rect x="138.129" width="17.084" height="68.104"/>
            <rect x="-24.174" y="161.568" width="68.104" height="17.084"/>

            <rect x="15.745" y="65.326" transform="matrix(-0.7071 -0.7071 0.7071 -0.7071 32.7881 161.3161)" width="68.117" height="17.083"/>

            <rect x="233.649" y="39.851" transform="matrix(-0.7071 -0.7071 0.7071 -0.7071 361.1866 297.4086)" width="17.083" height="68.094"/>
            <path d="M398.768,220.304c-12.339-57.593-63.49-100.796-124.765-100.796c-18.661,0-36.369,4.013-52.329,11.22
		c-14.24-27.353-42.77-46.073-75.737-46.073c-47.174,0-85.422,38.24-85.422,85.414c0,21.014,7.683,40.167,20.271,55.033
		c-12.205,15.716-19.537,35.396-19.537,56.833c0,51.111,41.31,92.564,92.363,92.813v0.024h10.144v-17.084H157.6l-3.904-0.024
		c-41.552-0.2-75.362-34.179-75.362-75.729c0-41.769,33.977-75.753,75.746-75.753c1.284,0,2.552,0.1,3.82,0.192l1.269,0.083
		l11.228,0.726l5.097-10.036c19.003-37.347,56.751-60.555,98.51-60.555c51.781,0,97.229,36.713,108.056,87.291l2.721,12.672
		l12.929,0.8c31.676,1.969,56.484,28.355,56.484,60.056c0,33.126-26.854,60.096-59.938,60.278c-0.359-0.024-0.676-0.041-1.001-0.041
		l-17.485,0.041h-6.999v17.084h24.085v-0.049c0.357,0.008,0.699,0.049,1.059,0.049c42.721,0,77.364-34.627,77.364-77.362
		C471.276,256.326,439.209,222.824,398.768,220.304z M160.269,189.405c-2.061-0.133-4.104-0.308-6.189-0.308
		c-23.625,0-45.122,8.893-61.506,23.433c-9.327-11.671-14.975-26.395-14.975-42.461c0-37.672,30.657-68.33,68.338-68.33
		c26.402,0,49.201,15.149,60.571,37.113C186.88,151.158,170.821,168.65,160.269,189.405z"/>
            <path d="M197.841,434.463c-7.074,0-12.813,5.737-12.813,12.812c0,7.072,5.739,12.812,12.813,12.812
		c7.074,0,12.813-5.74,12.813-12.812C210.654,440.2,204.915,434.463,197.841,434.463z"/>
            <path d="M266.18,485.714c-7.074,0-12.813,5.74-12.813,12.815c0,7.073,5.739,12.812,12.813,12.812
		c7.073,0,12.812-5.739,12.812-12.812C278.992,491.454,273.253,485.714,266.18,485.714z"/>
            <path d="M334.518,451.547c-7.074,0-12.813,5.739-12.813,12.812c0,7.072,5.739,12.812,12.813,12.812
		c7.072,0,12.812-5.739,12.812-12.812C347.33,457.286,341.59,451.547,334.518,451.547z"/>
            <rect x="189.299" y="306.537" width="17.084" height="102.297"/>
            <polygon points="274.723,459.789 274.723,443.213 274.723,340.706 257.637,340.706 257.637,443.213 257.637,459.789
		257.637,460.089 274.723,460.089 	"/>
            <polygon points="343.059,424.019 343.059,409.044 343.059,306.537 325.975,306.537 325.975,409.044 325.975,424.019
		325.975,425.919 343.059,425.919 	"/>
        </g>
    </symbol>
    <symbol id="1264" viewBox="-24.174 0 495.452 512">
        <g>
            <rect x="138.129" width="17.084" height="68.104"/>
            <rect x="-24.174" y="161.568" width="68.104" height="17.084"/>

            <rect x="15.745" y="65.326" transform="matrix(-0.7071 -0.7071 0.7071 -0.7071 32.7881 161.3161)" width="68.117" height="17.083"/>

            <rect x="233.649" y="39.851" transform="matrix(-0.7071 -0.7071 0.7071 -0.7071 361.1866 297.4086)" width="17.083" height="68.094"/>
            <path d="M398.768,220.304c-12.339-57.593-63.49-100.796-124.765-100.796c-18.661,0-36.369,4.013-52.329,11.22
		c-14.24-27.353-42.77-46.073-75.737-46.073c-47.174,0-85.422,38.24-85.422,85.414c0,21.014,7.683,40.167,20.271,55.033
		c-12.205,15.716-19.537,35.396-19.537,56.833c0,51.111,41.31,92.564,92.363,92.813v0.024h10.144v-17.084H157.6l-3.904-0.024
		c-41.552-0.2-75.362-34.179-75.362-75.729c0-41.769,33.977-75.753,75.746-75.753c1.284,0,2.552,0.1,3.82,0.192l1.269,0.083
		l11.228,0.726l5.097-10.036c19.003-37.347,56.751-60.555,98.51-60.555c51.781,0,97.229,36.713,108.056,87.291l2.721,12.672
		l12.929,0.8c31.676,1.969,56.484,28.355,56.484,60.056c0,33.126-26.854,60.096-59.938,60.278c-0.359-0.024-0.676-0.041-1.001-0.041
		l-17.485,0.041h-6.999v17.084h24.085v-0.049c0.357,0.008,0.699,0.049,1.059,0.049c42.721,0,77.364-34.627,77.364-77.362
		C471.276,256.326,439.209,222.824,398.768,220.304z M160.269,189.405c-2.061-0.133-4.104-0.308-6.189-0.308
		c-23.625,0-45.122,8.893-61.506,23.433c-9.327-11.671-14.975-26.395-14.975-42.461c0-37.672,30.657-68.33,68.338-68.33
		c26.402,0,49.201,15.149,60.571,37.113C186.88,151.158,170.821,168.65,160.269,189.405z"/>
            <path d="M197.841,434.463c-7.074,0-12.813,5.737-12.813,12.812c0,7.072,5.739,12.812,12.813,12.812
		c7.074,0,12.813-5.74,12.813-12.812C210.654,440.2,204.915,434.463,197.841,434.463z"/>
            <path d="M266.18,485.714c-7.074,0-12.813,5.74-12.813,12.815c0,7.073,5.739,12.812,12.813,12.812
		c7.073,0,12.812-5.739,12.812-12.812C278.992,491.454,273.253,485.714,266.18,485.714z"/>
            <path d="M334.518,451.547c-7.074,0-12.813,5.739-12.813,12.812c0,7.072,5.739,12.812,12.813,12.812
		c7.072,0,12.812-5.739,12.812-12.812C347.33,457.286,341.59,451.547,334.518,451.547z"/>
            <rect x="189.299" y="306.537" width="17.084" height="102.297"/>
            <polygon points="274.723,459.789 274.723,443.213 274.723,340.706 257.637,340.706 257.637,443.213 257.637,459.789
		257.637,460.089 274.723,460.089 	"/>
            <polygon points="343.059,424.019 343.059,409.044 343.059,306.537 325.975,306.537 325.975,409.044 325.975,424.019
		325.975,425.919 343.059,425.919 	"/>
        </g>
    </symbol>
    <symbol id="1273" viewBox="-24.174 0 495.452 512">
        <g>
            <rect x="138.129" y="25.543" width="17.084" height="68.104"/>
            <rect x="-24.174" y="187.111" width="68.104" height="17.085"/>

            <rect x="15.746" y="90.869" transform="matrix(-0.7071 -0.7071 0.7071 -0.7071 14.7269 204.9219)" width="68.117" height="17.083"/>

            <rect x="233.644" y="65.396" transform="matrix(-0.7071 -0.7071 0.7071 -0.7071 343.1242 341.0089)" width="17.082" height="68.095"/>
            <path d="M398.768,245.848c-12.339-57.593-63.49-100.796-124.765-100.796c-18.661,0-36.369,4.013-52.337,11.22
		c-14.231-27.354-42.761-46.073-75.729-46.073c-47.174,0-85.422,38.24-85.422,85.415c0,21.013,7.675,40.166,20.271,55.032
		c-12.196,15.717-19.537,35.395-19.537,56.834c0,51.112,41.31,92.563,92.363,92.812v0.025h35.771v-17.084H157.6l-3.904-0.024
		c-41.552-0.2-75.362-34.178-75.362-75.729c0-41.769,33.977-75.753,75.746-75.753c1.284,0,2.552,0.1,3.82,0.192l1.269,0.083
		l11.228,0.726l5.097-10.036c19.003-37.347,56.751-60.554,98.51-60.554c51.781,0,97.229,36.713,108.056,87.291l2.721,12.672
		l12.929,0.801c31.676,1.969,56.484,28.354,56.484,60.055c0,33.125-26.854,60.096-59.938,60.279
		c-0.36-0.024-0.676-0.043-1.001-0.043l-17.485,0.043h-32.626v17.084h49.711v-0.05c0.358,0.008,0.7,0.05,1.06,0.05
		c42.721,0,77.364-34.627,77.364-77.363C471.276,281.87,439.209,248.367,398.768,245.848z M160.269,214.949
		c-2.061-0.133-4.104-0.309-6.189-0.309c-23.625,0-45.114,8.893-61.506,23.433c-9.327-11.67-14.975-26.394-14.975-42.46
		c0-37.673,30.657-68.33,68.338-68.33c26.411,0,49.201,15.149,60.58,37.113C186.88,176.701,170.83,194.194,160.269,214.949z"/>
            <polygon points="264.911,400.376 280.025,400.376 283.706,400.376 300.874,400.376 246.084,322.12 232.094,331.922
		268.064,383.292 252.941,383.292 232.094,383.292 242.954,398.809 252.455,412.381 303.518,485.798 317.517,476.006
		266.455,402.579 	"/>
        </g>
    </symbol>
    <symbol id="1276" viewBox="-2.819 0 452.738 512">
        <g>
            <path d="M369.862,183.308c-13.631-63.6-70.105-111.299-137.761-111.299c-54.866,0-102.308,31.416-125.589,77.18
		c-2.27-0.15-4.529-0.342-6.832-0.342c-56.609,0-102.499,45.89-102.499,102.507c0,56.442,45.614,102.207,101.981,102.49v0.025
		h51.779v-17.085h-47.875l-3.821-0.025c-46.857-0.233-84.98-38.548-84.98-85.405c0-47.099,38.314-85.422,85.414-85.422
		c1.493,0,2.961,0.117,4.438,0.217l1.268,0.084l11.245,0.75l5.106-10.043c21.289-41.852,63.583-67.846,110.366-67.846
		c58.002,0,108.912,41.126,121.059,97.793l2.712,12.663l12.931,0.81c35.903,2.236,64.033,32.142,64.033,68.088
		c0,37.563-30.458,68.137-67.973,68.337c-0.424-0.025-0.793-0.041-1.167-0.059l-43.078,0.059h1.167v17.085h41.544v-0.06
		c0.393,0.01,0.776,0.06,1.169,0.06c47.164,0,85.421-38.24,85.421-85.422C449.92,223.083,414.517,186.085,369.862,183.308z"/>
            <polygon points="235.014,353.902 250.129,353.902 253.809,353.902 270.975,353.902 216.186,275.646 202.195,285.447
		238.167,336.818 223.042,336.818 202.195,336.818 213.057,352.334 222.559,365.907 273.62,439.326 287.618,429.531
		236.557,356.104 	"/>
        </g>
    </symbol>
    <symbol id="1279" viewBox="0 0 495.5 512">
        <g>
            <rect x="162.3" y="21.3" width="17.1" height="68.1"/>
            <rect y="182.9" width="68.1" height="17.1"/>
            <rect x="65.4" y="61.1" transform="matrix(0.7071 -0.7071 0.7071 0.7071 -45.6188 80.1813)" width="17.1" height="68.1"/>
            <rect x="232.3" y="86.6" transform="matrix(0.7071 -0.7071 0.7071 0.7071 10.7085 216.2293)" width="68.1" height="17.1"/>
            <path d="M422.9,241.6c-12.3-57.6-63.5-100.8-124.8-100.8c-18.7,0-36.4,4-52.3,11.2c-14.2-27.4-42.8-46.1-75.7-46.1
		c-47.2,0-85.4,38.2-85.4,85.4c0,21,7.7,40.2,20.3,55c-12.2,15.7-19.5,35.4-19.5,56.8c0,51.1,41.3,92.6,92.4,92.8v0h1.6V379l-1.5,0
		c-41.6-0.2-75.4-34.2-75.4-75.7c0-41.8,34-75.8,75.7-75.8c1.3,0,2.6,0.1,3.8,0.2l1.3,0.1l11.2,0.7l5.1-10
		c19-37.3,56.8-60.6,98.5-60.6c51.8,0,97.2,36.7,108.1,87.3l2.7,12.7l12.9,0.8c31.7,2,56.5,28.4,56.5,60.1
		c0,33.1-26.9,60.1-59.9,60.3c-0.4,0-0.7,0-1,0l-7.4,0v17.1h7v0c0.4,0,0.7,0,1.1,0c42.7,0,77.4-34.6,77.4-77.4
		C495.5,277.6,463.4,244.1,422.9,241.6z M184.4,210.7c-2.1-0.1-4.1-0.3-6.2-0.3c-23.6,0-45.1,8.9-61.5,23.4
		c-9.3-11.7-15-26.4-15-42.5c0-37.7,30.7-68.3,68.3-68.3c26.4,0,49.2,15.1,60.6,37.1C211.1,172.4,195,189.9,184.4,210.7z"/>
            <polygon points="306.1,421.7 321.2,421.7 324.9,421.7 342,421.7 287.2,343.5 273.2,353.3 309.2,404.6 294.1,404.6 273.2,404.6
		284.1,420.1 293.6,433.7 333,490.1 347,480.3 307.6,423.9 	"/>
            <polygon points="233.9,416.8 233.9,394.4 252.5,404.8 258.3,394.4 237.2,382.5 258.3,370.6 252.5,360.2 233.9,370.6 233.9,348.5
		216.8,348.5 216.8,371 197.6,360.2 191.7,370.6 212.8,382.5 191.7,394.4 197.6,404.8 216.8,394 216.8,416.8 	"/>
            <polygon points="404.9,485.1 404.9,462.7 423.5,473.1 429.3,462.7 408.2,450.8 429.3,438.9 423.5,428.5 404.9,438.9 404.9,416.8
		387.8,416.8 387.8,439.3 368.6,428.5 362.7,438.9 383.8,450.8 362.7,462.7 368.6,473.1 387.8,462.3 387.8,485.1 	"/>
        </g>
    </symbol>
    <symbol id="1282" viewBox="0 0 452.7 512">
        <g>
            <path d="M372.7,179C359,115.4,302.6,67.7,234.9,67.7c-54.9,0-102.3,31.4-125.6,77.2c-2.3-0.1-4.5-0.3-6.8-0.3
		C45.9,144.6,0,190.5,0,247.1c0,56.4,45.6,102.2,102,102.5v0h9.1v-17.1h-5.2l-3.8,0c-46.9-0.2-85-38.5-85-85.4
		c0-47.1,38.3-85.4,85.4-85.4c1.5,0,3,0.1,4.4,0.2l1.3,0.1l11.2,0.8l5.1-10c21.3-41.9,63.6-67.8,110.4-67.8
		c58,0,108.9,41.1,121.1,97.8l2.7,12.7l12.9,0.8c35.9,2.2,64,32.1,64,68.1c0,37.6-30.5,68.1-68,68.3c-0.4,0-0.8,0-1.2-0.1l-7.7,0.1
		v17.1h7.4v-0.1c0.4,0,0.8,0.1,1.2,0.1c47.2,0,85.4-38.2,85.4-85.4C452.7,218.8,417.3,181.8,372.7,179z"/>
            <polygon points="246.4,375.3 261.5,375.3 265.2,375.3 282.3,375.3 227.5,297 213.6,306.8 249.5,358.2 234.4,358.2 213.6,358.2
		224.4,373.7 233.9,387.3 273.4,443.6 287.4,433.8 247.9,377.5 	"/>
            <polygon points="168,376.6 168,354.2 186.6,364.6 192.4,354.2 171.3,342.3 192.4,330.4 186.6,320 168,330.4 168,308.3 150.9,308.3
		150.9,330.8 131.7,320 125.8,330.4 146.9,342.3 125.8,354.2 131.7,364.6 150.9,353.8 150.9,376.6 	"/>
            <polygon points="348.9,438.6 348.9,416.2 367.5,426.6 373.3,416.2 352.2,404.3 373.3,392.4 367.5,382 348.9,392.4 348.9,370.3
		331.8,370.3 331.8,392.8 312.6,382 306.7,392.4 327.8,404.3 306.7,416.2 312.6,426.6 331.8,415.8 331.8,438.6 	"/>
        </g>
    </symbol>
</svg>
