<!--All daytime weather icons are stored here.-->
<!--ID matches the weather code from response.-->
<svg xmlns="http://www.w3.org/2000/svg" display="none">
    <symbol id="1000" viewBox="1.453 0 444.197 512">
        <g>
            <path d="M223.551,144.567c-61.331,0-111.049,49.71-111.049,111.041c0,61.339,49.719,111.065,111.049,111.065
		c61.33,0,111.049-49.726,111.049-111.065C334.6,194.277,284.882,144.567,223.551,144.567z M223.551,349.59
		c-51.812,0-93.965-42.16-93.965-93.981c0-51.805,42.152-93.957,93.965-93.957c51.812,0,93.965,42.152,93.965,93.957
		C317.517,307.43,275.363,349.59,223.551,349.59z"/>
            <rect x="214.951" y="33.568" width="17.084" height="85.422"/>
            <rect x="214.951" y="392.343" width="17.084" height="85.422"/>
            <rect x="1.453" y="247.125" width="85.364" height="17.084"/>
            <rect x="360.168" y="247.125" width="85.482" height="17.084"/>

            <rect x="340.532" y="85.547"
                  transform="matrix(-0.7071 -0.7071 0.7071 -0.7071 503.9698 468.7683)"
                  width="17.081" height="88.917"/>
            <rect x="89.322" y="336.788" transform="matrix(0.707 0.7072 -0.7072 0.707 298.296 42.4937)"
                  width="17.084"
                  height="88.923"/>

            <rect x="53.425" y="121.514" transform="matrix(-0.7071 -0.7071 0.7071 -0.7071 75.1333 291.2311)"
                  width="88.916" height="17.082"/>
            <rect x="304.608" y="372.74" transform="matrix(0.7072 0.707 -0.707 0.7072 371.7704 -135.158)"
                  width="88.924"
                  height="17.082"/>
        </g>
    </symbol>
    <symbol id="1003" viewBox="-24.398 0 495.897 512">
        <g>
            <path d="M398.992,289.102c-12.338-57.594-63.49-100.796-124.762-100.796c-18.662,0-36.373,4.013-52.34,11.22
		c-14.231-27.354-42.761-46.072-75.729-46.072c-47.174,0-85.422,38.239-85.422,85.414c0,21.014,7.675,40.167,20.271,55.033
		c-12.196,15.716-19.538,35.396-19.538,56.834c0,51.111,41.31,92.563,92.363,92.812v0.025h239.241v-0.051
		c0.357,0.01,0.7,0.051,1.06,0.051c42.721,0,77.363-34.628,77.363-77.364C471.501,325.123,439.435,291.621,398.992,289.102z
		 M146.162,170.536c26.411,0,49.201,15.149,60.58,37.114c-19.637,12.304-35.687,29.797-46.248,50.553
		c-2.061-0.135-4.104-0.309-6.19-0.309c-23.625,0-45.113,8.894-61.505,23.432c-9.327-11.67-14.974-26.394-14.974-42.46
		C77.825,201.193,108.481,170.536,146.162,170.536z M394.479,426.487c-0.324-0.025-0.658-0.033-1.001-0.043l-17.484-0.358v0.401
		H158.992l-5.072-0.025c-41.551-0.2-75.361-34.178-75.361-75.729c0-41.77,33.977-75.754,75.745-75.754
		c1.285,0,2.553,0.101,3.821,0.184l1.268,0.092l11.228,0.727l5.105-10.027c18.995-37.356,56.743-60.563,98.504-60.563
		c51.777,0,97.217,36.713,108.062,87.292l2.711,12.664l12.93,0.811c31.676,1.977,56.485,28.354,56.485,60.053
		C454.418,399.332,427.564,426.295,394.479,426.487z"/>
            <rect x="137.67" y="67.771" width="17.085" height="68.104"/>
            <rect x="-24.398" y="229.957" width="68.104" height="17.084"/>

            <rect x="15.971" y="134.123" transform="matrix(-0.7071 -0.7071 0.7071 -0.7071 -15.4734 278.9178)"
                  width="68.117" height="17.082"/>

            <rect x="233.883" y="108.646" transform="matrix(-0.7071 -0.7071 0.7071 -0.7071 312.9376 415.0134)"
                  width="17.081" height="68.094"/>
        </g>
    </symbol>
    <symbol id="1006" viewBox="-2.818 0 452.738 512">
        <path d="M232.104,131.821c58.002,0,108.904,41.126,121.051,97.793l2.72,12.671l12.931,0.801
	c35.903,2.236,64.033,32.143,64.033,68.088c0,37.557-30.458,68.137-67.973,68.338c-0.392-0.025-0.774-0.049-1.167-0.059
	l-17.451-0.309v0.367H104.185l-4.938-0.025c-46.857-0.233-84.98-38.549-84.98-85.404c0-47.101,38.314-85.424,85.414-85.424
	c1.493,0,2.961,0.118,4.43,0.218l1.276,0.091l11.245,0.742l5.106-10.044C143.034,157.814,185.32,131.821,232.104,131.821
	 M232.104,114.736c-54.867,0-102.309,31.416-125.59,77.181c-2.27-0.151-4.529-0.342-6.832-0.342
	c-56.609,0-102.499,45.89-102.499,102.508c0,56.44,45.614,102.205,101.981,102.489v0.024H363.33v-0.059
	c0.393,0.008,0.776,0.059,1.169,0.059c47.164,0,85.421-38.239,85.421-85.423c0-45.363-35.403-82.362-80.058-85.14
	C356.231,162.436,299.757,114.736,232.104,114.736L232.104,114.736z"/>
    </symbol>
    <symbol id="1009" viewBox="0 0 452.7 512">
        <path d="M372.7,226c-13.6-63.6-70.1-111.3-137.8-111.3c-54.9,0-102.3,31.4-125.6,77.2c-2.3-0.1-4.5-0.3-6.8-0.3
	C45.9,191.6,0,237.5,0,294.1c0,56.4,45.6,102.2,102,102.5v0h28.1c-2-5.4-3.3-11.1-3.6-17.1H107l-4.9,0c-46.8-0.2-85-38.5-85-85.4
	c0-47.1,38.3-85.4,85.4-85.4c1.5,0,3,0.1,4.4,0.2l1.3,0.1l11.2,0.7l5.1-10c21.3-41.9,63.6-67.8,110.4-67.8c58,0,108.9,41.1,121,97.8
	l2.7,12.7l12.9,0.8c35.9,2.2,64,32.1,64,68.1c0,20-8.7,38.1-22.5,50.6c-2.9,2.6-6,5-9.4,7.1c2.4,5.4,3.9,11.3,4.1,17.5
	c3.8-2.1,7.5-4.4,10.9-7c20.6-15.6,34-40.3,34-68.2C452.7,265.8,417.3,228.8,372.7,226z"/>
        <path d="M418.8,379.4c-0.9-6.2-2.9-12.1-5.6-17.6c-9-17.6-26.8-30-47.6-31.3c-9.2-42.8-47.2-74.9-92.7-74.9
	c-36.9,0-68.8,21.1-84.5,51.9c-1.5-0.1-3.1-0.2-4.6-0.2c-38.1,0-69,30.9-69,69c0,1.1,0,2.1,0.1,3.2c0.3,5.9,1.3,11.6,3,17.1
	c8.6,28.1,34.7,48.5,65.6,48.7v0h177.7v0c0.3,0,0.5,0,0.8,0c31.7,0,57.5-25.7,57.5-57.5C419.4,384.9,419.2,382.1,418.8,379.4z
	 M362.2,433.8c-0.3,0-0.5,0-0.8,0l-11.7-0.2v0.2H186.8l-3.3,0c-24.4-0.1-45.2-15.6-53.4-37.2c-2-5.4-3.3-11.1-3.6-17.1
	c-0.1-1.1-0.1-2.1-0.1-3.2c0-31.7,25.8-57.5,57.5-57.5c1,0,2,0.1,3,0.1l0.9,0.1l7.6,0.5l3.4-6.8c14.3-28.1,42.8-45.6,74.2-45.6
	c39,0,73.2,27.7,81.4,65.8l1.8,8.5l8.7,0.5c17.5,1.1,32.2,11.9,39,26.9c2.4,5.4,3.9,11.3,4.1,17.5c0,0.5,0,1,0,1.4
	C407.9,413.1,387.4,433.6,362.2,433.8z"/>
    </symbol>    
    <symbol id="1087" viewBox="-24.174 0 495.452 512">
        <g>
            <rect x="138.129" y="25.543" width="17.084" height="68.104"/>
            <rect x="-24.174" y="187.111" width="68.104" height="17.085"/>

            <rect x="15.746" y="90.869" transform="matrix(-0.7071 -0.7071 0.7071 -0.7071 14.7269 204.9219)"
                  width="68.117" height="17.083"/>

            <rect x="233.644" y="65.396" transform="matrix(-0.7071 -0.7071 0.7071 -0.7071 343.1242 341.0089)"
                  width="17.082" height="68.095"/>
            <path d="M398.768,245.848c-12.339-57.593-63.49-100.796-124.765-100.796c-18.661,0-36.369,4.013-52.337,11.22
		c-14.231-27.354-42.761-46.073-75.729-46.073c-47.174,0-85.422,38.24-85.422,85.415c0,21.013,7.675,40.166,20.271,55.032
		c-12.196,15.717-19.537,35.395-19.537,56.834c0,51.112,41.31,92.563,92.363,92.812v0.025h35.771v-17.084H157.6l-3.904-0.024
		c-41.552-0.2-75.362-34.178-75.362-75.729c0-41.769,33.977-75.753,75.746-75.753c1.284,0,2.552,0.1,3.82,0.192l1.269,0.083
		l11.228,0.726l5.097-10.036c19.003-37.347,56.751-60.554,98.51-60.554c51.781,0,97.229,36.713,108.056,87.291l2.721,12.672
		l12.929,0.801c31.676,1.969,56.484,28.354,56.484,60.055c0,33.125-26.854,60.096-59.938,60.279
		c-0.36-0.024-0.676-0.043-1.001-0.043l-17.485,0.043h-32.626v17.084h49.711v-0.05c0.358,0.008,0.7,0.05,1.06,0.05
		c42.721,0,77.364-34.627,77.364-77.363C471.276,281.87,439.209,248.367,398.768,245.848z M160.269,214.949
		c-2.061-0.133-4.104-0.309-6.189-0.309c-23.625,0-45.114,8.893-61.506,23.433c-9.327-11.67-14.975-26.394-14.975-42.46
		c0-37.673,30.657-68.33,68.338-68.33c26.411,0,49.201,15.149,60.58,37.113C186.88,176.701,170.83,194.194,160.269,214.949z"/>
            <polygon points="264.911,400.376 280.025,400.376 283.706,400.376 300.874,400.376 246.084,322.12 232.094,331.922
		268.064,383.292 252.941,383.292 232.094,383.292 242.954,398.809 252.455,412.381 303.518,485.798 317.517,476.006
		266.455,402.579 	"/>
        </g>
    </symbol>    
    <symbol id="1135" viewBox="-28.445 0 503.992 512">
        <g>
            <rect x="133.858" y="55.466" width="17.084" height="68.104"/>
            <rect x="-28.445" y="217.035" width="68.104" height="17.084"/>

            <rect x="11.475" y="120.792" transform="matrix(-0.7071 -0.7071 0.7071 -0.7071 -13.7219 252.9837)"
                  width="68.117" height="17.083"/>

            <rect x="229.39" y="95.314" transform="matrix(-0.7071 -0.7071 0.7071 -0.7071 314.6959 389.0777)"
                  width="17.081" height="68.094"/>
            <rect x="48.435" y="344.826" width="427.112" height="17.084"/>
            <rect x="82.604" y="396.08" width="375.858" height="17.084"/>
            <rect x="133.858" y="438.792" width="256.266" height="17.084"/>
            <rect x="65.52" y="293.572" width="392.942" height="17.087"/>
            <path d="M73.278,276.488h6.59h16.459h8.643c12.571-9.284,28.046-14.842,44.838-14.842c1.284,0,2.552,0.101,3.82,0.193l1.268,0.082
		l11.229,0.727l5.097-10.037c19.003-37.346,56.75-60.555,98.51-60.555c50.787,0,95.399,35.354,107.312,84.429h17.451v-0.717
		c-12.338-57.594-63.491-100.796-124.764-100.796c-18.662,0-36.371,4.012-52.33,11.22c-14.24-27.354-42.77-46.074-75.738-46.074
		c-47.174,0-85.422,38.241-85.422,85.414C56.244,244.68,62.634,262.266,73.278,276.488z M141.666,157.206
		c26.403,0,49.202,15.149,60.572,37.113c-19.628,12.305-35.687,29.797-46.24,50.553c-2.061-0.134-4.104-0.309-6.189-0.309
		c-23.608,0-45.056,8.926-61.415,23.449c-9.368-11.67-15.065-26.386-15.065-42.478C73.328,187.862,103.985,157.206,141.666,157.206z
		"/>
        </g>
    </symbol>    
    <symbol id="1183" viewBox="-2.819 0 452.738 512">
        <g>
            <path d="M369.862,161.853c-13.631-63.6-70.105-111.3-137.761-111.3c-54.866,0-102.308,31.416-125.589,77.181
		c-2.27-0.151-4.529-0.342-6.832-0.342c-56.609,0-102.499,45.89-102.499,102.507c0,56.443,45.614,102.207,101.981,102.492v0.024
		h17.61v-17.086h-13.706l-3.821-0.024c-46.857-0.234-84.98-38.55-84.98-85.406c0-47.1,38.314-85.423,85.414-85.423
		c1.493,0,2.961,0.117,4.438,0.218l1.268,0.083l11.245,0.751l5.106-10.044c21.289-41.852,63.583-67.846,110.366-67.846
		c58.002,0,108.912,41.126,121.059,97.794l2.712,12.664l12.931,0.809c35.903,2.235,64.033,32.142,64.033,68.087
		c0,37.564-30.458,68.137-67.973,68.338c-0.424-0.025-0.793-0.041-1.167-0.061l-17.451,0.061h-24.46v17.086h41.544v-0.059
		c0.393,0.008,0.776,0.059,1.169,0.059c47.164,0,85.421-38.24,85.421-85.424C449.92,201.626,414.517,164.629,369.862,161.853z"/>
            <polygon points="210.738,392.452 210.738,409.028 210.738,460.79 227.822,460.79 227.822,409.028 227.822,392.452 227.822,289.943
		210.738,289.943 	"/>
            <polygon points="279.076,358.281 279.076,373.257 279.076,426.619 296.16,426.619 296.16,373.257 296.16,358.281 296.16,255.774
		279.076,255.774 	"/>
            <polygon points="142.4,358.281 142.4,375.925 142.4,426.619 159.484,426.619 159.484,375.925 159.484,358.281 159.484,255.774
		142.4,255.774 	"/>
        </g>
    </symbol>   
    <symbol id="1195" viewBox="-2.819 0 452.738 512">
        <g>
            <polygon points="274.979,379.396 216.186,295.425 202.195,305.227 260.989,389.197 270.492,402.771 300.182,445.172
		314.179,435.38 284.489,392.968 	"/>
            <polygon points="343.334,379.38 284.523,295.425 270.533,305.234 329.353,389.189 337.938,401.451 368.553,445.146
		382.551,435.354 351.936,391.648 	"/>
            <polygon points="206.642,379.396 147.847,295.425 133.858,305.234 192.652,389.197 202.771,403.654 231.852,445.182
		245.841,435.38 216.769,393.852 	"/>
            <path d="M369.862,177.46c-13.631-63.601-70.105-111.3-137.761-111.3c-54.866,0-102.308,31.416-125.589,77.181
		c-2.27-0.149-4.529-0.342-6.832-0.342c-56.609,0-102.499,45.889-102.499,102.507c0,56.442,45.614,102.207,101.981,102.49v0.025
		h17.61v-17.086h-13.706l-3.821-0.022c-46.857-0.233-84.98-38.55-84.98-85.407c0-47.099,38.314-85.422,85.414-85.422
		c1.493,0,2.961,0.117,4.438,0.217l1.268,0.083l11.245,0.751l5.106-10.043c21.289-41.853,63.583-67.846,110.366-67.846
		c58.002,0,108.912,41.125,121.059,97.793l2.712,12.663l12.931,0.809c35.903,2.236,64.033,32.142,64.033,68.087
		c0,37.564-30.458,68.139-67.973,68.338c-0.424-0.022-0.793-0.041-1.167-0.059l-8.908,0.059h1.167v17.086h7.374v-0.059
		c0.393,0.008,0.776,0.059,1.169,0.059c47.164,0,85.421-38.239,85.421-85.424C449.92,217.235,414.517,180.238,369.862,177.46z"/>
        </g>
    </symbol>    
    <symbol id="1225" viewBox="-2.819 0 452.738 512">
        <g>
            <path d="M369.862,183.308c-13.631-63.6-70.105-111.299-137.761-111.299c-54.866,0-102.308,31.416-125.589,77.18
		c-2.27-0.15-4.529-0.342-6.832-0.342c-56.609,0-102.499,45.89-102.499,102.507c0,56.442,45.614,102.207,101.981,102.49v0.025h17.61
		v-17.085h-13.706l-3.821-0.025c-46.857-0.233-84.98-38.548-84.98-85.405c0-47.099,38.314-85.422,85.414-85.422
		c1.493,0,2.961,0.117,4.438,0.217l1.268,0.084l11.245,0.75l5.106-10.043c21.289-41.852,63.583-67.846,110.366-67.846
		c58.002,0,108.912,41.126,121.059,97.793l2.712,12.663l12.931,0.81c35.903,2.236,64.033,32.142,64.033,68.088
		c0,37.563-30.458,68.137-67.973,68.337c-0.424-0.025-0.793-0.041-1.167-0.059l-17.451,0.059h-7.375v17.085h24.459v-0.06
		c0.393,0.01,0.776,0.06,1.169,0.06c47.164,0,85.421-38.24,85.421-85.422C449.92,223.083,414.517,186.085,369.862,183.308z"/>
            <polygon points="185.111,345.51 185.111,323.045 203.673,333.489 209.528,323.062 188.431,311.191 209.528,299.32 203.673,288.893
		185.111,299.338 185.111,277.172 168.026,277.172 168.026,299.713 148.798,288.893 142.942,299.32 164.04,311.191 142.942,323.062
		148.798,333.489 168.026,322.671 168.026,345.51 	"/>
            <polygon points="229.207,382.708 210.646,393.15 210.646,370.988 193.562,370.988 193.562,393.527 174.333,382.708
		168.477,393.136 189.574,405.006 168.477,416.876 174.333,427.304 193.562,416.485 193.562,439.326 210.646,439.326
		210.646,416.86 229.207,427.304 235.062,416.876 213.967,405.006 235.062,393.136 	"/>
            <polygon points="306.222,323.062 287.66,333.507 287.66,311.342 270.575,311.342 270.575,333.881 251.348,323.062 245.49,333.489
		266.587,345.359 245.49,357.23 251.348,367.659 270.575,356.839 270.575,379.68 287.66,379.68 287.66,357.215 306.222,367.659
		312.076,357.23 290.98,345.359 312.076,333.489 	"/>
        </g>
    </symbol>    
    <symbol id="1276" viewBox="-2.819 0 452.738 512">
        <g>
            <path d="M369.862,183.308c-13.631-63.6-70.105-111.299-137.761-111.299c-54.866,0-102.308,31.416-125.589,77.18
		c-2.27-0.15-4.529-0.342-6.832-0.342c-56.609,0-102.499,45.89-102.499,102.507c0,56.442,45.614,102.207,101.981,102.49v0.025
		h51.779v-17.085h-47.875l-3.821-0.025c-46.857-0.233-84.98-38.548-84.98-85.405c0-47.099,38.314-85.422,85.414-85.422
		c1.493,0,2.961,0.117,4.438,0.217l1.268,0.084l11.245,0.75l5.106-10.043c21.289-41.852,63.583-67.846,110.366-67.846
		c58.002,0,108.912,41.126,121.059,97.793l2.712,12.663l12.931,0.81c35.903,2.236,64.033,32.142,64.033,68.088
		c0,37.563-30.458,68.137-67.973,68.337c-0.424-0.025-0.793-0.041-1.167-0.059l-43.078,0.059h1.167v17.085h41.544v-0.06
		c0.393,0.01,0.776,0.06,1.169,0.06c47.164,0,85.421-38.24,85.421-85.422C449.92,223.083,414.517,186.085,369.862,183.308z"/>
            <polygon points="235.014,353.902 250.129,353.902 253.809,353.902 270.975,353.902 216.186,275.646 202.195,285.447
		238.167,336.818 223.042,336.818 202.195,336.818 213.057,352.334 222.559,365.907 273.62,439.326 287.618,429.531
		236.557,356.104 	"/>
        </g>
    </symbol>    
</svg>
