<!--All night weather icons are stored here.-->
<!--ID matches the weather code from responsive.-->
<svg xmlns="http://www.w3.org/2000/svg" display="none">
    <symbol id="1000" viewBox="78.492 0 290.119 512">
        <path d="M247.093,129.727c59.37,11.145,104.435,63.375,104.435,125.932c0,70.666-57.485,128.149-128.134,128.149
	c-58.002,0-107.044-38.355-122.719-91.636c11.946,3.937,24.492,5.963,37.297,5.963c65.944,0,119.591-53.656,119.591-119.6
	C257.562,161.585,253.941,144.976,247.093,129.727 M223.393,110.448c-2.887,0-5.706,0.267-8.542,0.434
	c15.899,18.052,25.627,41.693,25.627,67.654c0,56.609-45.891,102.516-102.507,102.516c-22.198,0-42.694-7.133-59.479-19.129
	c3.304,77.281,66.812,138.97,144.901,138.97c80.208,0,145.218-65.024,145.218-145.233
	C368.61,175.45,303.602,110.448,223.393,110.448L223.393,110.448z"/>
    </symbol>
    <symbol id="1003" viewBox="9.996 0 427.112 512">
        <path d="M364.598,263.325c-12.337-57.594-63.49-100.798-124.763-100.798c-15.366,0-30.081,2.736-43.721,7.725
	c-8.108-43.637-46.165-76.713-92.154-76.713c-3.529,0-6.999,0.234-10.436,0.609c6.356,9.502,10.069,20.914,10.069,33.193
	c0,33.018-26.769,59.796-59.795,59.796c-12.288,0-23.691-3.712-33.193-10.069c-0.375,3.429-0.609,6.907-0.609,10.436
	c0,31.708,15.758,59.688,39.816,76.705C35.688,280.5,27.08,301.697,27.08,324.956c0,51.11,41.31,92.562,92.363,92.813v0.023h239.241
	v-0.049c0.359,0.008,0.7,0.049,1.061,0.049c42.719,0,77.364-34.628,77.364-77.363C437.107,299.346,405.041,265.846,364.598,263.325z
	 M28.59,202.711c4.971,1.001,10.061,1.51,15.208,1.51c42.394,0,76.88-34.486,76.88-76.88c0-5.147-0.509-10.235-1.51-15.208
	c31.892,6.432,56.626,32.667,60.939,65.26c-23.174,12.338-42.094,31.6-54.006,55.033c-2.061-0.134-4.104-0.309-6.189-0.309
	c-21.673,0-41.561,7.482-57.36,19.937C45.366,241.001,32.77,223.408,28.59,202.711z M360.085,400.71
	c-0.324-0.025-0.658-0.033-1.001-0.041L341.6,400.31v0.4H124.598l-5.072-0.025c-41.552-0.198-75.362-34.177-75.362-75.729
	c0-41.769,33.977-75.755,75.746-75.755c1.285,0,2.552,0.101,3.82,0.184l1.269,0.092l11.228,0.725l5.105-10.026
	c18.995-37.356,56.743-60.563,98.503-60.563c51.778,0,97.218,36.713,108.062,87.292l2.712,12.664l12.931,0.809
	c31.675,1.977,56.482,28.354,56.482,60.055C420.022,373.557,393.17,400.519,360.085,400.71z"/>
    </symbol>
    <symbol id="1006" viewBox="9.996 0 427.112 512">
        <path d="M364.598,263.325c-12.337-57.594-63.49-100.798-124.763-100.798c-15.366,0-30.081,2.736-43.721,7.725
	c-8.108-43.637-46.165-76.713-92.154-76.713c-3.529,0-6.999,0.234-10.436,0.609c6.356,9.502,10.069,20.914,10.069,33.193
	c0,33.018-26.769,59.796-59.795,59.796c-12.288,0-23.691-3.712-33.193-10.069c-0.375,3.429-0.609,6.907-0.609,10.436
	c0,31.708,15.758,59.688,39.816,76.705C35.688,280.5,27.08,301.697,27.08,324.956c0,51.11,41.31,92.562,92.363,92.813v0.023h239.241
	v-0.049c0.359,0.008,0.7,0.049,1.061,0.049c42.719,0,77.364-34.628,77.364-77.363C437.107,299.346,405.041,265.846,364.598,263.325z
	 M28.59,202.711c4.971,1.001,10.061,1.51,15.208,1.51c42.394,0,76.88-34.486,76.88-76.88c0-5.147-0.509-10.235-1.51-15.208
	c31.892,6.432,56.626,32.667,60.939,65.26c-23.174,12.338-42.094,31.6-54.006,55.033c-2.061-0.134-4.104-0.309-6.189-0.309
	c-21.673,0-41.561,7.482-57.36,19.937C45.366,241.001,32.77,223.408,28.59,202.711z M360.085,400.71
	c-0.324-0.025-0.658-0.033-1.001-0.041L341.6,400.31v0.4H124.598l-5.072-0.025c-41.552-0.198-75.362-34.177-75.362-75.729
	c0-41.769,33.977-75.755,75.746-75.755c1.285,0,2.552,0.101,3.82,0.184l1.269,0.092l11.228,0.725l5.105-10.026
	c18.995-37.356,56.743-60.563,98.503-60.563c51.778,0,97.218,36.713,108.062,87.292l2.712,12.664l12.931,0.809
	c31.675,1.977,56.482,28.354,56.482,60.055C420.022,373.557,393.17,400.519,360.085,400.71z"/>
    </symbol>
    <symbol id="1009" viewBox="0 0 452.7 512">
        <path d="M372.7,226c-13.6-63.6-70.1-111.3-137.8-111.3c-54.9,0-102.3,31.4-125.6,77.2c-2.3-0.1-4.5-0.3-6.8-0.3
	C45.9,191.6,0,237.5,0,294.1c0,56.4,45.6,102.2,102,102.5v0h28.1c-2-5.4-3.3-11.1-3.6-17.1H107l-4.9,0c-46.8-0.2-85-38.5-85-85.4
	c0-47.1,38.3-85.4,85.4-85.4c1.5,0,3,0.1,4.4,0.2l1.3,0.1l11.2,0.7l5.1-10c21.3-41.9,63.6-67.8,110.4-67.8c58,0,108.9,41.1,121,97.8
	l2.7,12.7l12.9,0.8c35.9,2.2,64,32.1,64,68.1c0,20-8.7,38.1-22.5,50.6c-2.9,2.6-6,5-9.4,7.1c2.4,5.4,3.9,11.3,4.1,17.5
	c3.8-2.1,7.5-4.4,10.9-7c20.6-15.6,34-40.3,34-68.2C452.7,265.8,417.3,228.8,372.7,226z"/>
        <path d="M418.8,379.4c-0.9-6.2-2.9-12.1-5.6-17.6c-9-17.6-26.8-30-47.6-31.3c-9.2-42.8-47.2-74.9-92.7-74.9
	c-36.9,0-68.8,21.1-84.5,51.9c-1.5-0.1-3.1-0.2-4.6-0.2c-38.1,0-69,30.9-69,69c0,1.1,0,2.1,0.1,3.2c0.3,5.9,1.3,11.6,3,17.1
	c8.6,28.1,34.7,48.5,65.6,48.7v0h177.7v0c0.3,0,0.5,0,0.8,0c31.7,0,57.5-25.7,57.5-57.5C419.4,384.9,419.2,382.1,418.8,379.4z
	 M362.2,433.8c-0.3,0-0.5,0-0.8,0l-11.7-0.2v0.2H186.8l-3.3,0c-24.4-0.1-45.2-15.6-53.4-37.2c-2-5.4-3.3-11.1-3.6-17.1
	c-0.1-1.1-0.1-2.1-0.1-3.2c0-31.7,25.8-57.5,57.5-57.5c1,0,2,0.1,3,0.1l0.9,0.1l7.6,0.5l3.4-6.8c14.3-28.1,42.8-45.6,74.2-45.6
	c39,0,73.2,27.7,81.4,65.8l1.8,8.5l8.7,0.5c17.5,1.1,32.2,11.9,39,26.9c2.4,5.4,3.9,11.3,4.1,17.5c0,0.5,0,1,0,1.4
	C407.9,413.1,387.4,433.6,362.2,433.8z"/>
    </symbol>    
    <symbol id="1087" viewBox="9.996 0 427.112 512">
        <g>
            <path d="M364.598,220.588c-12.337-57.593-63.49-100.796-124.763-100.796c-15.366,0-30.081,2.736-43.721,7.725
		c-8.108-43.637-46.165-76.713-92.154-76.713c-3.529,0-6.999,0.234-10.436,0.609c6.356,9.502,10.069,20.914,10.069,33.193
		c0,33.018-26.769,59.795-59.795,59.795c-12.288,0-23.691-3.712-33.193-10.069c-0.375,3.429-0.609,6.907-0.609,10.436
		c0,31.708,15.758,59.687,39.816,76.705c-14.123,16.292-22.731,37.49-22.731,60.748c0,51.112,41.31,92.563,92.363,92.812v0.025
		h35.771v-17.084H123.43l-3.904-0.024c-41.552-0.201-75.362-34.179-75.362-75.729c0-41.77,33.977-75.754,75.746-75.754
		c1.285,0,2.552,0.1,3.82,0.191l1.269,0.084l11.228,0.726l5.097-10.036c19.003-37.347,56.751-60.555,98.511-60.555
		c51.778,0,97.228,36.714,108.054,87.292l2.721,12.671l12.931,0.801c31.675,1.968,56.483,28.356,56.483,60.054
		c0,33.125-26.854,60.096-59.938,60.281c-0.358-0.025-0.675-0.043-1.001-0.043l-17.484,0.043h-32.625v17.082h49.709v-0.05
		c0.359,0.009,0.7,0.05,1.061,0.05c42.719,0,77.364-34.627,77.364-77.363C437.107,256.609,405.041,223.107,364.598,220.588z
		 M126.1,189.689c-2.061-0.133-4.104-0.308-6.189-0.308c-21.673,0-41.561,7.483-57.36,19.938
		c-17.185-11.053-29.781-28.646-33.96-49.343c4.971,1.001,10.061,1.509,15.208,1.509c42.394,0,76.88-34.486,76.88-76.88
		c0-5.147-0.509-10.235-1.51-15.208c31.892,6.432,56.626,32.667,60.939,65.26C156.932,146.995,138.012,166.256,126.1,189.689z"/>
            <polygon points="230.742,375.116 245.857,375.116 249.536,375.116 266.705,375.116 211.914,296.859 197.924,306.662
		233.896,358.032 218.771,358.032 197.924,358.032 208.786,373.549 218.288,387.121 269.35,460.539 283.348,450.746
		232.285,377.318 	"/>
        </g>
    </symbol>
    <symbol id="1135" viewBox="5.723 0 435.656 512">
        <g>
            <rect x="14.267" y="319.6" width="427.112" height="17.086"/>
            <rect x="48.435" y="370.854" width="375.859" height="17.084"/>
            <rect x="99.689" y="413.564" width="256.267" height="17.085"/>
            <rect x="31.351" y="268.348" width="392.943" height="17.084"/>
            <path d="M45.382,251.262h0.316h16.093H70.8c12.571-9.285,28.046-14.84,44.838-14.84c1.285,0,2.553,0.1,3.821,0.191l1.268,0.083
		l11.229,0.727l5.096-10.036c19.003-37.347,56.751-60.554,98.511-60.554c50.787,0,95.4,35.353,107.312,84.429h17.451v-0.717
		c-12.337-57.593-63.49-100.797-124.764-100.797c-15.366,0-30.082,2.736-43.711,7.716c-8.075-43.662-46.148-76.772-92.163-76.772
		c-3.529,0-6.999,0.234-10.437,0.61c6.357,9.501,10.069,20.913,10.069,33.192c0,33.018-26.769,59.795-59.795,59.795
		c-12.288,0-23.691-3.712-33.193-10.068c-0.375,3.428-0.609,6.907-0.609,10.436C5.724,206.298,21.407,234.235,45.382,251.262z
		 M39.526,191.375c42.394,0,76.88-34.487,76.88-76.881c0-5.147-0.509-10.235-1.51-15.207c31.909,6.431,56.66,32.701,60.939,65.326
		c-23.166,12.33-42.085,31.6-54.006,55.033c-2.061-0.133-4.104-0.309-6.19-0.309c-21.648,0-41.477,7.508-57.243,19.946
		c-17.251-11.045-29.897-28.671-34.077-49.418C29.29,190.865,34.379,191.375,39.526,191.375z"/>
        </g>
    </symbol>    
    <symbol id="1183" viewBox="-2.819 0 452.738 512">
        <g>
            <path d="M369.862,161.853c-13.631-63.6-70.105-111.3-137.761-111.3c-54.866,0-102.308,31.416-125.589,77.181
		c-2.27-0.151-4.529-0.342-6.832-0.342c-56.609,0-102.499,45.89-102.499,102.507c0,56.443,45.614,102.207,101.981,102.492v0.024
		h17.61v-17.086h-13.706l-3.821-0.024c-46.857-0.234-84.98-38.55-84.98-85.406c0-47.1,38.314-85.423,85.414-85.423
		c1.493,0,2.961,0.117,4.438,0.218l1.268,0.083l11.245,0.751l5.106-10.044c21.289-41.852,63.583-67.846,110.366-67.846
		c58.002,0,108.912,41.126,121.059,97.794l2.712,12.664l12.931,0.809c35.903,2.235,64.033,32.142,64.033,68.087
		c0,37.564-30.458,68.137-67.973,68.338c-0.424-0.025-0.793-0.041-1.167-0.061l-17.451,0.061h-24.46v17.086h41.544v-0.059
		c0.393,0.008,0.776,0.059,1.169,0.059c47.164,0,85.421-38.24,85.421-85.424C449.92,201.626,414.517,164.629,369.862,161.853z"/>
            <polygon points="210.738,392.452 210.738,409.028 210.738,460.79 227.822,460.79 227.822,409.028 227.822,392.452 227.822,289.943
		210.738,289.943 	"/>
            <polygon points="279.076,358.281 279.076,373.257 279.076,426.619 296.16,426.619 296.16,373.257 296.16,358.281 296.16,255.774
		279.076,255.774 	"/>
            <polygon points="142.4,358.281 142.4,375.925 142.4,426.619 159.484,426.619 159.484,375.925 159.484,358.281 159.484,255.774
		142.4,255.774 	"/>
        </g>
    </symbol>    
    <symbol id="1195" viewBox="-2.819 0 452.738 512">
        <g>
            <polygon points="274.979,379.396 216.186,295.425 202.195,305.227 260.989,389.197 270.492,402.771 300.182,445.172
		314.179,435.38 284.489,392.968 	"/>
            <polygon points="343.334,379.38 284.523,295.425 270.533,305.234 329.353,389.189 337.938,401.451 368.553,445.146
		382.551,435.354 351.936,391.648 	"/>
            <polygon points="206.642,379.396 147.847,295.425 133.858,305.234 192.652,389.197 202.771,403.654 231.852,445.182
		245.841,435.38 216.769,393.852 	"/>
            <path d="M369.862,177.46c-13.631-63.601-70.105-111.3-137.761-111.3c-54.866,0-102.308,31.416-125.589,77.181
		c-2.27-0.149-4.529-0.342-6.832-0.342c-56.609,0-102.499,45.889-102.499,102.507c0,56.442,45.614,102.207,101.981,102.49v0.025
		h17.61v-17.086h-13.706l-3.821-0.022c-46.857-0.233-84.98-38.55-84.98-85.407c0-47.099,38.314-85.422,85.414-85.422
		c1.493,0,2.961,0.117,4.438,0.217l1.268,0.083l11.245,0.751l5.106-10.043c21.289-41.853,63.583-67.846,110.366-67.846
		c58.002,0,108.912,41.125,121.059,97.793l2.712,12.663l12.931,0.809c35.903,2.236,64.033,32.142,64.033,68.087
		c0,37.564-30.458,68.139-67.973,68.338c-0.424-0.022-0.793-0.041-1.167-0.059l-8.908,0.059h1.167v17.086h7.374v-0.059
		c0.393,0.008,0.776,0.059,1.169,0.059c47.164,0,85.421-38.239,85.421-85.424C449.92,217.235,414.517,180.238,369.862,177.46z"/>
        </g>
    </symbol>    
    <symbol id="1225" viewBox="-2.819 0 452.738 512">
        <g>
            <path d="M369.862,183.308c-13.631-63.6-70.105-111.299-137.761-111.299c-54.866,0-102.308,31.416-125.589,77.18
		c-2.27-0.15-4.529-0.342-6.832-0.342c-56.609,0-102.499,45.89-102.499,102.507c0,56.442,45.614,102.207,101.981,102.49v0.025h17.61
		v-17.085h-13.706l-3.821-0.025c-46.857-0.233-84.98-38.548-84.98-85.405c0-47.099,38.314-85.422,85.414-85.422
		c1.493,0,2.961,0.117,4.438,0.217l1.268,0.084l11.245,0.75l5.106-10.043c21.289-41.852,63.583-67.846,110.366-67.846
		c58.002,0,108.912,41.126,121.059,97.793l2.712,12.663l12.931,0.81c35.903,2.236,64.033,32.142,64.033,68.088
		c0,37.563-30.458,68.137-67.973,68.337c-0.424-0.025-0.793-0.041-1.167-0.059l-17.451,0.059h-7.375v17.085h24.459v-0.06
		c0.393,0.01,0.776,0.06,1.169,0.06c47.164,0,85.421-38.24,85.421-85.422C449.92,223.083,414.517,186.085,369.862,183.308z"/>
            <polygon points="185.111,345.51 185.111,323.045 203.673,333.489 209.528,323.062 188.431,311.191 209.528,299.32 203.673,288.893
		185.111,299.338 185.111,277.172 168.026,277.172 168.026,299.713 148.798,288.893 142.942,299.32 164.04,311.191 142.942,323.062
		148.798,333.489 168.026,322.671 168.026,345.51 	"/>
            <polygon points="229.207,382.708 210.646,393.15 210.646,370.988 193.562,370.988 193.562,393.527 174.333,382.708
		168.477,393.136 189.574,405.006 168.477,416.876 174.333,427.304 193.562,416.485 193.562,439.326 210.646,439.326
		210.646,416.86 229.207,427.304 235.062,416.876 213.967,405.006 235.062,393.136 	"/>
            <polygon points="306.222,323.062 287.66,333.507 287.66,311.342 270.575,311.342 270.575,333.881 251.348,323.062 245.49,333.489
		266.587,345.359 245.49,357.23 251.348,367.659 270.575,356.839 270.575,379.68 287.66,379.68 287.66,357.215 306.222,367.659
		312.076,357.23 290.98,345.359 312.076,333.489 	"/>
        </g>
    </symbol>    
    <symbol id="1276" viewBox="-2.819 0 452.738 512">
        <g>
            <path d="M369.862,183.308c-13.631-63.6-70.105-111.299-137.761-111.299c-54.866,0-102.308,31.416-125.589,77.18
		c-2.27-0.15-4.529-0.342-6.832-0.342c-56.609,0-102.499,45.89-102.499,102.507c0,56.442,45.614,102.207,101.981,102.49v0.025
		h51.779v-17.085h-47.875l-3.821-0.025c-46.857-0.233-84.98-38.548-84.98-85.405c0-47.099,38.314-85.422,85.414-85.422
		c1.493,0,2.961,0.117,4.438,0.217l1.268,0.084l11.245,0.75l5.106-10.043c21.289-41.852,63.583-67.846,110.366-67.846
		c58.002,0,108.912,41.126,121.059,97.793l2.712,12.663l12.931,0.81c35.903,2.236,64.033,32.142,64.033,68.088
		c0,37.563-30.458,68.137-67.973,68.337c-0.424-0.025-0.793-0.041-1.167-0.059l-43.078,0.059h1.167v17.085h41.544v-0.06
		c0.393,0.01,0.776,0.06,1.169,0.06c47.164,0,85.421-38.24,85.421-85.422C449.92,223.083,414.517,186.085,369.862,183.308z"/>
            <polygon points="235.014,353.902 250.129,353.902 253.809,353.902 270.975,353.902 216.186,275.646 202.195,285.447
		238.167,336.818 223.042,336.818 202.195,336.818 213.057,352.334 222.559,365.907 273.62,439.326 287.618,429.531
		236.557,356.104 	"/>
        </g>
    </symbol>    
</svg>
