<!--All night weather icons are stored here.-->
<!--ID matches the weather code from responsive.-->
<svg xmlns="http://www.w3.org/2000/svg" display="none">
    <symbol id="1000" viewBox="78.492 0 290.119 512">
        <path d="M247.093,129.727c59.37,11.145,104.435,63.375,104.435,125.932c0,70.666-57.485,128.149-128.134,128.149
	c-58.002,0-107.044-38.355-122.719-91.636c11.946,3.937,24.492,5.963,37.297,5.963c65.944,0,119.591-53.656,119.591-119.6
	C257.562,161.585,253.941,144.976,247.093,129.727 M223.393,110.448c-2.887,0-5.706,0.267-8.542,0.434
	c15.899,18.052,25.627,41.693,25.627,67.654c0,56.609-45.891,102.516-102.507,102.516c-22.198,0-42.694-7.133-59.479-19.129
	c3.304,77.281,66.812,138.97,144.901,138.97c80.208,0,145.218-65.024,145.218-145.233
	C368.61,175.45,303.602,110.448,223.393,110.448L223.393,110.448z"/>
    </symbol>
    <symbol id="1003" viewBox="9.996 0 427.112 512">
        <path d="M364.598,263.325c-12.337-57.594-63.49-100.798-124.763-100.798c-15.366,0-30.081,2.736-43.721,7.725
	c-8.108-43.637-46.165-76.713-92.154-76.713c-3.529,0-6.999,0.234-10.436,0.609c6.356,9.502,10.069,20.914,10.069,33.193
	c0,33.018-26.769,59.796-59.795,59.796c-12.288,0-23.691-3.712-33.193-10.069c-0.375,3.429-0.609,6.907-0.609,10.436
	c0,31.708,15.758,59.688,39.816,76.705C35.688,280.5,27.08,301.697,27.08,324.956c0,51.11,41.31,92.562,92.363,92.813v0.023h239.241
	v-0.049c0.359,0.008,0.7,0.049,1.061,0.049c42.719,0,77.364-34.628,77.364-77.363C437.107,299.346,405.041,265.846,364.598,263.325z
	 M28.59,202.711c4.971,1.001,10.061,1.51,15.208,1.51c42.394,0,76.88-34.486,76.88-76.88c0-5.147-0.509-10.235-1.51-15.208
	c31.892,6.432,56.626,32.667,60.939,65.26c-23.174,12.338-42.094,31.6-54.006,55.033c-2.061-0.134-4.104-0.309-6.189-0.309
	c-21.673,0-41.561,7.482-57.36,19.937C45.366,241.001,32.77,223.408,28.59,202.711z M360.085,400.71
	c-0.324-0.025-0.658-0.033-1.001-0.041L341.6,400.31v0.4H124.598l-5.072-0.025c-41.552-0.198-75.362-34.177-75.362-75.729
	c0-41.769,33.977-75.755,75.746-75.755c1.285,0,2.552,0.101,3.82,0.184l1.269,0.092l11.228,0.725l5.105-10.026
	c18.995-37.356,56.743-60.563,98.503-60.563c51.778,0,97.218,36.713,108.062,87.292l2.712,12.664l12.931,0.809
	c31.675,1.977,56.482,28.354,56.482,60.055C420.022,373.557,393.17,400.519,360.085,400.71z"/>
    </symbol>
    <symbol id="1006" viewBox="9.996 0 427.112 512">
        <path d="M364.598,263.325c-12.337-57.594-63.49-100.798-124.763-100.798c-15.366,0-30.081,2.736-43.721,7.725
	c-8.108-43.637-46.165-76.713-92.154-76.713c-3.529,0-6.999,0.234-10.436,0.609c6.356,9.502,10.069,20.914,10.069,33.193
	c0,33.018-26.769,59.796-59.795,59.796c-12.288,0-23.691-3.712-33.193-10.069c-0.375,3.429-0.609,6.907-0.609,10.436
	c0,31.708,15.758,59.688,39.816,76.705C35.688,280.5,27.08,301.697,27.08,324.956c0,51.11,41.31,92.562,92.363,92.813v0.023h239.241
	v-0.049c0.359,0.008,0.7,0.049,1.061,0.049c42.719,0,77.364-34.628,77.364-77.363C437.107,299.346,405.041,265.846,364.598,263.325z
	 M28.59,202.711c4.971,1.001,10.061,1.51,15.208,1.51c42.394,0,76.88-34.486,76.88-76.88c0-5.147-0.509-10.235-1.51-15.208
	c31.892,6.432,56.626,32.667,60.939,65.26c-23.174,12.338-42.094,31.6-54.006,55.033c-2.061-0.134-4.104-0.309-6.189-0.309
	c-21.673,0-41.561,7.482-57.36,19.937C45.366,241.001,32.77,223.408,28.59,202.711z M360.085,400.71
	c-0.324-0.025-0.658-0.033-1.001-0.041L341.6,400.31v0.4H124.598l-5.072-0.025c-41.552-0.198-75.362-34.177-75.362-75.729
	c0-41.769,33.977-75.755,75.746-75.755c1.285,0,2.552,0.101,3.82,0.184l1.269,0.092l11.228,0.725l5.105-10.026
	c18.995-37.356,56.743-60.563,98.503-60.563c51.778,0,97.218,36.713,108.062,87.292l2.712,12.664l12.931,0.809
	c31.675,1.977,56.482,28.354,56.482,60.055C420.022,373.557,393.17,400.519,360.085,400.71z"/>
    </symbol>
    <symbol id="1009" viewBox="0 0 452.7 512">
        <path d="M372.7,226c-13.6-63.6-70.1-111.3-137.8-111.3c-54.9,0-102.3,31.4-125.6,77.2c-2.3-0.1-4.5-0.3-6.8-0.3
	C45.9,191.6,0,237.5,0,294.1c0,56.4,45.6,102.2,102,102.5v0h28.1c-2-5.4-3.3-11.1-3.6-17.1H107l-4.9,0c-46.8-0.2-85-38.5-85-85.4
	c0-47.1,38.3-85.4,85.4-85.4c1.5,0,3,0.1,4.4,0.2l1.3,0.1l11.2,0.7l5.1-10c21.3-41.9,63.6-67.8,110.4-67.8c58,0,108.9,41.1,121,97.8
	l2.7,12.7l12.9,0.8c35.9,2.2,64,32.1,64,68.1c0,20-8.7,38.1-22.5,50.6c-2.9,2.6-6,5-9.4,7.1c2.4,5.4,3.9,11.3,4.1,17.5
	c3.8-2.1,7.5-4.4,10.9-7c20.6-15.6,34-40.3,34-68.2C452.7,265.8,417.3,228.8,372.7,226z"/>
        <path d="M418.8,379.4c-0.9-6.2-2.9-12.1-5.6-17.6c-9-17.6-26.8-30-47.6-31.3c-9.2-42.8-47.2-74.9-92.7-74.9
	c-36.9,0-68.8,21.1-84.5,51.9c-1.5-0.1-3.1-0.2-4.6-0.2c-38.1,0-69,30.9-69,69c0,1.1,0,2.1,0.1,3.2c0.3,5.9,1.3,11.6,3,17.1
	c8.6,28.1,34.7,48.5,65.6,48.7v0h177.7v0c0.3,0,0.5,0,0.8,0c31.7,0,57.5-25.7,57.5-57.5C419.4,384.9,419.2,382.1,418.8,379.4z
	 M362.2,433.8c-0.3,0-0.5,0-0.8,0l-11.7-0.2v0.2H186.8l-3.3,0c-24.4-0.1-45.2-15.6-53.4-37.2c-2-5.4-3.3-11.1-3.6-17.1
	c-0.1-1.1-0.1-2.1-0.1-3.2c0-31.7,25.8-57.5,57.5-57.5c1,0,2,0.1,3,0.1l0.9,0.1l7.6,0.5l3.4-6.8c14.3-28.1,42.8-45.6,74.2-45.6
	c39,0,73.2,27.7,81.4,65.8l1.8,8.5l8.7,0.5c17.5,1.1,32.2,11.9,39,26.9c2.4,5.4,3.9,11.3,4.1,17.5c0,0.5,0,1,0,1.4
	C407.9,413.1,387.4,433.6,362.2,433.8z"/>
    </symbol>
    <symbol id="1030" viewBox="0 0 452.7 512">
        <path d="M234.9,131.8c58,0,108.9,41.1,121.1,97.8l2.7,12.7l12.9,0.8c35.9,2.2,64,32.1,64,68.1c0,37.6-30.5,68.1-68,68.3
	c-0.4,0-0.8,0-1.2-0.1l-17.5-0.3v0.4H107l-4.9,0c-46.9-0.2-85-38.5-85-85.4c0-47.1,38.3-85.4,85.4-85.4c1.5,0,3,0.1,4.4,0.2l1.3,0.1
	l11.2,0.7l5.1-10C145.9,157.8,188.1,131.8,234.9,131.8 M234.9,114.7c-54.9,0-102.3,31.4-125.6,77.2c-2.3-0.2-4.5-0.3-6.8-0.3
	C45.9,191.6,0,237.5,0,294.1c0,56.4,45.6,102.2,102,102.5v0h264.2v-0.1c0.4,0,0.8,0.1,1.2,0.1c47.2,0,85.4-38.2,85.4-85.4
	c0-45.4-35.4-82.4-80.1-85.1C359,162.4,302.6,114.7,234.9,114.7L234.9,114.7z"/>
        <rect x="80" y="418" width="300.2" height="17"/>
        <rect x="111.3" y="456.4" width="237.6" height="17"/>
    </symbol>
    <symbol id="1063" viewBox="9.996 0 427.114 512">
        <g>
            <polygon points="279.251,400.603 220.457,316.63 206.467,326.432 265.261,410.402 274.764,423.976 304.452,466.379
		318.451,456.585 288.761,414.173 	"/>
            <polygon points="347.605,400.585 288.794,316.63 274.805,326.441 333.624,410.395 342.208,422.658 372.824,466.354 386.822,456.56
		356.206,412.856 	"/>
            <polygon points="210.913,400.603 152.119,316.63 138.129,326.441 196.923,410.402 207.042,424.858 236.123,466.387
		250.111,456.585 221.041,415.057 	"/>
            <path d="M364.598,214.732c-12.337-57.594-63.49-100.797-124.763-100.797c-15.366,0-30.09,2.736-43.721,7.725
		c-8.108-43.637-46.165-76.713-92.154-76.713c-3.529,0-6.999,0.234-10.436,0.609c6.356,9.502,10.069,20.914,10.069,33.193
		c0,33.018-26.769,59.796-59.795,59.796c-12.288,0-23.691-3.712-33.193-10.069c-0.375,3.429-0.609,6.907-0.609,10.437
		c0,31.708,15.758,59.687,39.816,76.705c-14.123,16.292-22.731,37.489-22.731,60.748c0,51.11,41.31,92.563,92.363,92.812v0.025
		h10.144v-17.084h-6.156l-3.904-0.025c-41.552-0.199-75.362-34.178-75.362-75.729c0-41.771,33.977-75.755,75.746-75.755
		c1.285,0,2.552,0.1,3.82,0.192l1.269,0.084l11.228,0.725l5.097-10.035c19.003-37.348,56.751-60.555,98.511-60.555
		c51.778,0,97.228,36.713,108.054,87.291l2.721,12.671l12.931,0.802c31.675,1.968,56.483,28.355,56.483,60.053
		c0,33.128-26.854,60.1-59.938,60.281c-0.358-0.025-0.675-0.043-1.001-0.043l-0.4,0.043h-6.998v17.084h6.998v-0.051
		c0.359,0.01,0.7,0.051,1.061,0.051c42.719,0,77.364-34.628,77.364-77.365C437.107,250.752,405.041,217.252,364.598,214.732z
		 M126.1,183.833c-2.061-0.133-4.104-0.309-6.189-0.309c-21.673,0-41.561,7.483-57.36,19.938
		c-17.185-11.053-29.789-28.646-33.96-49.343c4.971,1.001,10.061,1.51,15.208,1.51c42.394,0,76.88-34.486,76.88-76.88
		c0-5.146-0.509-10.236-1.51-15.208c31.892,6.432,56.626,32.667,60.93,65.269C156.94,141.138,138.021,160.408,126.1,183.833z"/>
        </g>
    </symbol>
    <symbol id="1066" viewBox="9.996 0 427.114 512">
        <g>
            <path d="M364.598,220.605c-12.337-57.594-63.49-100.796-124.763-100.796c-15.366,0-30.09,2.736-43.721,7.724
		c-8.108-43.637-46.165-76.713-92.154-76.713c-3.529,0-6.999,0.234-10.436,0.609c6.356,9.501,10.069,20.913,10.069,33.193
		c0,33.018-26.769,59.795-59.795,59.795c-12.288,0-23.691-3.712-33.193-10.069c-0.375,3.429-0.609,6.907-0.609,10.436
		c0,31.716,15.758,59.688,39.816,76.705c-14.123,16.292-22.731,37.487-22.731,60.745c0,51.113,41.31,92.563,92.363,92.814v0.025
		h10.144V357.99h-6.156l-3.904-0.025c-41.552-0.199-75.362-34.176-75.362-75.729c0-41.769,33.977-75.753,75.746-75.753
		c1.285,0,2.552,0.1,3.82,0.191l1.269,0.084l11.228,0.726l5.097-10.036c19.003-37.347,56.751-60.555,98.511-60.555
		c51.778,0,97.228,36.714,108.054,87.291l2.721,12.671l12.931,0.801c31.675,1.969,56.483,28.354,56.483,60.055
		c0,33.126-26.854,60.096-59.938,60.279c-0.358-0.025-0.675-0.041-1.001-0.041l-15.941,0.041v17.085h15.541v-0.052
		c0.359,0.009,0.7,0.052,1.061,0.052c42.719,0,77.364-34.63,77.364-77.364C437.107,256.625,405.041,223.124,364.598,220.605z
		 M126.1,189.706c-2.061-0.133-4.104-0.309-6.189-0.309c-21.673,0-41.561,7.492-57.36,19.938
		c-17.185-11.054-29.781-28.646-33.96-49.343c4.971,1.001,10.061,1.51,15.208,1.51c42.394,0,76.88-34.486,76.88-76.88
		c0-5.147-0.509-10.235-1.51-15.208c31.892,6.432,56.626,32.667,60.939,65.26C156.932,147.011,138.012,166.273,126.1,189.706z"/>
            <polygon points="189.7,366.699 189.7,344.232 208.26,354.68 214.116,344.251 193.02,332.38 214.116,320.509 208.26,310.082
		189.7,320.525 189.7,298.361 172.615,298.361 172.615,320.902 153.387,310.082 147.531,320.509 168.627,332.38 147.531,344.251
		153.387,354.68 172.615,343.857 172.615,366.699 	"/>
            <polygon points="233.795,403.896 215.234,414.34 215.234,392.176 198.15,392.176 198.15,414.717 178.921,403.896 173.065,414.324
		194.163,426.195 173.065,438.066 178.921,448.493 198.15,437.674 198.15,460.514 215.234,460.514 215.234,438.049 233.795,448.493
		239.652,438.066 218.554,426.195 239.652,414.324 	"/>
            <polygon points="310.809,344.251 292.249,354.695 292.249,332.531 275.164,332.531 275.164,355.07 255.936,344.251 250.079,354.68
		271.176,366.549 250.079,378.42 255.936,388.848 275.164,378.027 275.164,400.869 292.249,400.869 292.249,378.404
		310.809,388.848 316.665,378.42 295.566,366.549 316.665,354.68 	"/>
        </g>
    </symbol>
    <symbol id="1069" viewBox="9.996 0 427.114 512">
        <g>
            <g>
                <path d="M364.598,233.293c-12.337-57.593-63.49-100.797-124.763-100.797c-15.366,0-30.081,2.736-43.721,7.725
			c-8.108-43.637-46.165-76.713-92.154-76.713c-3.529,0-6.999,0.234-10.436,0.609c6.356,9.502,10.069,20.914,10.069,33.193
			c0,33.018-26.769,59.795-59.795,59.795c-12.288,0-23.691-3.711-33.193-10.068c-0.375,3.429-0.609,6.907-0.609,10.436
			c0,31.708,15.758,59.688,39.816,76.705c-14.123,16.292-22.731,37.488-22.731,60.747c0,51.11,41.31,92.563,92.363,92.814v0.022
			h10.144v-17.084h-6.156l-3.904-0.025c-41.552-0.198-75.362-34.176-75.362-75.729c0-41.77,33.977-75.755,75.746-75.755
			c1.285,0,2.552,0.101,3.82,0.192l1.269,0.083l11.228,0.726l5.097-10.035c19.003-37.348,56.751-60.555,98.511-60.555
			c51.778,0,97.228,36.713,108.054,87.291l2.721,12.671l12.931,0.8c31.675,1.97,56.483,28.354,56.483,60.057
			c0,33.125-26.854,60.096-59.938,60.278c-0.358-0.024-0.675-0.04-1.001-0.04l-17.484,0.04H326.06v17.084h32.626v-0.049
			c0.359,0.008,0.7,0.049,1.061,0.049c42.719,0,77.364-34.628,77.364-77.362C437.107,269.312,405.041,235.812,364.598,233.293z
			 M126.1,202.395c-2.061-0.134-4.104-0.309-6.189-0.309c-21.673,0-41.561,7.483-57.36,19.938
			C45.366,210.97,32.77,193.377,28.59,172.68c4.971,1.001,10.061,1.51,15.208,1.51c42.394,0,76.88-34.486,76.88-76.88
			c0-5.147-0.509-10.235-1.51-15.208c31.892,6.432,56.626,32.667,60.939,65.26C156.932,159.7,138.012,178.962,126.1,202.395z"/>
            </g>
            <g>
                <path d="M159.484,319.508c-7.074,0-12.813,5.739-12.813,12.812c0,7.076,5.74,12.814,12.813,12.814
			c7.073,0,12.814-5.738,12.814-12.814C172.298,325.247,166.558,319.508,159.484,319.508z"/>
            </g>
            <g>
                <path d="M193.653,370.762c-7.074,0-12.813,5.74-12.813,12.812c0,7.074,5.739,12.812,12.813,12.812
			c7.074,0,12.814-5.738,12.814-12.812C206.467,376.502,200.727,370.762,193.653,370.762z"/>
            </g>
            <g>
                <path d="M261.991,370.762c-7.073,0-12.812,5.74-12.812,12.812c0,7.074,5.738,12.812,12.812,12.812s12.812-5.738,12.812-12.812
			C274.805,376.502,269.064,370.762,261.991,370.762z"/>
            </g>
            <g>
                <circle cx="227.822" cy="332.322" r="12.814"/>
            </g>
            <g>
                <circle cx="296.16" cy="332.322" r="12.814"/>
            </g>
            <g>
                <path d="M159.484,422.199c-7.074,0-12.813,5.739-12.813,12.812c0,7.073,5.74,12.813,12.813,12.813
			c7.073,0,12.814-5.74,12.814-12.813C172.298,427.938,166.558,422.199,159.484,422.199z"/>
            </g>
            <g>
                <path d="M227.822,422.199c-7.074,0-12.813,5.739-12.813,12.812c0,7.073,5.739,12.813,12.813,12.813s12.814-5.74,12.814-12.813
			C240.637,427.938,234.896,422.199,227.822,422.199z"/>
            </g>
            <g>
                <path d="M296.16,422.199c-7.074,0-12.812,5.739-12.812,12.812c0,7.073,5.738,12.813,12.812,12.813s12.813-5.74,12.813-12.813
			C308.974,427.938,303.234,422.199,296.16,422.199z"/>
            </g>
        </g>
    </symbol>
    <symbol id="1072" viewBox="-2.819 0 452.738 512">
        <g>
            <rect x="210.738" y="351.893" width="17.084" height="34.17"/>
            <rect x="279.076" y="317.539" width="17.084" height="34.354"/>
            <rect x="142.4" y="317.539" width="17.084" height="34.354"/>
            <path d="M369.862,181.147c-13.631-63.599-70.105-111.299-137.761-111.299c-54.866,0-102.308,31.416-125.589,77.18
		c-2.27-0.15-4.529-0.342-6.832-0.342c-56.609,0-102.499,45.89-102.499,102.507c0,56.442,45.614,102.206,101.981,102.491v0.024
		h17.61v-17.084h-13.706l-3.821-0.024c-46.857-0.233-84.98-38.551-84.98-85.407c0-47.1,38.314-85.422,85.414-85.422
		c1.493,0,2.961,0.117,4.438,0.216l1.268,0.083l11.245,0.751l5.106-10.044c21.289-41.852,63.583-67.846,110.366-67.846
		c58.002,0,108.912,41.126,121.059,97.793l2.712,12.664l12.931,0.809c35.903,2.236,64.033,32.143,64.033,68.089
		c0,37.562-30.458,68.138-67.973,68.338c-0.424-0.024-0.793-0.043-1.167-0.06l-17.451,0.06h-24.46v17.084h41.544v-0.06
		c0.393,0.009,0.776,0.06,1.169,0.06c47.164,0,85.421-38.24,85.421-85.422C449.92,220.922,414.517,183.925,369.862,181.147z"/>
            <path d="M287.618,381.967c-7.075,0-12.813,5.729-12.813,12.812c0,7.081,5.738,12.812,12.813,12.812
		c7.073,0,12.813-5.73,12.813-12.812C300.434,387.695,294.691,381.967,287.618,381.967z"/>
            <path d="M219.28,415.867c-7.074,0-12.813,5.73-12.813,12.812c0,7.083,5.739,12.812,12.813,12.812
		c7.076,0,12.813-5.729,12.813-12.812C232.094,421.599,226.355,415.867,219.28,415.867z"/>
            <path d="M150.942,381.605c-7.074,0-12.813,5.73-12.813,12.814c0,7.082,5.739,12.813,12.813,12.813
		c7.074,0,12.813-5.731,12.813-12.813C163.755,387.337,158.016,381.605,150.942,381.605z"/>
        </g>
    </symbol>
    <symbol id="1087" viewBox="9.996 0 427.112 512">
        <g>
            <path d="M364.598,220.588c-12.337-57.593-63.49-100.796-124.763-100.796c-15.366,0-30.081,2.736-43.721,7.725
		c-8.108-43.637-46.165-76.713-92.154-76.713c-3.529,0-6.999,0.234-10.436,0.609c6.356,9.502,10.069,20.914,10.069,33.193
		c0,33.018-26.769,59.795-59.795,59.795c-12.288,0-23.691-3.712-33.193-10.069c-0.375,3.429-0.609,6.907-0.609,10.436
		c0,31.708,15.758,59.687,39.816,76.705c-14.123,16.292-22.731,37.49-22.731,60.748c0,51.112,41.31,92.563,92.363,92.812v0.025
		h35.771v-17.084H123.43l-3.904-0.024c-41.552-0.201-75.362-34.179-75.362-75.729c0-41.77,33.977-75.754,75.746-75.754
		c1.285,0,2.552,0.1,3.82,0.191l1.269,0.084l11.228,0.726l5.097-10.036c19.003-37.347,56.751-60.555,98.511-60.555
		c51.778,0,97.228,36.714,108.054,87.292l2.721,12.671l12.931,0.801c31.675,1.968,56.483,28.356,56.483,60.054
		c0,33.125-26.854,60.096-59.938,60.281c-0.358-0.025-0.675-0.043-1.001-0.043l-17.484,0.043h-32.625v17.082h49.709v-0.05
		c0.359,0.009,0.7,0.05,1.061,0.05c42.719,0,77.364-34.627,77.364-77.363C437.107,256.609,405.041,223.107,364.598,220.588z
		 M126.1,189.689c-2.061-0.133-4.104-0.308-6.189-0.308c-21.673,0-41.561,7.483-57.36,19.938
		c-17.185-11.053-29.781-28.646-33.96-49.343c4.971,1.001,10.061,1.509,15.208,1.509c42.394,0,76.88-34.486,76.88-76.88
		c0-5.147-0.509-10.235-1.51-15.208c31.892,6.432,56.626,32.667,60.939,65.26C156.932,146.995,138.012,166.256,126.1,189.689z"/>
            <polygon points="230.742,375.116 245.857,375.116 249.536,375.116 266.705,375.116 211.914,296.859 197.924,306.662
		233.896,358.032 218.771,358.032 197.924,358.032 208.786,373.549 218.288,387.121 269.35,460.539 283.348,450.746
		232.285,377.318 	"/>
        </g>
    </symbol>
    <symbol id="1114" viewBox="0 0 495.5 512">
        <g>
            <path d="M273.4,336.8H107l-4.9,0c-46.9-0.2-85-38.6-85-85.4c0-47.1,38.3-85.4,85.4-85.4c1.5,0,3,0.1,4.4,0.2l1.3,0.1l11.2,0.8
		l5.1-10c21.3-41.9,63.6-67.8,110.4-67.8c58,0,108.9,41.1,121.1,97.8l2.7,12.7l12.9,0.8c15.6,1,29.6,7.2,40.5,16.8h23.3
		c-14.6-19.3-37.1-32.3-62.8-33.9C359,119.7,302.6,72,234.9,72c-54.9,0-102.3,31.4-125.6,77.2c-2.3-0.1-4.5-0.3-6.8-0.3
		C45.9,148.9,0,194.8,0,251.4c0,56.4,45.6,102.2,102,102.5v0h171.4c18.8,0,34.2,15.3,34.2,34.2s-15.3,34.2-34.2,34.2v17.1
		c28.3,0,51.3-22.9,51.3-51.3C324.6,359.8,301.7,336.8,273.4,336.8z"/>
            <path d="M307.5,302.6H170.9v17.1h136.6c28.3,0,51.3-22.9,51.3-51.3c0-28.3-22.9-51.3-51.3-51.3v17.1c18.8,0,34.2,15.3,34.2,34.2
		C341.7,287.3,326.4,302.6,307.5,302.6z"/>
            <path d="M418.6,251.4c14.1,0,25.6,11.5,25.6,25.6c0,14.1-11.5,25.6-25.6,25.6c-0.4,0-0.7-0.1-1.1-0.1H376c0,0,0.1,0.1,0.1,0.1h-0.2
		v17.1h47v-0.4c21.6-2.2,38.4-20.1,38.4-42.3c0-23.6-19.1-42.7-42.7-42.7L418.6,251.4L418.6,251.4z"/>
            <rect x="119.6" y="302.6" width="34.2" height="17.1"/>
        </g>
        <polygon points="394.2,407.5 394.2,385.1 412.7,395.5 418.6,385.1 397.5,373.2 418.6,361.4 412.7,350.9 394.2,361.4 394.2,339.2
	377.1,339.2 377.1,361.8 357.8,350.9 352,361.4 373.1,373.2 352,385.1 357.8,395.5 377.1,384.7 377.1,407.5 "/>
        <polygon points="226.6,432.5 226.6,410 245.2,420.4 251,410 229.9,398.1 251,386.3 245.2,375.8 226.6,386.3 226.6,364.1
	209.5,364.1 209.5,386.7 190.3,375.8 184.5,386.3 205.6,398.1 184.5,410 190.3,420.4 209.5,409.6 209.5,432.5 "/>
    </symbol>
    <symbol id="1117" viewBox="0 0 495.5 512">
        <g>
            <path d="M273.4,336.8H107l-4.9,0c-46.9-0.2-85-38.6-85-85.4c0-47.1,38.3-85.4,85.4-85.4c1.5,0,3,0.1,4.4,0.2l1.3,0.1l11.2,0.8
		l5.1-10c21.3-41.9,63.6-67.8,110.4-67.8c58,0,108.9,41.1,121.1,97.8l2.7,12.7l12.9,0.8c15.6,1,29.6,7.2,40.5,16.8h23.3
		c-14.6-19.3-37.1-32.3-62.8-33.9C359,119.7,302.6,72,234.9,72c-54.9,0-102.3,31.4-125.6,77.2c-2.3-0.1-4.5-0.3-6.8-0.3
		C45.9,148.9,0,194.8,0,251.4c0,56.4,45.6,102.2,102,102.5v0h171.4c18.8,0,34.2,15.3,34.2,34.2s-15.3,34.2-34.2,34.2v17.1
		c28.3,0,51.3-22.9,51.3-51.3C324.6,359.8,301.7,336.8,273.4,336.8z"/>
            <path d="M307.5,302.6H170.9v17.1h136.6c28.3,0,51.3-22.9,51.3-51.3c0-28.3-22.9-51.3-51.3-51.3v17.1c18.8,0,34.2,15.3,34.2,34.2
		C341.7,287.3,326.4,302.6,307.5,302.6z"/>
            <path d="M418.6,251.4c14.1,0,25.6,11.5,25.6,25.6c0,14.1-11.5,25.6-25.6,25.6c-0.4,0-0.7-0.1-1.1-0.1H376c0,0,0.1,0.1,0.1,0.1h-0.2
		v17.1h47v-0.4c21.6-2.2,38.4-20.1,38.4-42.3c0-23.6-19.1-42.7-42.7-42.7L418.6,251.4L418.6,251.4z"/>
            <rect x="119.6" y="302.6" width="34.2" height="17.1"/>
        </g>
        <polygon points="394.2,407.5 394.2,385.1 412.7,395.5 418.6,385.1 397.5,373.2 418.6,361.4 412.7,350.9 394.2,361.4 394.2,339.2
	377.1,339.2 377.1,361.8 357.8,350.9 352,361.4 373.1,373.2 352,385.1 357.8,395.5 377.1,384.7 377.1,407.5 "/>
        <polygon points="226.6,432.5 226.6,410 245.2,420.4 251,410 229.9,398.1 251,386.3 245.2,375.8 226.6,386.3 226.6,364.1
	209.5,364.1 209.5,386.7 190.3,375.8 184.5,386.3 205.6,398.1 184.5,410 190.3,420.4 209.5,409.6 209.5,432.5 "/>
    </symbol>
    <symbol id="1135" viewBox="5.723 0 435.656 512">
        <g>
            <rect x="14.267" y="319.6" width="427.112" height="17.086"/>
            <rect x="48.435" y="370.854" width="375.859" height="17.084"/>
            <rect x="99.689" y="413.564" width="256.267" height="17.085"/>
            <rect x="31.351" y="268.348" width="392.943" height="17.084"/>
            <path d="M45.382,251.262h0.316h16.093H70.8c12.571-9.285,28.046-14.84,44.838-14.84c1.285,0,2.553,0.1,3.821,0.191l1.268,0.083
		l11.229,0.727l5.096-10.036c19.003-37.347,56.751-60.554,98.511-60.554c50.787,0,95.4,35.353,107.312,84.429h17.451v-0.717
		c-12.337-57.593-63.49-100.797-124.764-100.797c-15.366,0-30.082,2.736-43.711,7.716c-8.075-43.662-46.148-76.772-92.163-76.772
		c-3.529,0-6.999,0.234-10.437,0.61c6.357,9.501,10.069,20.913,10.069,33.192c0,33.018-26.769,59.795-59.795,59.795
		c-12.288,0-23.691-3.712-33.193-10.068c-0.375,3.428-0.609,6.907-0.609,10.436C5.724,206.298,21.407,234.235,45.382,251.262z
		 M39.526,191.375c42.394,0,76.88-34.487,76.88-76.881c0-5.147-0.509-10.235-1.51-15.207c31.909,6.431,56.66,32.701,60.939,65.326
		c-23.166,12.33-42.085,31.6-54.006,55.033c-2.061-0.133-4.104-0.309-6.19-0.309c-21.648,0-41.477,7.508-57.243,19.946
		c-17.251-11.045-29.897-28.671-34.077-49.418C29.29,190.865,34.379,191.375,39.526,191.375z"/>
        </g>
    </symbol>
    <symbol id="1147" viewBox="5.723 0 435.656 512">
        <g>
            <rect x="14.267" y="319.6" width="427.112" height="17.086"/>
            <rect x="48.435" y="370.854" width="375.859" height="17.084"/>
            <rect x="99.689" y="413.564" width="256.267" height="17.085"/>
            <rect x="31.351" y="268.348" width="392.943" height="17.084"/>
            <path d="M45.382,251.262h0.316h16.093H70.8c12.571-9.285,28.046-14.84,44.838-14.84c1.285,0,2.553,0.1,3.821,0.191l1.268,0.083
		l11.229,0.727l5.096-10.036c19.003-37.347,56.751-60.554,98.511-60.554c50.787,0,95.4,35.353,107.312,84.429h17.451v-0.717
		c-12.337-57.593-63.49-100.797-124.764-100.797c-15.366,0-30.082,2.736-43.711,7.716c-8.075-43.662-46.148-76.772-92.163-76.772
		c-3.529,0-6.999,0.234-10.437,0.61c6.357,9.501,10.069,20.913,10.069,33.192c0,33.018-26.769,59.795-59.795,59.795
		c-12.288,0-23.691-3.712-33.193-10.068c-0.375,3.428-0.609,6.907-0.609,10.436C5.724,206.298,21.407,234.235,45.382,251.262z
		 M39.526,191.375c42.394,0,76.88-34.487,76.88-76.881c0-5.147-0.509-10.235-1.51-15.207c31.909,6.431,56.66,32.701,60.939,65.326
		c-23.166,12.33-42.085,31.6-54.006,55.033c-2.061-0.133-4.104-0.309-6.19-0.309c-21.648,0-41.477,7.508-57.243,19.946
		c-17.251-11.045-29.897-28.671-34.077-49.418C29.29,190.865,34.379,191.375,39.526,191.375z"/>
        </g>
    </symbol>
    <symbol id="1150" viewBox="-2.819 0 452.738 512">
        <g>
            <rect x="210.738" y="311.266" width="17.084" height="59.797"/>
            <rect x="279.076" y="277.1" width="17.084" height="59.795"/>
            <rect x="142.4" y="277.1" width="17.084" height="59.795"/>
            <rect x="210.738" y="396.689" width="17.084" height="59.796"/>
            <rect x="279.076" y="362.52" width="17.084" height="59.797"/>
            <rect x="142.4" y="362.52" width="17.084" height="59.797"/>
            <path d="M369.862,166.148c-13.631-63.6-70.105-111.299-137.761-111.299c-54.866,0-102.308,31.416-125.589,77.18
		c-2.27-0.15-4.529-0.342-6.832-0.342c-56.609,0-102.499,45.89-102.499,102.507c0,56.445,45.614,102.208,101.981,102.492v0.023
		h17.61v-17.084h-13.706l-3.821-0.025c-46.857-0.232-84.98-38.548-84.98-85.406c0-47.099,38.314-85.422,85.414-85.422
		c1.493,0,2.961,0.117,4.438,0.216l1.268,0.083l11.245,0.751l5.106-10.044c21.289-41.852,63.583-67.846,110.366-67.846
		c58.002,0,108.912,41.126,121.059,97.793l2.712,12.663l12.931,0.81c35.903,2.235,64.033,32.142,64.033,68.088
		c0,37.563-30.458,68.138-67.973,68.338c-0.424-0.024-0.793-0.041-1.167-0.06l-17.451,0.06h-24.46v17.084h41.544v-0.06
		c0.393,0.011,0.776,0.06,1.169,0.06c47.164,0,85.421-38.237,85.421-85.422C449.92,205.923,414.517,168.926,369.862,166.148z"/>
        </g>
    </symbol>
    <symbol id="1153" viewBox="-2.819 0 452.738 512">
        <g>
            <rect x="210.738" y="311.266" width="17.084" height="59.797"/>
            <rect x="279.076" y="277.1" width="17.084" height="59.795"/>
            <rect x="142.4" y="277.1" width="17.084" height="59.795"/>
            <rect x="210.738" y="396.689" width="17.084" height="59.796"/>
            <rect x="279.076" y="362.52" width="17.084" height="59.797"/>
            <rect x="142.4" y="362.52" width="17.084" height="59.797"/>
            <path d="M369.862,166.148c-13.631-63.6-70.105-111.299-137.761-111.299c-54.866,0-102.308,31.416-125.589,77.18
		c-2.27-0.15-4.529-0.342-6.832-0.342c-56.609,0-102.499,45.89-102.499,102.507c0,56.445,45.614,102.208,101.981,102.492v0.023
		h17.61v-17.084h-13.706l-3.821-0.025c-46.857-0.232-84.98-38.548-84.98-85.406c0-47.099,38.314-85.422,85.414-85.422
		c1.493,0,2.961,0.117,4.438,0.216l1.268,0.083l11.245,0.751l5.106-10.044c21.289-41.852,63.583-67.846,110.366-67.846
		c58.002,0,108.912,41.126,121.059,97.793l2.712,12.663l12.931,0.81c35.903,2.235,64.033,32.142,64.033,68.088
		c0,37.563-30.458,68.138-67.973,68.338c-0.424-0.024-0.793-0.041-1.167-0.06l-17.451,0.06h-24.46v17.084h41.544v-0.06
		c0.393,0.011,0.776,0.06,1.169,0.06c47.164,0,85.421-38.237,85.421-85.422C449.92,205.923,414.517,168.926,369.862,166.148z"/>
        </g>
    </symbol>
    <symbol id="1168" viewBox="0 0 452.7 512">
        <g>
            <rect x="213.6" y="311.3" width="17.1" height="59.8"/>
            <rect x="281.9" y="277.1" width="17.1" height="59.8"/>
            <rect x="145.2" y="277.1" width="17.1" height="59.8"/>
            <rect x="213.6" y="396.7" width="17.1" height="59.8"/>
            <rect x="281.9" y="362.5" width="17.1" height="59.8"/>
            <rect x="145.2" y="362.5" width="17.1" height="59.8"/>
            <path d="M372.7,166.1C359,102.5,302.6,54.8,234.9,54.8c-54.9,0-102.3,31.4-125.6,77.2c-2.3-0.1-4.5-0.3-6.8-0.3
		C45.9,131.7,0,177.6,0,234.2c0,56.4,45.6,102.2,102,102.5v0h17.6v-17.1h-13.7l-3.8,0c-46.9-0.2-85-38.5-85-85.4
		c0-47.1,38.3-85.4,85.4-85.4c1.5,0,3,0.1,4.4,0.2l1.3,0.1l11.2,0.8l5.1-10c21.3-41.9,63.6-67.8,110.4-67.8
		c58,0,108.9,41.1,121.1,97.8l2.7,12.7l12.9,0.8c35.9,2.2,64,32.1,64,68.1c0,37.6-30.5,68.1-68,68.3c-0.4,0-0.8,0-1.2-0.1l-17.5,0.1
		h-24.5v17.1h41.5v-0.1c0.4,0,0.8,0.1,1.2,0.1c47.2,0,85.4-38.2,85.4-85.4C452.7,205.9,417.3,168.9,372.7,166.1z"/>
        </g>
        <polygon points="364.7,422.3 364.7,399.9 383.3,410.3 389.1,399.9 368,388 389.1,376.1 383.3,365.7 364.7,376.1 364.7,354
	347.6,354 347.6,376.5 328.4,365.7 322.5,376.1 343.6,388 322.5,399.9 328.4,410.3 347.6,399.5 347.6,422.3 "/>
    </symbol>
    <symbol id="1171" viewBox="0 0 452.7 512">
        <g>
            <rect x="213.6" y="311.3" width="17.1" height="59.8"/>
            <rect x="281.9" y="277.1" width="17.1" height="59.8"/>
            <rect x="145.2" y="277.1" width="17.1" height="59.8"/>
            <rect x="213.6" y="396.7" width="17.1" height="59.8"/>
            <rect x="281.9" y="362.5" width="17.1" height="59.8"/>
            <rect x="145.2" y="362.5" width="17.1" height="59.8"/>
            <path d="M372.7,166.1C359,102.5,302.6,54.8,234.9,54.8c-54.9,0-102.3,31.4-125.6,77.2c-2.3-0.1-4.5-0.3-6.8-0.3
		C45.9,131.7,0,177.6,0,234.2c0,56.4,45.6,102.2,102,102.5v0h17.6v-17.1h-13.7l-3.8,0c-46.9-0.2-85-38.5-85-85.4
		c0-47.1,38.3-85.4,85.4-85.4c1.5,0,3,0.1,4.4,0.2l1.3,0.1l11.2,0.8l5.1-10c21.3-41.9,63.6-67.8,110.4-67.8
		c58,0,108.9,41.1,121.1,97.8l2.7,12.7l12.9,0.8c35.9,2.2,64,32.1,64,68.1c0,37.6-30.5,68.1-68,68.3c-0.4,0-0.8,0-1.2-0.1l-17.5,0.1
		h-24.5v17.1h41.5v-0.1c0.4,0,0.8,0.1,1.2,0.1c47.2,0,85.4-38.2,85.4-85.4C452.7,205.9,417.3,168.9,372.7,166.1z"/>
        </g>
        <polygon points="364.7,422.3 364.7,399.9 383.3,410.3 389.1,399.9 368,388 389.1,376.1 383.3,365.7 364.7,376.1 364.7,354
	347.6,354 347.6,376.5 328.4,365.7 322.5,376.1 343.6,388 322.5,399.9 328.4,410.3 347.6,399.5 347.6,422.3 "/>
    </symbol>
    <symbol id="1180" viewBox="9.996 0 427.114 512">
        <g>
            <path d="M364.598,218.461c-12.337-57.594-63.49-100.796-124.763-100.796c-15.366,0-30.09,2.736-43.721,7.725
		c-8.108-43.637-46.165-76.713-92.154-76.713c-3.529,0-6.999,0.233-10.436,0.609c6.356,9.501,10.069,20.914,10.069,33.193
		c0,33.018-26.769,59.796-59.795,59.796c-12.288,0-23.691-3.712-33.193-10.069c-0.375,3.429-0.609,6.908-0.609,10.436
		c0,31.708,15.758,59.688,39.816,76.706c-14.123,16.292-22.731,37.491-22.731,60.748c0,51.11,41.31,92.562,92.363,92.813v0.024
		h10.144v-17.086h-6.156l-3.904-0.022c-41.552-0.2-75.362-34.179-75.362-75.729c0-41.77,33.977-75.755,75.746-75.755
		c1.285,0,2.552,0.1,3.82,0.192l1.269,0.083l11.228,0.726l5.097-10.035c19.003-37.347,56.751-60.555,98.511-60.555
		c51.778,0,97.228,36.713,108.054,87.292l2.721,12.671l12.931,0.801c31.675,1.969,56.483,28.355,56.483,60.054
		c0,33.127-26.854,60.097-59.938,60.279c-0.358-0.023-0.675-0.041-1.001-0.041l-17.484,0.041h-7v17.086h24.084v-0.052
		c0.359,0.009,0.7,0.052,1.061,0.052c42.719,0,77.364-34.629,77.364-77.365C437.107,254.482,405.041,220.98,364.598,218.461z
		 M126.1,187.562c-2.061-0.133-4.104-0.308-6.189-0.308c-21.673,0-41.561,7.482-57.36,19.937
		c-17.185-11.052-29.789-28.646-33.96-49.342c4.971,1.001,10.061,1.509,15.208,1.509c42.394,0,76.88-34.486,76.88-76.88
		c0-5.147-0.509-10.236-1.51-15.208c31.892,6.432,56.626,32.667,60.93,65.268C156.94,144.868,138.021,164.138,126.1,187.562z"/>
            <rect x="223.551" y="373.062" width="17.085" height="34.172"/>
            <rect x="291.889" y="338.712" width="17.086" height="34.353"/>
            <rect x="155.213" y="338.712" width="17.085" height="34.353"/>
            <path d="M300.434,403.138c-7.066,0-12.814,5.729-12.814,12.813c0,7.082,5.748,12.812,12.814,12.812
		c7.064,0,12.812-5.73,12.812-12.812C313.245,408.867,307.498,403.138,300.434,403.138z"/>
            <path d="M232.094,437.039c-7.066,0-12.813,5.732-12.813,12.812c0,7.084,5.747,12.813,12.813,12.813
		c7.065,0,12.813-5.729,12.813-12.813C244.907,442.771,239.159,437.039,232.094,437.039z"/>
            <path d="M163.755,402.778c-7.066,0-12.813,5.73-12.813,12.813c0,7.081,5.747,12.812,12.813,12.812
		c7.065,0,12.813-5.731,12.813-12.812C176.569,408.51,170.821,402.778,163.755,402.778z"/>
        </g>
    </symbol>
    <symbol id="1183" viewBox="-2.819 0 452.738 512">
        <g>
            <path d="M369.862,161.853c-13.631-63.6-70.105-111.3-137.761-111.3c-54.866,0-102.308,31.416-125.589,77.181
		c-2.27-0.151-4.529-0.342-6.832-0.342c-56.609,0-102.499,45.89-102.499,102.507c0,56.443,45.614,102.207,101.981,102.492v0.024
		h17.61v-17.086h-13.706l-3.821-0.024c-46.857-0.234-84.98-38.55-84.98-85.406c0-47.1,38.314-85.423,85.414-85.423
		c1.493,0,2.961,0.117,4.438,0.218l1.268,0.083l11.245,0.751l5.106-10.044c21.289-41.852,63.583-67.846,110.366-67.846
		c58.002,0,108.912,41.126,121.059,97.794l2.712,12.664l12.931,0.809c35.903,2.235,64.033,32.142,64.033,68.087
		c0,37.564-30.458,68.137-67.973,68.338c-0.424-0.025-0.793-0.041-1.167-0.061l-17.451,0.061h-24.46v17.086h41.544v-0.059
		c0.393,0.008,0.776,0.059,1.169,0.059c47.164,0,85.421-38.24,85.421-85.424C449.92,201.626,414.517,164.629,369.862,161.853z"/>
            <polygon points="210.738,392.452 210.738,409.028 210.738,460.79 227.822,460.79 227.822,409.028 227.822,392.452 227.822,289.943
		210.738,289.943 	"/>
            <polygon points="279.076,358.281 279.076,373.257 279.076,426.619 296.16,426.619 296.16,373.257 296.16,358.281 296.16,255.774
		279.076,255.774 	"/>
            <polygon points="142.4,358.281 142.4,375.925 142.4,426.619 159.484,426.619 159.484,375.925 159.484,358.281 159.484,255.774
		142.4,255.774 	"/>
        </g>
    </symbol>
    <symbol id="1186" viewBox="9.996 0 427.114 512">
        <g>
            <polygon points="223.551,413.648 223.551,430.225 223.551,481.986 240.637,481.986 240.637,430.225 240.637,413.648
		240.637,311.143 223.551,311.143 	"/>
            <polygon points="291.889,379.479 291.889,394.454 291.889,447.817 308.975,447.817 308.975,394.454 308.975,379.479
		308.975,276.975 291.889,276.975 	"/>
            <polygon points="155.213,379.479 155.213,397.122 155.213,447.817 172.298,447.817 172.298,397.122 172.298,379.479
		172.298,276.975 155.213,276.975 	"/>
            <path d="M364.598,199.133c-12.337-57.594-63.49-100.797-124.763-100.797c-15.366,0-30.081,2.736-43.721,7.724
		c-8.108-43.637-46.165-76.713-92.154-76.713c-3.529,0-6.999,0.233-10.436,0.609c6.356,9.501,10.069,20.913,10.069,33.192
		c0,33.018-26.769,59.795-59.795,59.795c-12.288,0-23.691-3.712-33.193-10.068c-0.375,3.429-0.609,6.908-0.609,10.436
		c0,31.708,15.758,59.688,39.816,76.705c-14.123,16.292-22.731,37.489-22.731,60.748c0,51.111,41.31,92.562,92.363,92.812v0.024
		h10.144v-17.084h-6.156l-3.904-0.024c-41.552-0.2-75.362-34.177-75.362-75.729c0-41.769,33.977-75.754,75.746-75.754
		c1.285,0,2.552,0.1,3.82,0.192l1.269,0.083l11.228,0.726l5.097-10.035c19.003-37.348,56.751-60.556,98.511-60.556
		c51.778,0,97.228,36.713,108.054,87.292l2.721,12.672l12.931,0.8c31.675,1.969,56.483,28.354,56.483,60.056
		c0,33.125-26.854,60.096-59.938,60.277c-0.358-0.024-0.675-0.041-1.001-0.041l-17.484,0.041h-7V353.6h24.084v-0.049
		c0.359,0.008,0.7,0.049,1.061,0.049c42.719,0,77.364-34.627,77.364-77.361C437.107,235.154,405.041,201.651,364.598,199.133z
		 M126.1,168.234c-2.061-0.133-4.104-0.309-6.189-0.309c-21.673,0-41.561,7.482-57.36,19.938
		c-17.185-11.053-29.781-28.646-33.96-49.343c4.971,1.001,10.061,1.51,15.208,1.51c42.394,0,76.88-34.486,76.88-76.88
		c0-5.147-0.509-10.236-1.51-15.208c31.892,6.432,56.626,32.668,60.939,65.268C156.932,125.54,138.012,144.81,126.1,168.234z"/>
        </g>
    </symbol>
    <symbol id="1189" viewBox="-2.819 0 452.738 512">
        <g>
            <path d="M369.862,161.853c-13.631-63.6-70.105-111.3-137.761-111.3c-54.866,0-102.308,31.416-125.589,77.181
		c-2.27-0.151-4.529-0.342-6.832-0.342c-56.609,0-102.499,45.89-102.499,102.507c0,56.443,45.614,102.207,101.981,102.492v0.024
		h17.61v-17.086h-13.706l-3.821-0.024c-46.857-0.234-84.98-38.55-84.98-85.406c0-47.1,38.314-85.423,85.414-85.423
		c1.493,0,2.961,0.117,4.438,0.218l1.268,0.083l11.245,0.751l5.106-10.044c21.289-41.852,63.583-67.846,110.366-67.846
		c58.002,0,108.912,41.126,121.059,97.794l2.712,12.664l12.931,0.809c35.903,2.235,64.033,32.142,64.033,68.087
		c0,37.564-30.458,68.137-67.973,68.338c-0.424-0.025-0.793-0.041-1.167-0.061l-17.451,0.061h-24.46v17.086h41.544v-0.059
		c0.393,0.008,0.776,0.059,1.169,0.059c47.164,0,85.421-38.24,85.421-85.424C449.92,201.626,414.517,164.629,369.862,161.853z"/>
            <polygon points="210.738,392.452 210.738,409.028 210.738,460.79 227.822,460.79 227.822,409.028 227.822,392.452 227.822,289.943
		210.738,289.943 	"/>
            <polygon points="279.076,358.281 279.076,373.257 279.076,426.619 296.16,426.619 296.16,373.257 296.16,358.281 296.16,255.774
		279.076,255.774 	"/>
            <polygon points="142.4,358.281 142.4,375.925 142.4,426.619 159.484,426.619 159.484,375.925 159.484,358.281 159.484,255.774
		142.4,255.774 	"/>
        </g>
    </symbol>
    <symbol id="1192" viewBox="0 0 427.1 512">
        <g>
            <path d="M354.6,199.1c-12.3-57.6-63.5-100.8-124.8-100.8c-15.4,0-30.1,2.7-43.7,7.7C178,62.4,140,29.3,94,29.3
		c-3.5,0-7,0.2-10.4,0.6c6.3,9.5,10.1,20.9,10.1,33.2c0,33-26.8,59.8-59.8,59.8c-12.3,0-23.7-3.7-33.2-10.1
		c-0.4,3.4-0.6,6.9-0.6,10.4C0,155,15.8,183,39.8,200c-14.1,16.3-22.7,37.5-22.7,60.7c0,51.1,41.3,92.6,92.4,92.8v0h3.1v-17.1l-3,0
		c-41.6-0.2-75.4-34.2-75.4-75.7c0-41.8,34-75.8,75.8-75.8c1.3,0,2.5,0.1,3.8,0.2l1.3,0.1l11.2,0.7l5.1-10
		c19-37.3,56.8-60.5,98.5-60.5c51.8,0,97.2,36.7,108,87.3l2.7,12.7l12.9,0.8c31.7,2,56.5,28.4,56.5,60.1c0,33.1-26.9,60.1-59.9,60.3
		c-0.4,0-0.7,0-1,0l-17.5,0h-7v17.1h24.1v0c0.4,0,0.7,0,1.1,0c42.7,0,77.4-34.6,77.4-77.4C427.1,235.2,395,201.7,354.6,199.1z
		 M116.1,168.2c-2.1-0.1-4.1-0.3-6.2-0.3c-21.7,0-41.6,7.5-57.4,19.9c-17.2-11-29.8-28.6-34-49.3c5,1,10.1,1.5,15.2,1.5
		c42.4,0,76.9-34.5,76.9-76.9c0-5.2-0.5-10.2-1.5-15.2c31.9,6.4,56.6,32.7,60.9,65.3C146.9,125.5,128,144.8,116.1,168.2z"/>
        </g>
        <polygon
                points="253.6,383.5 194.9,299.6 180.9,309.4 239.7,393.3 249.2,406.9 278.8,449.3 292.8,439.5 263.2,397.1 "/>
        <polygon points="322,383.5 263.2,299.6 249.2,309.4 308,393.3 316.6,405.6 347.2,449.3 361.2,439.5 330.6,395.8 "/>
        <polygon
                points="185.3,383.5 126.5,299.6 112.5,309.4 171.3,393.3 181.4,407.8 210.5,449.3 224.5,439.5 195.4,398 "/>
    </symbol>
    <symbol id="1195" viewBox="-2.819 0 452.738 512">
        <g>
            <polygon points="274.979,379.396 216.186,295.425 202.195,305.227 260.989,389.197 270.492,402.771 300.182,445.172
		314.179,435.38 284.489,392.968 	"/>
            <polygon points="343.334,379.38 284.523,295.425 270.533,305.234 329.353,389.189 337.938,401.451 368.553,445.146
		382.551,435.354 351.936,391.648 	"/>
            <polygon points="206.642,379.396 147.847,295.425 133.858,305.234 192.652,389.197 202.771,403.654 231.852,445.182
		245.841,435.38 216.769,393.852 	"/>
            <path d="M369.862,177.46c-13.631-63.601-70.105-111.3-137.761-111.3c-54.866,0-102.308,31.416-125.589,77.181
		c-2.27-0.149-4.529-0.342-6.832-0.342c-56.609,0-102.499,45.889-102.499,102.507c0,56.442,45.614,102.207,101.981,102.49v0.025
		h17.61v-17.086h-13.706l-3.821-0.022c-46.857-0.233-84.98-38.55-84.98-85.407c0-47.099,38.314-85.422,85.414-85.422
		c1.493,0,2.961,0.117,4.438,0.217l1.268,0.083l11.245,0.751l5.106-10.043c21.289-41.853,63.583-67.846,110.366-67.846
		c58.002,0,108.912,41.125,121.059,97.793l2.712,12.663l12.931,0.809c35.903,2.236,64.033,32.142,64.033,68.087
		c0,37.564-30.458,68.139-67.973,68.338c-0.424-0.022-0.793-0.041-1.167-0.059l-8.908,0.059h1.167v17.086h7.374v-0.059
		c0.393,0.008,0.776,0.059,1.169,0.059c47.164,0,85.421-38.239,85.421-85.424C449.92,217.235,414.517,180.238,369.862,177.46z"/>
        </g>
    </symbol>
    <symbol id="1198" viewBox="0 0 452.7 512">
        <g>
            <path d="M372.7,161.9C359,98.3,302.6,50.6,234.9,50.6c-54.9,0-102.3,31.4-125.6,77.2c-2.3-0.2-4.5-0.3-6.8-0.3
		C45.9,127.4,0,173.3,0,229.9c0,56.4,45.6,102.2,102,102.5v0h17.6v-17.1h-13.7l-3.8,0c-46.9-0.2-85-38.5-85-85.4
		c0-47.1,38.3-85.4,85.4-85.4c1.5,0,3,0.1,4.4,0.2l1.3,0.1l11.2,0.8l5.1-10c21.3-41.9,63.6-67.8,110.4-67.8
		c58,0,108.9,41.1,121.1,97.8l2.7,12.7l12.9,0.8c35.9,2.2,64,32.1,64,68.1c0,37.6-30.5,68.1-68,68.3c-0.4,0-0.8,0-1.2-0.1l-17.5,0.1
		h-24.5v17.1h41.5v-0.1c0.4,0,0.8,0.1,1.2,0.1c47.2,0,85.4-38.2,85.4-85.4C452.7,201.6,417.3,164.6,372.7,161.9z"/>
            <polygon
                    points="213.6,392.5 213.6,409 213.6,460.8 230.6,460.8 230.6,409 230.6,392.5 230.6,289.9 213.6,289.9 	"/>
            <polygon
                    points="281.9,358.3 281.9,373.3 281.9,426.6 299,426.6 299,373.3 299,358.3 299,255.8 281.9,255.8 	"/>
            <polygon
                    points="145.2,358.3 145.2,375.9 145.2,426.6 162.3,426.6 162.3,375.9 162.3,358.3 162.3,255.8 145.2,255.8 	"/>
        </g>
        <polygon points="360.9,416.6 360.9,394.2 379.5,404.6 385.3,394.2 364.2,382.4 385.3,370.5 379.5,360.1 360.9,370.5 360.9,348.4
	343.8,348.4 343.8,370.9 324.6,360.1 318.7,370.5 339.8,382.4 318.7,394.2 324.6,404.6 343.8,393.9 343.8,416.6 "/>
    </symbol>
    <symbol id="1201" viewBox="0 0 452.7 512">
        <g>
            <polygon
                    points="277.8,379.4 219,295.4 205,305.2 263.8,389.2 273.3,402.8 303,445.2 317,435.4 287.3,393 	"/>
            <polygon
                    points="346.2,379.4 287.3,295.4 273.4,305.2 332.2,389.2 340.8,401.5 371.4,445.1 385.4,435.4 354.8,391.6 	"/>
            <polygon
                    points="209.5,379.4 150.7,295.4 136.7,305.2 195.5,389.2 205.6,403.7 234.7,445.2 248.7,435.4 219.6,393.9 	"/>
            <path d="M372.7,177.5C359,113.9,302.6,66.2,234.9,66.2c-54.9,0-102.3,31.4-125.6,77.2c-2.3-0.1-4.5-0.3-6.8-0.3
		C45.9,143,0,188.9,0,245.5C0,301.9,45.6,347.7,102,348v0h17.6v-17.1h-13.7l-3.8,0c-46.9-0.2-85-38.5-85-85.4
		c0-47.1,38.3-85.4,85.4-85.4c1.5,0,3,0.1,4.4,0.2l1.3,0.1l11.2,0.8l5.1-10c21.3-41.9,63.6-67.8,110.4-67.8
		c58,0,108.9,41.1,121.1,97.8l2.7,12.7l12.9,0.8c35.9,2.2,64,32.1,64,68.1c0,37.6-30.5,68.1-68,68.3c-0.4,0-0.8,0-1.2-0.1l-8.9,0.1
		h1.2V348h7.4V348c0.4,0,0.8,0.1,1.2,0.1c47.2,0,85.4-38.2,85.4-85.4C452.7,217.2,417.3,180.2,372.7,177.5z"/>
        </g>
        <polygon points="112.3,434.9 112.3,412.5 130.9,422.9 136.7,412.5 115.6,400.6 136.7,388.7 130.9,378.3 112.3,388.7 112.3,366.6
	95.2,366.6 95.2,389.1 76,378.3 70.1,388.7 91.2,400.6 70.1,412.5 76,422.9 95.2,412.1 95.2,434.9 "/>
    </symbol>
    <symbol id="1204" viewBox="-2.819 0 452.738 512">
        <g>
            <g>
                <path d="M369.862,196.046c-13.631-63.599-70.105-111.299-137.761-111.299c-54.866,0-102.308,31.416-125.589,77.18
			c-2.27-0.151-4.529-0.342-6.832-0.342c-56.609,0-102.499,45.89-102.499,102.508c0,56.441,45.614,102.205,101.981,102.489v0.025
			h17.61v-17.084h-13.706l-3.821-0.025c-46.857-0.232-84.98-38.548-84.98-85.405c0-47.1,38.314-85.423,85.414-85.423
			c1.493,0,2.961,0.117,4.438,0.217l1.268,0.083l11.245,0.751l5.106-10.044c21.289-41.852,63.583-67.846,110.366-67.846
			c58.002,0,108.912,41.127,121.059,97.794l2.712,12.663l12.931,0.81c35.903,2.235,64.033,32.142,64.033,68.087
			c0,37.562-30.458,68.139-67.973,68.338c-0.424-0.024-0.793-0.041-1.167-0.058l-17.451,0.058h-24.46v17.084h41.544v-0.059
			c0.393,0.008,0.776,0.059,1.169,0.059c47.164,0,85.421-38.239,85.421-85.422C449.92,235.82,414.517,198.824,369.862,196.046z"/>
            </g>
            <g>
                <path d="M155.213,298.921c-7.074,0-12.813,5.739-12.813,12.812c0,7.074,5.739,12.812,12.813,12.812
			c7.074,0,12.813-5.738,12.813-12.812C168.026,304.66,162.288,298.921,155.213,298.921z"/>
            </g>
            <g>
                <path d="M189.382,349.523c-7.074,0-12.813,5.738-12.813,12.812c0,7.073,5.74,12.812,12.813,12.812
			c7.074,0,12.813-5.739,12.813-12.812C202.195,355.264,196.457,349.523,189.382,349.523z"/>
            </g>
            <g>
                <path d="M257.721,349.523c-7.074,0-12.812,5.738-12.812,12.812c0,7.073,5.738,12.812,12.812,12.812
			c7.073,0,12.812-5.739,12.812-12.812C270.533,355.264,264.794,349.523,257.721,349.523z"/>
            </g>
            <g>
                <path d="M223.551,298.921c-7.074,0-12.813,5.739-12.813,12.812c0,7.074,5.74,12.812,12.813,12.812
			c7.075,0,12.814-5.738,12.814-12.812C236.365,304.66,230.626,298.921,223.551,298.921z"/>
            </g>
            <g>
                <path d="M291.889,298.921c-7.074,0-12.812,5.739-12.812,12.812c0,7.074,5.737,12.812,12.812,12.812
			c7.075,0,12.814-5.738,12.814-12.812C304.703,304.66,298.964,298.921,291.889,298.921z"/>
            </g>
            <g>
                <path d="M155.213,400.961c-7.074,0-12.813,5.739-12.813,12.813c0,7.071,5.739,12.812,12.813,12.812
			c7.074,0,12.813-5.739,12.813-12.812C168.026,406.7,162.288,400.961,155.213,400.961z"/>
            </g>
            <g>
                <path d="M223.551,400.961c-7.074,0-12.813,5.739-12.813,12.813c0,7.071,5.74,12.812,12.813,12.812
			c7.075,0,12.814-5.739,12.814-12.812C236.365,406.7,230.626,400.961,223.551,400.961z"/>
            </g>
            <g>
                <path d="M291.889,400.961c-7.074,0-12.812,5.739-12.812,12.813c0,7.071,5.737,12.812,12.812,12.812
			c7.075,0,12.814-5.739,12.814-12.812C304.703,406.7,298.964,400.961,291.889,400.961z"/>
            </g>
        </g>
    </symbol>
    <symbol id="1207" viewBox="-2.819 0 452.738 512">
        <g>
            <g>
                <path d="M369.862,196.046c-13.631-63.599-70.105-111.299-137.761-111.299c-54.866,0-102.308,31.416-125.589,77.18
			c-2.27-0.151-4.529-0.342-6.832-0.342c-56.609,0-102.499,45.89-102.499,102.508c0,56.441,45.614,102.205,101.981,102.489v0.025
			h17.61v-17.084h-13.706l-3.821-0.025c-46.857-0.232-84.98-38.548-84.98-85.405c0-47.1,38.314-85.423,85.414-85.423
			c1.493,0,2.961,0.117,4.438,0.217l1.268,0.083l11.245,0.751l5.106-10.044c21.289-41.852,63.583-67.846,110.366-67.846
			c58.002,0,108.912,41.127,121.059,97.794l2.712,12.663l12.931,0.81c35.903,2.235,64.033,32.142,64.033,68.087
			c0,37.562-30.458,68.139-67.973,68.338c-0.424-0.024-0.793-0.041-1.167-0.058l-17.451,0.058h-24.46v17.084h41.544v-0.059
			c0.393,0.008,0.776,0.059,1.169,0.059c47.164,0,85.421-38.239,85.421-85.422C449.92,235.82,414.517,198.824,369.862,196.046z"/>
            </g>
            <g>
                <path d="M155.213,298.921c-7.074,0-12.813,5.739-12.813,12.812c0,7.074,5.739,12.812,12.813,12.812
			c7.074,0,12.813-5.738,12.813-12.812C168.026,304.66,162.288,298.921,155.213,298.921z"/>
            </g>
            <g>
                <path d="M189.382,349.523c-7.074,0-12.813,5.738-12.813,12.812c0,7.073,5.74,12.812,12.813,12.812
			c7.074,0,12.813-5.739,12.813-12.812C202.195,355.264,196.457,349.523,189.382,349.523z"/>
            </g>
            <g>
                <path d="M257.721,349.523c-7.074,0-12.812,5.738-12.812,12.812c0,7.073,5.738,12.812,12.812,12.812
			c7.073,0,12.812-5.739,12.812-12.812C270.533,355.264,264.794,349.523,257.721,349.523z"/>
            </g>
            <g>
                <path d="M223.551,298.921c-7.074,0-12.813,5.739-12.813,12.812c0,7.074,5.74,12.812,12.813,12.812
			c7.075,0,12.814-5.738,12.814-12.812C236.365,304.66,230.626,298.921,223.551,298.921z"/>
            </g>
            <g>
                <path d="M291.889,298.921c-7.074,0-12.812,5.739-12.812,12.812c0,7.074,5.737,12.812,12.812,12.812
			c7.075,0,12.814-5.738,12.814-12.812C304.703,304.66,298.964,298.921,291.889,298.921z"/>
            </g>
            <g>
                <path d="M155.213,400.961c-7.074,0-12.813,5.739-12.813,12.813c0,7.071,5.739,12.812,12.813,12.812
			c7.074,0,12.813-5.739,12.813-12.812C168.026,406.7,162.288,400.961,155.213,400.961z"/>
            </g>
            <g>
                <path d="M223.551,400.961c-7.074,0-12.813,5.739-12.813,12.813c0,7.071,5.74,12.812,12.813,12.812
			c7.075,0,12.814-5.739,12.814-12.812C236.365,406.7,230.626,400.961,223.551,400.961z"/>
            </g>
            <g>
                <path d="M291.889,400.961c-7.074,0-12.812,5.739-12.812,12.813c0,7.071,5.737,12.812,12.812,12.812
			c7.075,0,12.814-5.739,12.814-12.812C304.703,406.7,298.964,400.961,291.889,400.961z"/>
            </g>
        </g>
    </symbol>
    <symbol id="1210" viewBox="9.996 0 427.114 512">
        <g>
            <path d="M364.598,220.605c-12.337-57.594-63.49-100.796-124.763-100.796c-15.366,0-30.09,2.736-43.721,7.724
		c-8.108-43.637-46.165-76.713-92.154-76.713c-3.529,0-6.999,0.234-10.436,0.609c6.356,9.501,10.069,20.913,10.069,33.193
		c0,33.018-26.769,59.795-59.795,59.795c-12.288,0-23.691-3.712-33.193-10.069c-0.375,3.429-0.609,6.907-0.609,10.436
		c0,31.716,15.758,59.688,39.816,76.705c-14.123,16.292-22.731,37.487-22.731,60.745c0,51.113,41.31,92.563,92.363,92.814v0.025
		h10.144V357.99h-6.156l-3.904-0.025c-41.552-0.199-75.362-34.176-75.362-75.729c0-41.769,33.977-75.753,75.746-75.753
		c1.285,0,2.552,0.1,3.82,0.191l1.269,0.084l11.228,0.726l5.097-10.036c19.003-37.347,56.751-60.555,98.511-60.555
		c51.778,0,97.228,36.714,108.054,87.291l2.721,12.671l12.931,0.801c31.675,1.969,56.483,28.354,56.483,60.055
		c0,33.126-26.854,60.096-59.938,60.279c-0.358-0.025-0.675-0.041-1.001-0.041l-15.941,0.041v17.085h15.541v-0.052
		c0.359,0.009,0.7,0.052,1.061,0.052c42.719,0,77.364-34.63,77.364-77.364C437.107,256.625,405.041,223.124,364.598,220.605z
		 M126.1,189.706c-2.061-0.133-4.104-0.309-6.189-0.309c-21.673,0-41.561,7.492-57.36,19.938
		c-17.185-11.054-29.781-28.646-33.96-49.343c4.971,1.001,10.061,1.51,15.208,1.51c42.394,0,76.88-34.486,76.88-76.88
		c0-5.147-0.509-10.235-1.51-15.208c31.892,6.432,56.626,32.667,60.939,65.26C156.932,147.011,138.012,166.273,126.1,189.706z"/>
            <polygon points="189.7,366.699 189.7,344.232 208.26,354.68 214.116,344.251 193.02,332.38 214.116,320.509 208.26,310.082
		189.7,320.525 189.7,298.361 172.615,298.361 172.615,320.902 153.387,310.082 147.531,320.509 168.627,332.38 147.531,344.251
		153.387,354.68 172.615,343.857 172.615,366.699 	"/>
            <polygon points="233.795,403.896 215.234,414.34 215.234,392.176 198.15,392.176 198.15,414.717 178.921,403.896 173.065,414.324
		194.163,426.195 173.065,438.066 178.921,448.493 198.15,437.674 198.15,460.514 215.234,460.514 215.234,438.049 233.795,448.493
		239.652,438.066 218.554,426.195 239.652,414.324 	"/>
            <polygon points="310.809,344.251 292.249,354.695 292.249,332.531 275.164,332.531 275.164,355.07 255.936,344.251 250.079,354.68
		271.176,366.549 250.079,378.42 255.936,388.848 275.164,378.027 275.164,400.869 292.249,400.869 292.249,378.404
		310.809,388.848 316.665,378.42 295.566,366.549 316.665,354.68 	"/>
        </g>
    </symbol>
    <symbol id="1213" viewBox="-2.819 0 452.738 512">
        <g>
            <path d="M369.862,183.308c-13.631-63.6-70.105-111.299-137.761-111.299c-54.866,0-102.308,31.416-125.589,77.18
		c-2.27-0.15-4.529-0.342-6.832-0.342c-56.609,0-102.499,45.89-102.499,102.507c0,56.442,45.614,102.207,101.981,102.49v0.025h17.61
		v-17.085h-13.706l-3.821-0.025c-46.857-0.233-84.98-38.548-84.98-85.405c0-47.099,38.314-85.422,85.414-85.422
		c1.493,0,2.961,0.117,4.438,0.217l1.268,0.084l11.245,0.75l5.106-10.043c21.289-41.852,63.583-67.846,110.366-67.846
		c58.002,0,108.912,41.126,121.059,97.793l2.712,12.663l12.931,0.81c35.903,2.236,64.033,32.142,64.033,68.088
		c0,37.563-30.458,68.137-67.973,68.337c-0.424-0.025-0.793-0.041-1.167-0.059l-17.451,0.059h-7.375v17.085h24.459v-0.06
		c0.393,0.01,0.776,0.06,1.169,0.06c47.164,0,85.421-38.24,85.421-85.422C449.92,223.083,414.517,186.085,369.862,183.308z"/>
            <polygon points="185.111,345.51 185.111,323.045 203.673,333.489 209.528,323.062 188.431,311.191 209.528,299.32 203.673,288.893
		185.111,299.338 185.111,277.172 168.026,277.172 168.026,299.713 148.798,288.893 142.942,299.32 164.04,311.191 142.942,323.062
		148.798,333.489 168.026,322.671 168.026,345.51 	"/>
            <polygon points="229.207,382.708 210.646,393.15 210.646,370.988 193.562,370.988 193.562,393.527 174.333,382.708
		168.477,393.136 189.574,405.006 168.477,416.876 174.333,427.304 193.562,416.485 193.562,439.326 210.646,439.326
		210.646,416.86 229.207,427.304 235.062,416.876 213.967,405.006 235.062,393.136 	"/>
            <polygon points="306.222,323.062 287.66,333.507 287.66,311.342 270.575,311.342 270.575,333.881 251.348,323.062 245.49,333.489
		266.587,345.359 245.49,357.23 251.348,367.659 270.575,356.839 270.575,379.68 287.66,379.68 287.66,357.215 306.222,367.659
		312.076,357.23 290.98,345.359 312.076,333.489 	"/>
        </g>
    </symbol>
    <symbol id="1216" viewBox="9.996 0 427.114 512">
        <g>
            <path d="M364.598,220.605c-12.337-57.594-63.49-100.796-124.763-100.796c-15.366,0-30.09,2.736-43.721,7.724
		c-8.108-43.637-46.165-76.713-92.154-76.713c-3.529,0-6.999,0.234-10.436,0.609c6.356,9.501,10.069,20.913,10.069,33.193
		c0,33.018-26.769,59.795-59.795,59.795c-12.288,0-23.691-3.712-33.193-10.069c-0.375,3.429-0.609,6.907-0.609,10.436
		c0,31.716,15.758,59.688,39.816,76.705c-14.123,16.292-22.731,37.487-22.731,60.745c0,51.113,41.31,92.563,92.363,92.814v0.025
		h10.144V357.99h-6.156l-3.904-0.025c-41.552-0.199-75.362-34.176-75.362-75.729c0-41.769,33.977-75.753,75.746-75.753
		c1.285,0,2.552,0.1,3.82,0.191l1.269,0.084l11.228,0.726l5.097-10.036c19.003-37.347,56.751-60.555,98.511-60.555
		c51.778,0,97.228,36.714,108.054,87.291l2.721,12.671l12.931,0.801c31.675,1.969,56.483,28.354,56.483,60.055
		c0,33.126-26.854,60.096-59.938,60.279c-0.358-0.025-0.675-0.041-1.001-0.041l-15.941,0.041v17.085h15.541v-0.052
		c0.359,0.009,0.7,0.052,1.061,0.052c42.719,0,77.364-34.63,77.364-77.364C437.107,256.625,405.041,223.124,364.598,220.605z
		 M126.1,189.706c-2.061-0.133-4.104-0.309-6.189-0.309c-21.673,0-41.561,7.492-57.36,19.938
		c-17.185-11.054-29.781-28.646-33.96-49.343c4.971,1.001,10.061,1.51,15.208,1.51c42.394,0,76.88-34.486,76.88-76.88
		c0-5.147-0.509-10.235-1.51-15.208c31.892,6.432,56.626,32.667,60.939,65.26C156.932,147.011,138.012,166.273,126.1,189.706z"/>
            <polygon points="189.7,366.699 189.7,344.232 208.26,354.68 214.116,344.251 193.02,332.38 214.116,320.509 208.26,310.082
		189.7,320.525 189.7,298.361 172.615,298.361 172.615,320.902 153.387,310.082 147.531,320.509 168.627,332.38 147.531,344.251
		153.387,354.68 172.615,343.857 172.615,366.699 	"/>
            <polygon points="233.795,403.896 215.234,414.34 215.234,392.176 198.15,392.176 198.15,414.717 178.921,403.896 173.065,414.324
		194.163,426.195 173.065,438.066 178.921,448.493 198.15,437.674 198.15,460.514 215.234,460.514 215.234,438.049 233.795,448.493
		239.652,438.066 218.554,426.195 239.652,414.324 	"/>
            <polygon points="310.809,344.251 292.249,354.695 292.249,332.531 275.164,332.531 275.164,355.07 255.936,344.251 250.079,354.68
		271.176,366.549 250.079,378.42 255.936,388.848 275.164,378.027 275.164,400.869 292.249,400.869 292.249,378.404
		310.809,388.848 316.665,378.42 295.566,366.549 316.665,354.68 	"/>
        </g>
    </symbol>
    <symbol id="1219" viewBox="-2.819 0 452.738 512">
        <g>
            <g>
                <path d="M369.862,196.046c-13.631-63.599-70.105-111.299-137.761-111.299c-54.866,0-102.308,31.416-125.589,77.18
			c-2.27-0.151-4.529-0.342-6.832-0.342c-56.609,0-102.499,45.89-102.499,102.508c0,56.441,45.614,102.205,101.981,102.489v0.025
			h17.61v-17.084h-13.706l-3.821-0.025c-46.857-0.232-84.98-38.548-84.98-85.405c0-47.1,38.314-85.423,85.414-85.423
			c1.493,0,2.961,0.117,4.438,0.217l1.268,0.083l11.245,0.751l5.106-10.044c21.289-41.852,63.583-67.846,110.366-67.846
			c58.002,0,108.912,41.127,121.059,97.794l2.712,12.663l12.931,0.81c35.903,2.235,64.033,32.142,64.033,68.087
			c0,37.562-30.458,68.139-67.973,68.338c-0.424-0.024-0.793-0.041-1.167-0.058l-17.451,0.058h-24.46v17.084h41.544v-0.059
			c0.393,0.008,0.776,0.059,1.169,0.059c47.164,0,85.421-38.239,85.421-85.422C449.92,235.82,414.517,198.824,369.862,196.046z"/>
            </g>
            <g>
                <path d="M155.213,298.921c-7.074,0-12.813,5.739-12.813,12.812c0,7.074,5.739,12.812,12.813,12.812
			c7.074,0,12.813-5.738,12.813-12.812C168.026,304.66,162.288,298.921,155.213,298.921z"/>
            </g>
            <g>
                <path d="M189.382,349.523c-7.074,0-12.813,5.738-12.813,12.812c0,7.073,5.74,12.812,12.813,12.812
			c7.074,0,12.813-5.739,12.813-12.812C202.195,355.264,196.457,349.523,189.382,349.523z"/>
            </g>
            <g>
                <path d="M257.721,349.523c-7.074,0-12.812,5.738-12.812,12.812c0,7.073,5.738,12.812,12.812,12.812
			c7.073,0,12.812-5.739,12.812-12.812C270.533,355.264,264.794,349.523,257.721,349.523z"/>
            </g>
            <g>
                <path d="M223.551,298.921c-7.074,0-12.813,5.739-12.813,12.812c0,7.074,5.74,12.812,12.813,12.812
			c7.075,0,12.814-5.738,12.814-12.812C236.365,304.66,230.626,298.921,223.551,298.921z"/>
            </g>
            <g>
                <path d="M291.889,298.921c-7.074,0-12.812,5.739-12.812,12.812c0,7.074,5.737,12.812,12.812,12.812
			c7.075,0,12.814-5.738,12.814-12.812C304.703,304.66,298.964,298.921,291.889,298.921z"/>
            </g>
            <g>
                <path d="M155.213,400.961c-7.074,0-12.813,5.739-12.813,12.813c0,7.071,5.739,12.812,12.813,12.812
			c7.074,0,12.813-5.739,12.813-12.812C168.026,406.7,162.288,400.961,155.213,400.961z"/>
            </g>
            <g>
                <path d="M223.551,400.961c-7.074,0-12.813,5.739-12.813,12.813c0,7.071,5.74,12.812,12.813,12.812
			c7.075,0,12.814-5.739,12.814-12.812C236.365,406.7,230.626,400.961,223.551,400.961z"/>
            </g>
            <g>
                <path d="M291.889,400.961c-7.074,0-12.812,5.739-12.812,12.813c0,7.071,5.737,12.812,12.812,12.812
			c7.075,0,12.814-5.739,12.814-12.812C304.703,406.7,298.964,400.961,291.889,400.961z"/>
            </g>
        </g>
    </symbol>
    <symbol id="1222" viewBox="9.996 0 427.114 512">
        <g>
            <path d="M364.598,220.605c-12.337-57.594-63.49-100.796-124.763-100.796c-15.366,0-30.09,2.736-43.721,7.724
		c-8.108-43.637-46.165-76.713-92.154-76.713c-3.529,0-6.999,0.234-10.436,0.609c6.356,9.501,10.069,20.913,10.069,33.193
		c0,33.018-26.769,59.795-59.795,59.795c-12.288,0-23.691-3.712-33.193-10.069c-0.375,3.429-0.609,6.907-0.609,10.436
		c0,31.716,15.758,59.688,39.816,76.705c-14.123,16.292-22.731,37.487-22.731,60.745c0,51.113,41.31,92.563,92.363,92.814v0.025
		h10.144V357.99h-6.156l-3.904-0.025c-41.552-0.199-75.362-34.176-75.362-75.729c0-41.769,33.977-75.753,75.746-75.753
		c1.285,0,2.552,0.1,3.82,0.191l1.269,0.084l11.228,0.726l5.097-10.036c19.003-37.347,56.751-60.555,98.511-60.555
		c51.778,0,97.228,36.714,108.054,87.291l2.721,12.671l12.931,0.801c31.675,1.969,56.483,28.354,56.483,60.055
		c0,33.126-26.854,60.096-59.938,60.279c-0.358-0.025-0.675-0.041-1.001-0.041l-15.941,0.041v17.085h15.541v-0.052
		c0.359,0.009,0.7,0.052,1.061,0.052c42.719,0,77.364-34.63,77.364-77.364C437.107,256.625,405.041,223.124,364.598,220.605z
		 M126.1,189.706c-2.061-0.133-4.104-0.309-6.189-0.309c-21.673,0-41.561,7.492-57.36,19.938
		c-17.185-11.054-29.781-28.646-33.96-49.343c4.971,1.001,10.061,1.51,15.208,1.51c42.394,0,76.88-34.486,76.88-76.88
		c0-5.147-0.509-10.235-1.51-15.208c31.892,6.432,56.626,32.667,60.939,65.26C156.932,147.011,138.012,166.273,126.1,189.706z"/>
            <polygon points="189.7,366.699 189.7,344.232 208.26,354.68 214.116,344.251 193.02,332.38 214.116,320.509 208.26,310.082
		189.7,320.525 189.7,298.361 172.615,298.361 172.615,320.902 153.387,310.082 147.531,320.509 168.627,332.38 147.531,344.251
		153.387,354.68 172.615,343.857 172.615,366.699 	"/>
            <polygon points="233.795,403.896 215.234,414.34 215.234,392.176 198.15,392.176 198.15,414.717 178.921,403.896 173.065,414.324
		194.163,426.195 173.065,438.066 178.921,448.493 198.15,437.674 198.15,460.514 215.234,460.514 215.234,438.049 233.795,448.493
		239.652,438.066 218.554,426.195 239.652,414.324 	"/>
            <polygon points="310.809,344.251 292.249,354.695 292.249,332.531 275.164,332.531 275.164,355.07 255.936,344.251 250.079,354.68
		271.176,366.549 250.079,378.42 255.936,388.848 275.164,378.027 275.164,400.869 292.249,400.869 292.249,378.404
		310.809,388.848 316.665,378.42 295.566,366.549 316.665,354.68 	"/>
        </g>
    </symbol>
    <symbol id="1225" viewBox="-2.819 0 452.738 512">
        <g>
            <path d="M369.862,183.308c-13.631-63.6-70.105-111.299-137.761-111.299c-54.866,0-102.308,31.416-125.589,77.18
		c-2.27-0.15-4.529-0.342-6.832-0.342c-56.609,0-102.499,45.89-102.499,102.507c0,56.442,45.614,102.207,101.981,102.49v0.025h17.61
		v-17.085h-13.706l-3.821-0.025c-46.857-0.233-84.98-38.548-84.98-85.405c0-47.099,38.314-85.422,85.414-85.422
		c1.493,0,2.961,0.117,4.438,0.217l1.268,0.084l11.245,0.75l5.106-10.043c21.289-41.852,63.583-67.846,110.366-67.846
		c58.002,0,108.912,41.126,121.059,97.793l2.712,12.663l12.931,0.81c35.903,2.236,64.033,32.142,64.033,68.088
		c0,37.563-30.458,68.137-67.973,68.337c-0.424-0.025-0.793-0.041-1.167-0.059l-17.451,0.059h-7.375v17.085h24.459v-0.06
		c0.393,0.01,0.776,0.06,1.169,0.06c47.164,0,85.421-38.24,85.421-85.422C449.92,223.083,414.517,186.085,369.862,183.308z"/>
            <polygon points="185.111,345.51 185.111,323.045 203.673,333.489 209.528,323.062 188.431,311.191 209.528,299.32 203.673,288.893
		185.111,299.338 185.111,277.172 168.026,277.172 168.026,299.713 148.798,288.893 142.942,299.32 164.04,311.191 142.942,323.062
		148.798,333.489 168.026,322.671 168.026,345.51 	"/>
            <polygon points="229.207,382.708 210.646,393.15 210.646,370.988 193.562,370.988 193.562,393.527 174.333,382.708
		168.477,393.136 189.574,405.006 168.477,416.876 174.333,427.304 193.562,416.485 193.562,439.326 210.646,439.326
		210.646,416.86 229.207,427.304 235.062,416.876 213.967,405.006 235.062,393.136 	"/>
            <polygon points="306.222,323.062 287.66,333.507 287.66,311.342 270.575,311.342 270.575,333.881 251.348,323.062 245.49,333.489
		266.587,345.359 245.49,357.23 251.348,367.659 270.575,356.839 270.575,379.68 287.66,379.68 287.66,357.215 306.222,367.659
		312.076,357.23 290.98,345.359 312.076,333.489 	"/>
        </g>
    </symbol>
    <symbol id="1237" viewBox="-2.819 0 452.738 512">
        <g>
            <path d="M369.862,161.952c-13.631-63.6-70.105-111.299-137.761-111.299c-54.866,0-102.308,31.416-125.589,77.18
		c-2.27-0.15-4.529-0.342-6.832-0.342c-56.609,0-102.499,45.89-102.499,102.507c0,56.441,45.614,102.207,101.981,102.49v0.025h17.61
		V315.43h-13.706l-3.821-0.025c-46.857-0.233-84.98-38.547-84.98-85.406c0-47.1,38.314-85.422,85.414-85.422
		c1.493,0,2.961,0.117,4.438,0.216l1.268,0.083l11.245,0.751l5.106-10.044c21.289-41.852,63.583-67.845,110.366-67.845
		c58.002,0,108.912,41.126,121.059,97.793l2.712,12.664l12.931,0.809c35.903,2.236,64.033,32.143,64.033,68.088
		c0,37.563-30.458,68.138-67.973,68.341c-0.424-0.025-0.793-0.043-1.167-0.06l-17.451,0.06h-24.46v17.082h41.544v-0.058
		c0.393,0.008,0.776,0.058,1.169,0.058c47.164,0,85.421-38.24,85.421-85.423C449.92,201.727,414.517,164.73,369.862,161.952z"/>
            <path d="M150.942,383.801c-7.074,0-12.813,5.739-12.813,12.812c0,7.074,5.739,12.812,12.813,12.812
		c7.074,0,12.813-5.739,12.813-12.812S158.016,383.801,150.942,383.801z"/>
            <path d="M219.28,435.055c-7.074,0-12.813,5.739-12.813,12.812c0,7.074,5.739,12.812,12.813,12.812
		c7.076,0,12.813-5.738,12.813-12.812C232.094,440.794,226.355,435.055,219.28,435.055z"/>
            <path d="M287.618,400.885c-7.075,0-12.813,5.739-12.813,12.813c0,7.075,5.738,12.813,12.813,12.813
		c7.073,0,12.813-5.738,12.813-12.813C300.434,406.624,294.691,400.885,287.618,400.885z"/>
            <rect x="142.4" y="255.875" width="17.084" height="102.297"/>
            <polygon points="227.822,409.127 227.822,392.551 227.822,290.044 210.738,290.044 210.738,392.551 210.738,409.127
		210.738,409.427 227.822,409.427 	"/>
            <polygon points="296.16,373.355 296.16,358.384 296.16,255.875 279.076,255.875 279.076,358.384 279.076,373.355 279.076,375.26
		296.16,375.26 	"/>
        </g>
    </symbol>
    <symbol id="1240" viewBox="9.996 0 427.114 512">
        <g>
            <path d="M364.598,218.461c-12.337-57.594-63.49-100.796-124.763-100.796c-15.366,0-30.09,2.736-43.721,7.725
		c-8.108-43.637-46.165-76.713-92.154-76.713c-3.529,0-6.999,0.233-10.436,0.609c6.356,9.501,10.069,20.914,10.069,33.193
		c0,33.018-26.769,59.796-59.795,59.796c-12.288,0-23.691-3.712-33.193-10.069c-0.375,3.429-0.609,6.908-0.609,10.436
		c0,31.708,15.758,59.688,39.816,76.706c-14.123,16.292-22.731,37.491-22.731,60.748c0,51.11,41.31,92.562,92.363,92.813v0.024
		h10.144v-17.086h-6.156l-3.904-0.022c-41.552-0.2-75.362-34.179-75.362-75.729c0-41.77,33.977-75.755,75.746-75.755
		c1.285,0,2.552,0.1,3.82,0.192l1.269,0.083l11.228,0.726l5.097-10.035c19.003-37.347,56.751-60.555,98.511-60.555
		c51.778,0,97.228,36.713,108.054,87.292l2.721,12.671l12.931,0.801c31.675,1.969,56.483,28.355,56.483,60.054
		c0,33.127-26.854,60.097-59.938,60.279c-0.358-0.023-0.675-0.041-1.001-0.041l-17.484,0.041h-7v17.086h24.084v-0.052
		c0.359,0.009,0.7,0.052,1.061,0.052c42.719,0,77.364-34.629,77.364-77.365C437.107,254.482,405.041,220.98,364.598,218.461z
		 M126.1,187.562c-2.061-0.133-4.104-0.308-6.189-0.308c-21.673,0-41.561,7.482-57.36,19.937
		c-17.185-11.052-29.789-28.646-33.96-49.342c4.971,1.001,10.061,1.509,15.208,1.509c42.394,0,76.88-34.486,76.88-76.88
		c0-5.147-0.509-10.236-1.51-15.208c31.892,6.432,56.626,32.667,60.93,65.268C156.94,144.868,138.021,164.138,126.1,187.562z"/>
            <rect x="223.551" y="373.062" width="17.085" height="34.172"/>
            <rect x="291.889" y="338.712" width="17.086" height="34.353"/>
            <rect x="155.213" y="338.712" width="17.085" height="34.353"/>
            <path d="M300.434,403.138c-7.066,0-12.814,5.729-12.814,12.813c0,7.082,5.748,12.812,12.814,12.812
		c7.064,0,12.812-5.73,12.812-12.812C313.245,408.867,307.498,403.138,300.434,403.138z"/>
            <path d="M232.094,437.039c-7.066,0-12.813,5.732-12.813,12.812c0,7.084,5.747,12.813,12.813,12.813
		c7.065,0,12.813-5.729,12.813-12.813C244.907,442.771,239.159,437.039,232.094,437.039z"/>
            <path d="M163.755,402.778c-7.066,0-12.813,5.73-12.813,12.813c0,7.081,5.747,12.812,12.813,12.812
		c7.065,0,12.813-5.731,12.813-12.812C176.569,408.51,170.821,402.778,163.755,402.778z"/>
        </g>
    </symbol>
    <symbol id="1243" viewBox="0 0 427.1 512">
        <g>
            <path d="M354.6,199.1c-12.3-57.6-63.5-100.8-124.8-100.8c-15.4,0-30.1,2.7-43.7,7.7C178,62.4,140,29.3,94,29.3
		c-3.5,0-7,0.2-10.4,0.6c6.3,9.5,10.1,20.9,10.1,33.2c0,33-26.8,59.8-59.8,59.8c-12.3,0-23.7-3.7-33.2-10.1
		c-0.4,3.4-0.6,6.9-0.6,10.4C0,155,15.8,183,39.8,200c-14.1,16.3-22.7,37.5-22.7,60.7c0,51.1,41.3,92.6,92.4,92.8v0h3.1v-17.1l-3,0
		c-41.6-0.2-75.4-34.2-75.4-75.7c0-41.8,34-75.8,75.8-75.8c1.3,0,2.5,0.1,3.8,0.2l1.3,0.1l11.2,0.7l5.1-10
		c19-37.3,56.8-60.5,98.5-60.5c51.8,0,97.2,36.7,108,87.3l2.7,12.7l12.9,0.8c31.7,2,56.5,28.4,56.5,60.1c0,33.1-26.9,60.1-59.9,60.3
		c-0.4,0-0.7,0-1,0l-17.5,0h-7v17.1h24.1v0c0.4,0,0.7,0,1.1,0c42.7,0,77.4-34.6,77.4-77.4C427.1,235.2,395,201.7,354.6,199.1z
		 M116.1,168.2c-2.1-0.1-4.1-0.3-6.2-0.3c-21.7,0-41.6,7.5-57.4,19.9c-17.2-11-29.8-28.6-34-49.3c5,1,10.1,1.5,15.2,1.5
		c42.4,0,76.9-34.5,76.9-76.9c0-5.2-0.5-10.2-1.5-15.2c31.9,6.4,56.6,32.7,60.9,65.3C146.9,125.5,128,144.8,116.1,168.2z"/>
        </g>
        <polygon points="253.6,383.5 194.9,299.6 180.9,309.4 239.7,393.3 249.2,406.9 278.8,449.3 292.8,439.5 263.2,397.1 "/>
        <polygon points="322,383.5 263.2,299.6 249.2,309.4 308,393.3 316.6,405.6 347.2,449.3 361.2,439.5 330.6,395.8 "/>
        <polygon points="185.3,383.5 126.5,299.6 112.5,309.4 171.3,393.3 181.4,407.8 210.5,449.3 224.5,439.5 195.4,398 "/>
    </symbol>
    <symbol id="1246" viewBox="0 0 427.1 512">
        <g>
            <path d="M354.6,199.1c-12.3-57.6-63.5-100.8-124.8-100.8c-15.4,0-30.1,2.7-43.7,7.7C178,62.4,140,29.3,94,29.3
		c-3.5,0-7,0.2-10.4,0.6c6.3,9.5,10.1,20.9,10.1,33.2c0,33-26.8,59.8-59.8,59.8c-12.3,0-23.7-3.7-33.2-10.1
		c-0.4,3.4-0.6,6.9-0.6,10.4C0,155,15.8,183,39.8,200c-14.1,16.3-22.7,37.5-22.7,60.7c0,45.9,33.3,84.1,77.2,91.5v-17.4
		c-34.2-7.3-60-37.8-60-74c0-41.8,34-75.8,75.8-75.8c1.3,0,2.5,0.1,3.8,0.2l1.3,0.1l11.2,0.7l5.1-10c19-37.3,56.8-60.5,98.5-60.5
		c51.8,0,97.2,36.7,108,87.3l2.7,12.7l12.9,0.8c31.7,2,56.5,28.4,56.5,60.1c0,28.9-20.4,53.1-47.5,58.9v17.4
		c36.7-6,64.7-37.9,64.7-76.4C427.1,235.2,395,201.7,354.6,199.1z M116.1,168.2c-2.1-0.1-4.1-0.3-6.2-0.3
		c-21.7,0-41.6,7.5-57.4,19.9c-17.2-11-29.8-28.6-34-49.3c5,1,10.1,1.5,15.2,1.5c42.4,0,76.9-34.5,76.9-76.9
		c0-5.2-0.5-10.2-1.5-15.2c31.9,6.4,56.6,32.7,60.9,65.3C146.9,125.5,128,144.8,116.1,168.2z"/>
        </g>
        <polygon points="231.6,383.5 172.9,299.6 158.9,309.4 217.7,393.3 227.2,406.9 256.8,449.3 270.8,439.5 241.2,397.1 "/>
        <polygon points="368.3,383.5 309.6,299.6 295.6,309.4 354.4,393.3 363.9,406.9 393.5,449.3 407.5,439.5 377.9,397.1 "/>
        <polygon points="300,383.5 241.2,299.6 227.2,309.4 286,393.3 294.6,405.6 325.2,449.3 339.2,439.5 308.6,395.8 "/>
        <polygon points="163.3,383.5 104.5,299.6 90.5,309.4 149.3,393.3 159.4,407.8 188.5,449.3 202.5,439.5 173.4,398 "/>
    </symbol>
    <symbol id="1249" viewBox="0 0 452.7 512">
        <g>
            <path d="M372.7,161.9C359,98.3,302.6,50.6,234.9,50.6c-54.9,0-102.3,31.4-125.6,77.2c-2.3-0.2-4.5-0.3-6.8-0.3
		C45.9,127.4,0,173.3,0,229.9c0,56.4,45.6,102.2,102,102.5v0h17.6v-17.1h-13.7l-3.8,0c-46.9-0.2-85-38.5-85-85.4
		c0-47.1,38.3-85.4,85.4-85.4c1.5,0,3,0.1,4.4,0.2l1.3,0.1l11.2,0.8l5.1-10c21.3-41.9,63.6-67.8,110.4-67.8
		c58,0,108.9,41.1,121.1,97.8l2.7,12.7l12.9,0.8c35.9,2.2,64,32.1,64,68.1c0,37.6-30.5,68.1-68,68.3c-0.4,0-0.8,0-1.2-0.1l-17.5,0.1
		h-24.5v17.1h41.5v-0.1c0.4,0,0.8,0.1,1.2,0.1c47.2,0,85.4-38.2,85.4-85.4C452.7,201.6,417.3,164.6,372.7,161.9z"/>
            <polygon points="213.6,392.5 213.6,409 213.6,460.8 230.6,460.8 230.6,409 230.6,392.5 230.6,289.9 213.6,289.9 	"/>
            <polygon points="281.9,358.3 281.9,373.3 281.9,426.6 299,426.6 299,373.3 299,358.3 299,255.8 281.9,255.8 	"/>
            <polygon points="145.2,358.3 145.2,375.9 145.2,426.6 162.3,426.6 162.3,375.9 162.3,358.3 162.3,255.8 145.2,255.8 	"/>
        </g>
        <polygon points="360.9,416.6 360.9,394.2 379.5,404.6 385.3,394.2 364.2,382.4 385.3,370.5 379.5,360.1 360.9,370.5 360.9,348.4
	343.8,348.4 343.8,370.9 324.6,360.1 318.7,370.5 339.8,382.4 318.7,394.2 324.6,404.6 343.8,393.9 343.8,416.6 "/>
    </symbol>
    <symbol id="1252" viewBox="0 0 452.7 512">
        <g>
            <polygon points="277.8,379.4 219,295.4 205,305.2 263.8,389.2 273.3,402.8 303,445.2 317,435.4 287.3,393 	"/>
            <polygon points="346.2,379.4 287.3,295.4 273.4,305.2 332.2,389.2 340.8,401.5 371.4,445.1 385.4,435.4 354.8,391.6 	"/>
            <polygon points="209.5,379.4 150.7,295.4 136.7,305.2 195.5,389.2 205.6,403.7 234.7,445.2 248.7,435.4 219.6,393.9 	"/>
            <path d="M372.7,177.5C359,113.9,302.6,66.2,234.9,66.2c-54.9,0-102.3,31.4-125.6,77.2c-2.3-0.1-4.5-0.3-6.8-0.3
		C45.9,143,0,188.9,0,245.5C0,301.9,45.6,347.7,102,348v0h17.6v-17.1h-13.7l-3.8,0c-46.9-0.2-85-38.5-85-85.4
		c0-47.1,38.3-85.4,85.4-85.4c1.5,0,3,0.1,4.4,0.2l1.3,0.1l11.2,0.8l5.1-10c21.3-41.9,63.6-67.8,110.4-67.8
		c58,0,108.9,41.1,121.1,97.8l2.7,12.7l12.9,0.8c35.9,2.2,64,32.1,64,68.1c0,37.6-30.5,68.1-68,68.3c-0.4,0-0.8,0-1.2-0.1l-8.9,0.1
		h1.2V348h7.4V348c0.4,0,0.8,0.1,1.2,0.1c47.2,0,85.4-38.2,85.4-85.4C452.7,217.2,417.3,180.2,372.7,177.5z"/>
        </g>
        <polygon points="112.3,434.9 112.3,412.5 130.9,422.9 136.7,412.5 115.6,400.6 136.7,388.7 130.9,378.3 112.3,388.7 112.3,366.6
	95.2,366.6 95.2,389.1 76,378.3 70.1,388.7 91.2,400.6 70.1,412.5 76,422.9 95.2,412.1 95.2,434.9 "/>
    </symbol>
    <symbol id="1255" viewBox="9.996 0 427.114 512">
        <g>
            <path d="M364.598,220.605c-12.337-57.594-63.49-100.796-124.763-100.796c-15.366,0-30.09,2.736-43.721,7.724
		c-8.108-43.637-46.165-76.713-92.154-76.713c-3.529,0-6.999,0.234-10.436,0.609c6.356,9.501,10.069,20.913,10.069,33.193
		c0,33.018-26.769,59.795-59.795,59.795c-12.288,0-23.691-3.712-33.193-10.069c-0.375,3.429-0.609,6.907-0.609,10.436
		c0,31.716,15.758,59.688,39.816,76.705c-14.123,16.292-22.731,37.487-22.731,60.745c0,51.113,41.31,92.563,92.363,92.814v0.025
		h10.144V357.99h-6.156l-3.904-0.025c-41.552-0.199-75.362-34.176-75.362-75.729c0-41.769,33.977-75.753,75.746-75.753
		c1.285,0,2.552,0.1,3.82,0.191l1.269,0.084l11.228,0.726l5.097-10.036c19.003-37.347,56.751-60.555,98.511-60.555
		c51.778,0,97.228,36.714,108.054,87.291l2.721,12.671l12.931,0.801c31.675,1.969,56.483,28.354,56.483,60.055
		c0,33.126-26.854,60.096-59.938,60.279c-0.358-0.025-0.675-0.041-1.001-0.041l-15.941,0.041v17.085h15.541v-0.052
		c0.359,0.009,0.7,0.052,1.061,0.052c42.719,0,77.364-34.63,77.364-77.364C437.107,256.625,405.041,223.124,364.598,220.605z
		 M126.1,189.706c-2.061-0.133-4.104-0.309-6.189-0.309c-21.673,0-41.561,7.492-57.36,19.938
		c-17.185-11.054-29.781-28.646-33.96-49.343c4.971,1.001,10.061,1.51,15.208,1.51c42.394,0,76.88-34.486,76.88-76.88
		c0-5.147-0.509-10.235-1.51-15.208c31.892,6.432,56.626,32.667,60.939,65.26C156.932,147.011,138.012,166.273,126.1,189.706z"/>
            <polygon points="189.7,366.699 189.7,344.232 208.26,354.68 214.116,344.251 193.02,332.38 214.116,320.509 208.26,310.082
		189.7,320.525 189.7,298.361 172.615,298.361 172.615,320.902 153.387,310.082 147.531,320.509 168.627,332.38 147.531,344.251
		153.387,354.68 172.615,343.857 172.615,366.699 	"/>
            <polygon points="233.795,403.896 215.234,414.34 215.234,392.176 198.15,392.176 198.15,414.717 178.921,403.896 173.065,414.324
		194.163,426.195 173.065,438.066 178.921,448.493 198.15,437.674 198.15,460.514 215.234,460.514 215.234,438.049 233.795,448.493
		239.652,438.066 218.554,426.195 239.652,414.324 	"/>
            <polygon points="310.809,344.251 292.249,354.695 292.249,332.531 275.164,332.531 275.164,355.07 255.936,344.251 250.079,354.68
		271.176,366.549 250.079,378.42 255.936,388.848 275.164,378.027 275.164,400.869 292.249,400.869 292.249,378.404
		310.809,388.848 316.665,378.42 295.566,366.549 316.665,354.68 	"/>
        </g>
    </symbol>
    <symbol id="1258" viewBox="9.996 0 427.114 512">
        <g>
            <path d="M364.598,220.605c-12.337-57.594-63.49-100.796-124.763-100.796c-15.366,0-30.09,2.736-43.721,7.724
		c-8.108-43.637-46.165-76.713-92.154-76.713c-3.529,0-6.999,0.234-10.436,0.609c6.356,9.501,10.069,20.913,10.069,33.193
		c0,33.018-26.769,59.795-59.795,59.795c-12.288,0-23.691-3.712-33.193-10.069c-0.375,3.429-0.609,6.907-0.609,10.436
		c0,31.716,15.758,59.688,39.816,76.705c-14.123,16.292-22.731,37.487-22.731,60.745c0,51.113,41.31,92.563,92.363,92.814v0.025
		h10.144V357.99h-6.156l-3.904-0.025c-41.552-0.199-75.362-34.176-75.362-75.729c0-41.769,33.977-75.753,75.746-75.753
		c1.285,0,2.552,0.1,3.82,0.191l1.269,0.084l11.228,0.726l5.097-10.036c19.003-37.347,56.751-60.555,98.511-60.555
		c51.778,0,97.228,36.714,108.054,87.291l2.721,12.671l12.931,0.801c31.675,1.969,56.483,28.354,56.483,60.055
		c0,33.126-26.854,60.096-59.938,60.279c-0.358-0.025-0.675-0.041-1.001-0.041l-15.941,0.041v17.085h15.541v-0.052
		c0.359,0.009,0.7,0.052,1.061,0.052c42.719,0,77.364-34.63,77.364-77.364C437.107,256.625,405.041,223.124,364.598,220.605z
		 M126.1,189.706c-2.061-0.133-4.104-0.309-6.189-0.309c-21.673,0-41.561,7.492-57.36,19.938
		c-17.185-11.054-29.781-28.646-33.96-49.343c4.971,1.001,10.061,1.51,15.208,1.51c42.394,0,76.88-34.486,76.88-76.88
		c0-5.147-0.509-10.235-1.51-15.208c31.892,6.432,56.626,32.667,60.939,65.26C156.932,147.011,138.012,166.273,126.1,189.706z"/>
            <polygon points="189.7,366.699 189.7,344.232 208.26,354.68 214.116,344.251 193.02,332.38 214.116,320.509 208.26,310.082
		189.7,320.525 189.7,298.361 172.615,298.361 172.615,320.902 153.387,310.082 147.531,320.509 168.627,332.38 147.531,344.251
		153.387,354.68 172.615,343.857 172.615,366.699 	"/>
            <polygon points="233.795,403.896 215.234,414.34 215.234,392.176 198.15,392.176 198.15,414.717 178.921,403.896 173.065,414.324
		194.163,426.195 173.065,438.066 178.921,448.493 198.15,437.674 198.15,460.514 215.234,460.514 215.234,438.049 233.795,448.493
		239.652,438.066 218.554,426.195 239.652,414.324 	"/>
            <polygon points="310.809,344.251 292.249,354.695 292.249,332.531 275.164,332.531 275.164,355.07 255.936,344.251 250.079,354.68
		271.176,366.549 250.079,378.42 255.936,388.848 275.164,378.027 275.164,400.869 292.249,400.869 292.249,378.404
		310.809,388.848 316.665,378.42 295.566,366.549 316.665,354.68 	"/>
        </g>
    </symbol>
    <symbol id="1261" viewBox="9.996 0 427.114 512">
        <g>
            <path d="M364.598,195.028c-12.337-57.593-63.49-100.796-124.763-100.796c-15.366,0-30.09,2.736-43.721,7.725
		c-8.108-43.637-46.165-76.713-92.154-76.713c-3.529,0-6.999,0.233-10.436,0.608c6.356,9.502,10.069,20.914,10.069,33.193
		c0,33.018-26.769,59.796-59.795,59.796c-12.288,0-23.691-3.712-33.193-10.069c-0.375,3.428-0.609,6.907-0.609,10.435
		c0,31.708,15.758,59.688,39.816,76.705c-14.123,16.292-22.731,37.49-22.731,60.748c0,51.111,41.31,92.562,92.363,92.812v0.024
		h10.144v-17.083h-6.156l-3.904-0.025c-41.552-0.199-75.362-34.179-75.362-75.729c0-41.77,33.977-75.755,75.746-75.755
		c1.285,0,2.552,0.1,3.82,0.192l1.269,0.083l11.228,0.726l5.097-10.036c19.003-37.347,56.751-60.555,98.511-60.555
		c51.778,0,97.228,36.713,108.054,87.291l2.721,12.672l12.931,0.8c31.675,1.969,56.483,28.355,56.483,60.055
		c0,33.126-26.854,60.096-59.938,60.281c-0.358-0.025-0.675-0.043-1.001-0.043l-17.484,0.043h-7v17.083h24.084v-0.05
		c0.359,0.008,0.7,0.05,1.061,0.05c42.719,0,77.364-34.627,77.364-77.364C437.107,231.049,405.041,197.547,364.598,195.028z
		 M126.1,164.129c-2.061-0.133-4.104-0.308-6.189-0.308c-21.673,0-41.561,7.483-57.36,19.937
		c-17.185-11.052-29.789-28.646-33.96-49.342c4.971,1.001,10.061,1.509,15.208,1.509c42.394,0,76.88-34.486,76.88-76.88
		c0-5.147-0.509-10.236-1.51-15.207c31.892,6.431,56.626,32.667,60.93,65.259C156.94,121.435,138.021,140.696,126.1,164.129z"/>
            <path d="M163.755,409.219c-7.074,0-12.813,5.739-12.813,12.812c0,7.075,5.739,12.813,12.813,12.813
		c7.074,0,12.813-5.738,12.813-12.813C176.569,414.958,170.83,409.219,163.755,409.219z"/>
            <path d="M232.094,460.472c-7.074,0-12.813,5.74-12.813,12.813c0,7.074,5.739,12.812,12.813,12.812s12.813-5.738,12.813-12.812
		C244.907,466.212,239.168,460.472,232.094,460.472z"/>
            <path d="M300.434,426.303c-7.076,0-12.814,5.739-12.814,12.814c0,7.073,5.738,12.812,12.814,12.812
		c7.072,0,12.812-5.738,12.812-12.812C313.245,432.042,307.506,426.303,300.434,426.303z"/>
            <rect x="155.213" y="281.293" width="17.085" height="102.299"/>
            <polygon points="240.637,434.545 240.637,417.969 240.637,315.463 223.551,315.463 223.551,417.969 223.551,434.545
		223.551,434.846 240.637,434.846 	"/>
            <polygon points="308.975,398.774 308.975,383.801 308.975,281.293 291.889,281.293 291.889,383.801 291.889,398.774
		291.889,400.677 308.975,400.677 	"/>
        </g>
    </symbol>
    <symbol id="1264" viewBox="9.996 0 427.114 512">
        <g>
            <path d="M364.598,195.028c-12.337-57.593-63.49-100.796-124.763-100.796c-15.366,0-30.09,2.736-43.721,7.725
		c-8.108-43.637-46.165-76.713-92.154-76.713c-3.529,0-6.999,0.233-10.436,0.608c6.356,9.502,10.069,20.914,10.069,33.193
		c0,33.018-26.769,59.796-59.795,59.796c-12.288,0-23.691-3.712-33.193-10.069c-0.375,3.428-0.609,6.907-0.609,10.435
		c0,31.708,15.758,59.688,39.816,76.705c-14.123,16.292-22.731,37.49-22.731,60.748c0,51.111,41.31,92.562,92.363,92.812v0.024
		h10.144v-17.083h-6.156l-3.904-0.025c-41.552-0.199-75.362-34.179-75.362-75.729c0-41.77,33.977-75.755,75.746-75.755
		c1.285,0,2.552,0.1,3.82,0.192l1.269,0.083l11.228,0.726l5.097-10.036c19.003-37.347,56.751-60.555,98.511-60.555
		c51.778,0,97.228,36.713,108.054,87.291l2.721,12.672l12.931,0.8c31.675,1.969,56.483,28.355,56.483,60.055
		c0,33.126-26.854,60.096-59.938,60.281c-0.358-0.025-0.675-0.043-1.001-0.043l-17.484,0.043h-7v17.083h24.084v-0.05
		c0.359,0.008,0.7,0.05,1.061,0.05c42.719,0,77.364-34.627,77.364-77.364C437.107,231.049,405.041,197.547,364.598,195.028z
		 M126.1,164.129c-2.061-0.133-4.104-0.308-6.189-0.308c-21.673,0-41.561,7.483-57.36,19.937
		c-17.185-11.052-29.789-28.646-33.96-49.342c4.971,1.001,10.061,1.509,15.208,1.509c42.394,0,76.88-34.486,76.88-76.88
		c0-5.147-0.509-10.236-1.51-15.207c31.892,6.431,56.626,32.667,60.93,65.259C156.94,121.435,138.021,140.696,126.1,164.129z"/>
            <path d="M163.755,409.219c-7.074,0-12.813,5.739-12.813,12.812c0,7.075,5.739,12.813,12.813,12.813
		c7.074,0,12.813-5.738,12.813-12.813C176.569,414.958,170.83,409.219,163.755,409.219z"/>
            <path d="M232.094,460.472c-7.074,0-12.813,5.74-12.813,12.813c0,7.074,5.739,12.812,12.813,12.812s12.813-5.738,12.813-12.812
		C244.907,466.212,239.168,460.472,232.094,460.472z"/>
            <path d="M300.434,426.303c-7.076,0-12.814,5.739-12.814,12.814c0,7.073,5.738,12.812,12.814,12.812
		c7.072,0,12.812-5.738,12.812-12.812C313.245,432.042,307.506,426.303,300.434,426.303z"/>
            <rect x="155.213" y="281.293" width="17.085" height="102.299"/>
            <polygon points="240.637,434.545 240.637,417.969 240.637,315.463 223.551,315.463 223.551,417.969 223.551,434.545
		223.551,434.846 240.637,434.846 	"/>
            <polygon points="308.975,398.774 308.975,383.801 308.975,281.293 291.889,281.293 291.889,383.801 291.889,398.774
		291.889,400.677 308.975,400.677 	"/>
        </g>
    </symbol>
    <symbol id="1273" viewBox="9.996 0 427.112 512">
        <g>
            <path d="M364.598,220.588c-12.337-57.593-63.49-100.796-124.763-100.796c-15.366,0-30.081,2.736-43.721,7.725
		c-8.108-43.637-46.165-76.713-92.154-76.713c-3.529,0-6.999,0.234-10.436,0.609c6.356,9.502,10.069,20.914,10.069,33.193
		c0,33.018-26.769,59.795-59.795,59.795c-12.288,0-23.691-3.712-33.193-10.069c-0.375,3.429-0.609,6.907-0.609,10.436
		c0,31.708,15.758,59.687,39.816,76.705c-14.123,16.292-22.731,37.49-22.731,60.748c0,51.112,41.31,92.563,92.363,92.812v0.025
		h35.771v-17.084H123.43l-3.904-0.024c-41.552-0.201-75.362-34.179-75.362-75.729c0-41.77,33.977-75.754,75.746-75.754
		c1.285,0,2.552,0.1,3.82,0.191l1.269,0.084l11.228,0.726l5.097-10.036c19.003-37.347,56.751-60.555,98.511-60.555
		c51.778,0,97.228,36.714,108.054,87.292l2.721,12.671l12.931,0.801c31.675,1.968,56.483,28.356,56.483,60.054
		c0,33.125-26.854,60.096-59.938,60.281c-0.358-0.025-0.675-0.043-1.001-0.043l-17.484,0.043h-32.625v17.082h49.709v-0.05
		c0.359,0.009,0.7,0.05,1.061,0.05c42.719,0,77.364-34.627,77.364-77.363C437.107,256.609,405.041,223.107,364.598,220.588z
		 M126.1,189.689c-2.061-0.133-4.104-0.308-6.189-0.308c-21.673,0-41.561,7.483-57.36,19.938
		c-17.185-11.053-29.781-28.646-33.96-49.343c4.971,1.001,10.061,1.509,15.208,1.509c42.394,0,76.88-34.486,76.88-76.88
		c0-5.147-0.509-10.235-1.51-15.208c31.892,6.432,56.626,32.667,60.939,65.26C156.932,146.995,138.012,166.256,126.1,189.689z"/>
            <polygon points="230.742,375.116 245.857,375.116 249.536,375.116 266.705,375.116 211.914,296.859 197.924,306.662
		233.896,358.032 218.771,358.032 197.924,358.032 208.786,373.549 218.288,387.121 269.35,460.539 283.348,450.746
		232.285,377.318 	"/>
        </g>
    </symbol>
    <symbol id="1276" viewBox="-2.819 0 452.738 512">
        <g>
            <path d="M369.862,183.308c-13.631-63.6-70.105-111.299-137.761-111.299c-54.866,0-102.308,31.416-125.589,77.18
		c-2.27-0.15-4.529-0.342-6.832-0.342c-56.609,0-102.499,45.89-102.499,102.507c0,56.442,45.614,102.207,101.981,102.49v0.025
		h51.779v-17.085h-47.875l-3.821-0.025c-46.857-0.233-84.98-38.548-84.98-85.405c0-47.099,38.314-85.422,85.414-85.422
		c1.493,0,2.961,0.117,4.438,0.217l1.268,0.084l11.245,0.75l5.106-10.043c21.289-41.852,63.583-67.846,110.366-67.846
		c58.002,0,108.912,41.126,121.059,97.793l2.712,12.663l12.931,0.81c35.903,2.236,64.033,32.142,64.033,68.088
		c0,37.563-30.458,68.137-67.973,68.337c-0.424-0.025-0.793-0.041-1.167-0.059l-43.078,0.059h1.167v17.085h41.544v-0.06
		c0.393,0.01,0.776,0.06,1.169,0.06c47.164,0,85.421-38.24,85.421-85.422C449.92,223.083,414.517,186.085,369.862,183.308z"/>
            <polygon points="235.014,353.902 250.129,353.902 253.809,353.902 270.975,353.902 216.186,275.646 202.195,285.447
		238.167,336.818 223.042,336.818 202.195,336.818 213.057,352.334 222.559,365.907 273.62,439.326 287.618,429.531
		236.557,356.104 	"/>
        </g>
    </symbol>
    <symbol id="1279" viewBox="0 0 427.1 512">
        <g>
            <path d="M354.6,216.3c-12.3-57.6-63.5-100.8-124.8-100.8c-15.4,0-30.1,2.7-43.7,7.7C178,79.6,140,46.5,94,46.5
		c-3.5,0-7,0.2-10.4,0.6c6.4,9.5,10.1,20.9,10.1,33.2c0,33-26.8,59.8-59.8,59.8c-12.3,0-23.7-3.7-33.2-10.1C0.2,133.5,0,137,0,140.5
		c0,31.7,15.8,59.7,39.8,76.7c-14.1,16.3-22.7,37.5-22.7,60.7c0,51.1,41.3,92.6,92.4,92.8v0h1.6v-17.1l-1.5,0
		C68,353.5,34.2,319.5,34.2,278c0-41.8,34-75.8,75.7-75.8c1.3,0,2.6,0.1,3.8,0.2l1.3,0.1l11.2,0.7l5.1-10
		c19-37.3,56.8-60.6,98.5-60.6c51.8,0,97.2,36.7,108.1,87.3l2.7,12.7l12.9,0.8c31.7,2,56.5,28.4,56.5,60.1
		c0,33.1-26.9,60.1-59.9,60.3c-0.4,0-0.7,0-1,0l-7.4,0v17.1h7v0c0.4,0,0.7,0,1.1,0c42.7,0,77.4-34.6,77.4-77.4
		C427.1,252.4,395,218.9,354.6,216.3z M116.1,185.4c-2.1-0.1-4.1-0.3-6.2-0.3c-21.7,0-41.6,7.5-57.4,19.9
		c-17.2-11.1-29.8-28.6-34-49.3c5,1,10.1,1.5,15.2,1.5c42.4,0,76.9-34.5,76.9-76.9c0-5.1-0.5-10.2-1.5-15.2
		c31.9,6.4,56.6,32.7,60.9,65.3C146.9,142.7,128,162,116.1,185.4z"/>
            <polygon points="237.7,396.5 252.8,396.5 256.5,396.5 273.7,396.5 218.9,318.2 204.9,328 240.9,379.4 225.7,379.4 204.9,379.4
		215.8,394.9 225.3,408.5 264.7,464.8 278.7,455 239.3,398.7 	"/>
        </g>
        <polygon points="168.9,391.5 168.9,369.1 187.5,379.5 193.3,369.1 172.2,357.2 193.3,345.3 187.5,334.9 168.9,345.3 168.9,323.2
	151.8,323.2 151.8,345.7 132.6,334.9 126.7,345.3 147.8,357.2 126.7,369.1 132.6,379.5 151.8,368.7 151.8,391.5 "/>
        <polygon points="332.9,459.8 332.9,437.4 351.5,447.8 357.3,437.4 336.2,425.5 357.3,413.6 351.5,403.2 332.9,413.6 332.9,391.5
	315.8,391.5 315.8,414 296.6,403.2 290.7,413.6 311.8,425.5 290.7,437.4 296.6,447.8 315.8,437 315.8,459.8 "/>
    </symbol>
    <symbol id="1282" viewBox="0 0 452.7 512">
        <g>
            <path d="M372.7,179C359,115.4,302.6,67.7,234.9,67.7c-54.9,0-102.3,31.4-125.6,77.2c-2.3-0.1-4.5-0.3-6.8-0.3
		C45.9,144.6,0,190.5,0,247.1c0,56.4,45.6,102.2,102,102.5v0h9.1v-17.1h-5.2l-3.8,0c-46.9-0.2-85-38.5-85-85.4
		c0-47.1,38.3-85.4,85.4-85.4c1.5,0,3,0.1,4.4,0.2l1.3,0.1l11.2,0.8l5.1-10c21.3-41.9,63.6-67.8,110.4-67.8
		c58,0,108.9,41.1,121.1,97.8l2.7,12.7l12.9,0.8c35.9,2.2,64,32.1,64,68.1c0,37.6-30.5,68.1-68,68.3c-0.4,0-0.8,0-1.2-0.1l-7.7,0.1
		v17.1h7.4v-0.1c0.4,0,0.8,0.1,1.2,0.1c47.2,0,85.4-38.2,85.4-85.4C452.7,218.8,417.3,181.8,372.7,179z"/>
            <polygon points="246.4,375.3 261.5,375.3 265.2,375.3 282.3,375.3 227.5,297 213.6,306.8 249.5,358.2 234.4,358.2 213.6,358.2
		224.4,373.7 233.9,387.3 273.4,443.6 287.4,433.8 247.9,377.5 	"/>
            <polygon points="168,376.6 168,354.2 186.6,364.6 192.4,354.2 171.3,342.3 192.4,330.4 186.6,320 168,330.4 168,308.3 150.9,308.3
		150.9,330.8 131.7,320 125.8,330.4 146.9,342.3 125.8,354.2 131.7,364.6 150.9,353.8 150.9,376.6 	"/>
            <polygon points="348.9,438.6 348.9,416.2 367.5,426.6 373.3,416.2 352.2,404.3 373.3,392.4 367.5,382 348.9,392.4 348.9,370.3
		331.8,370.3 331.8,392.8 312.6,382 306.7,392.4 327.8,404.3 306.7,416.2 312.6,426.6 331.8,415.8 331.8,438.6 	"/>
        </g>
    </symbol>
</svg>
